<mxfile host="65bd71144e">
    <diagram id="XBuXMdS7WOZRR6LN6F41" name="Gematik">
        <mxGraphModel dx="638" dy="1181" grid="1" gridSize="10" guides="1" tooltips="1" connect="1" arrows="1" fold="1" page="1" pageScale="1" pageWidth="827" pageHeight="1169" math="0" shadow="0">
            <root>
                <mxCell id="0"/>
                <mxCell id="1" parent="0"/>
                <mxCell id="HZbS4Qtm_KjDUO7TuKg5-1" value="" style="shape=image;verticalLabelPosition=bottom;labelBackgroundColor=default;verticalAlign=top;aspect=fixed;imageAspect=0;image=data:image/png,iVBORw0KGgoAAAANSUhEUgAABCIAAAJ2CAYAAACKHiOIAAAAAXNSR0IArs4c6QAAAERlWElmTU0AKgAAAAgAAYdpAAQAAAABAAAAGgAAAAAAA6ABAAMAAAABAAEAAKACAAQAAAABAAAEIqADAAQAAAABAAACdgAAAACJib5SAABAAElEQVR4AeydB3xTVf/Gn6bpXpQONrTsJbIUBBTBxVQUfGWIKCiKC9D3xYUTVF79I4pbBAevojJEUcEFgkwFREZZQls23Xum7f+cm9w0HUnTNkkznsPncu8999wzvjdNmye/4VUmClhIgARIgARIgARIgARIgARIgARIgARIwAEENA4Yg0OQAAmQAAmQAAmQAAmQAAmQAAmQAAmQgEKAQgRfCCRAAiRAAiRAAiRAAiRAAiRAAiRAAg4jQCHCYag5EAmQAAmQAAmQAAmQAAmQAAmQAAmQAIUIvgZIgARIgARIgARIgARIgARIgARIgAQcRoBChMNQcyASIAESIAESIAESIAESIAESIAESIAEKEXwNkAAJkAAJkAAJkAAJkAAJkAAJkAAJOIwAhQiHoeZAJEACJEACJEACJEACJEACJEACJEACFCL4GiABEiABEiABEiABEiABEiABEiABEnAYAQoRDkPNgUiABEiABEiABEiABEiABEiABEiABChE8DVAAiRAAiRAAiRAAiRAAiRAAiRAAiTgMAIUIhyGmgORAAmQAAmQAAmQAAmQAAmQAAmQAAlo7YUgMz8XcWcTUFZWBi8vL3sNw35JgARIgARIgARIgARIgARIgARIgATsRCDEPxDdW8batHebChFf7dqE7ccPYsP+XcgSQgQLCZAACZAACZAACZAACZAACZAACZCA6xPo1iIWwy7th39dPgStIqLrtSAvYbFQVq8exM1SfFi4/kvsEHsWEnBlApcGhaNncLiyBGHLI/7V+8fDlXFw7iRgNwL7ctJxoiAbOSU6u43BjkmABEiABEiABEiABOxD4NER43H31aMQFhBUpwHqLUQs+e07PLt6qXHwqJBGaNekBaJDwxEqJhUd2sh4jQck4IwEQotL0CErDxGFxfCh7uCMj4hzcmMCF/x9kBDij1RfHzdeJZdGAiRAAiRAAiRAAq5L4HRaEpKzMpCUmY5/ks6iSFesLEZaSCy6/aE6uW3US4iY9b838dWujcokfLU+GNajH9oLEYKFBFyBgI8wBuqSkYdWeYVVplug8UIpY5tU4cIKErAFgcCS0irdpPpqsScyBMX8uavChhUkQAIkQAIkQAIk4CwECoQI8ePfu3BCCBKySOODVQ/Pq7UYUWch4sudGzH7szeVwdtFt8ANwlfEX4gRLCTgCgQCdaXonZaNMGENIYv8P83PB4XeGuSJjYUESMC+BPxKS+FfUoawomL4l+pNkYpFXOOdUWHI8vG27+DsnQRIgARIgARIgARIoF4E/rl4VokNKa0jWjaOxs+Pv1YrN406CREyJsS4xU8rE2/ROAq39Rtar0XwZhJwJAFpCTHkfLrRDSNb642kAB8hRjC7iyOfA8ciAZVAVEExwov1sSIoRqhUuCcBEiABEiABEiAB5yaQJNw1/rftR2WSV3TojtXCMsLaUqevfmVgSlmkO8bwS/pZOxbbkUCDE5AiRL/kLEWEkFYQ5wL8cD7AlyJEgz8ZTsCTCSSLOBFnAv0UyyQZp6VParb4GWXAFk9+TXDtJEACJEACJEACzk9AxoPs376bMlGZuEIaLFhbai1EyM7V7BhDuvRCaGDdomRaO0G2IwFbEojJLjC6Y0hXjBxtrX8EbDkd9kUCJGAgIF2izgsxQhYZQ6JrOlNAG9BwRwIkQAIkQAIkQAJOS2CAsISQCStkeXb1MqvnWetPYRv271I6l4N1axlr9UBsSAINTUB+wxqbk69MQ37oSRfB8VhIgASch4Dyc+mj/7lsmV8EmdGGhQRIgARIgARIgARIwLkJSLcMWQ6djcfp1CSrJlsHIeIPpWNV9bBqFDYiAScg0DK30OiScdHf1wlmxCmQAAlUJpDmrxWZM/S1sdl64bByG56TAAmQAAmQAAmQAAk4D4GWEdHGyVjrnlFrIeKMyCEqS3RYuHEwHpCAKxBoYUjTmSOCUxaL9JwsJEACzkdABo3NNFhFNCkocr4JckYkQAIkQAIkQAIkQAIVCMjsmSH+gUrdaYNeUKFBNSe1sk3PzC/32Y0SgSlYSMCVCKipOouYntOVHhvn6oEECoRYiCKdYsEk3TOYztMDXwSGJUuXuibCTUfGDfEXaZcDS4S7DuOYeu4LgisngRoI5InfHwUi/pd09bsogpEXe/GLpxqQ8TIJ2IyAjB2ZXZBntWtGrYSIQ2fijRNtJXKFspCAqxAw9TUvpBDhKo/NI+bpm3AegXsP22et4gNbUeumyLusq336t1Ovhd7lfzj6lJWKUYQwweJRBOR7doesPDQVqV1ZSIAESMBaAhFCxDYWEfT4gsjKdDw0kIK2EQoPSMB+BKQ+cDYtGXaxiLDftNkzCdiXgP7DjH4M0w859h2VvZNAzQQaL/8B/kcSam5YjxYJn1mf07kew9jsVumeIcNUSvkhtKgEqb4+NuubHTk/ga4ZuYgVMX1Mi3w9SBFZfsvJQgIkQALmCEjrKT+xqfK1FDObFmQiPsgPcY2Y6c8cN9aTQEMQqJVFRENMkGOSgK0JyA85LCRAAs5NQH7olH9Qaktph+/cT8p2s5NuGP2Ss4wplqX4kCICC0vxgXF9bMeZPZGAOxNIMyzOR/zukL9DIkWsISlKSHGzsbCW2BUVSncNd34BcG0uRYBChEs9Lk6WBEjAXQnoIsKgi7JdEGBNXgF8T11wV1xcl5sRqCxCZAs/76QAH2EZQ+HYzR41l0MCDiEgxctMjTdyfPwRnV+MEF2JInJKsZNihEMeAQchgRoJUIioEREbkAAJkID9CeQM7o2MsUNtNpB/3Ek0ffEjm/XHjkjAngS6ZOQZLSFkeuVMH9Ww2p6jsm8SIAF3JyDFzPMiaGWeiDsjMzHJwOXy/WZ/ON003P3Zc33OT4DOls7/jDhDEiABEiABEnBbAk3Ft5WtDOmV00XqVooQbvuouTASaDAC8n1Fvr/IIt9v5PsOCwmQQMMSoBDRsPw5OgmQAAmQAAl4NIEumfrU4MXCCyPNn4aaHv1i4OJJwI4E5PuLfJ+RRX3f0Z/xfxIggYYgQCGiIahzTBIgARIgARIgAeVbSRlQTpZzgX6MCcHXBAmQgN0ISDeNiwF+Sv/yfYdWEXZDzY5JwCoCFCKswsRGJEACJEACJEACtibQuLBI6VJ+S1mocfY/SZKxf9MW/Hww2XoMuQnYLu7ZHq+3+rD+RjdpWWn9Fw8KfpvicNFNlsdluB4BJQuPwSpCff9xvVVwxiTgHgRoA+kez5GrIAESIAESIAGXIxAqItnLUuBtPjjl5lemYtFfJkuLHo7X37gViRXqtQhs2RN3Pnw3rm/la9LYlof/4NsPPsbuXvfguu5RlTrWIXXnF3jpky04kaEDNL4I7joWi27PwCcfrAdGx2JAbBD2vvsAXtjeHg9/MBtDAyp1YYvTxJW493E53vN4f2IrfY9bX8eYt/ej7wPLMHeQLQapRR8pf1ZY/5EfPsbbf/XA7CFd0aQW3bApCdiSgHy/8RHvPer7jy37Zl8kQALWE3D2rx+sXwlbkgAJkAAJkAAJuBSBiELxoV2UQpFqz3IRH15XLMNauQkRIsbY2FD/8Uu4M+oQ3nn8OXxyUt+nsUm9D4qQlaW33DDXVc6O9/DQG7+hYMBj+HLFB1j6n0Fo36oVKssVvWe8jbXL6ydC6OI+wV0TXsdmc5Oxe70OBz+cjTGv7LD7SByABOxBQH2/CS2y9XuFPWbLPknAfQnQIsJ9ny1XRgIkQAIkQAIuQaBAa94iwqoF+EXi+gduwW93f4ZvVv2JSXOuQPkfOKfxycxn8TX0lhQx2IH5E5Yolg1r57RUrq0P7Ip2Wf/gcJoQHILbY+ITczCurRa6k2vwyLPf4ZT4vKJt1Rntqs34l4oN3+5FXuhgPDm5HaQHul/P2/FcT3GQeKDC9PXWHVI8mYXBunRsW7IQb28/hzydBn5Ne+Oe/0zHtc3Pm51Tt+3PYd6Por3oddEEYSkirDPWirXWphQe/xYvvP6DstZSbRi6Db8bcyZ2wz5pYZJyGYYHH8PPh7UY8eLLuOrAQry46ijSxfo1gvGQB6cg+Mt38P2ZfDHkEowRHBVLi/5m1mJpYubWX/y1sOrYiGZD+yJp2w6c6zQFq5640uR5WuqU10igZgLK+40QIXzKam7LFiRAAvYjQIsI+7FlzyRAAiRAAiRAAjYhsF/54D1GfPg2+018UEd0igZKz57BmVqOWZCQjJhZi7Hm/UnonPcP/rd8M3KQirVLhAhR2hQ3PvUqXhoMnK421MMxHEkQA8a0RedajHvhm0V4dUsxhjzznrCSmIsbSnfjnXd+gRqBoro5tbp9Pu69RA5isASppQgB3V4sfnEtTrScgCXLl+GTaS1xYt07+GS/YeKn9yOx57/x2YpXMbXtn/jiCyFCdLhdnL+Hj+c+iFt6dsNdr94OqbFAiiDCQkW6e9S0FkPvFXaW7ynEvoNeuPs1wYYiRAVuPCEBEiABdyFQ/oWBu6yI6yABEiABEiABEnAzAgYrAourKoGSgKMuX7FE9sKQDjK2hBAzIoG4tDSkwCAw9BiOO7pHQNv9Rgz69gh+MjcHb22tvrU/ekIvl3z/zH343thnNoxaR7VzMja0eHBx3bMYs66aJmdP4J9CEZNj/yeYNvkTY4OsLPWwPYaOaKFYdQDd0LerFrvj/ocpM7biqnHTcG97tV3FfY1rqdhcOavpnqi+Q9G7Mf9MrQYdq0iABEjALQjwHd4tHiMXQQIkQAIkQAIeTiBXfMhOAfwHdjSJIWElE413rUSEir2Go3GoqBGWGAliFyM2a0qQSFcKtMeDyx/FtRX+Gjutj/9Qjzk1qSZYpTKnoEBI75KoEc9gyeQYpUr9b/N2eSSC+BnnEophT7yOjptXYPEXO7Dxw2eRVPYG5l+r3lG+N7sWETzTXKnpHo2FAKbm+mQ9CZAACZCA6xCoy/cGrrM6zpQESIAESIAESMDtCejyTuGb19YgTtMUo0dfWmm94sN3oKjKvIizwhqg8MBhnKjUovrTjugcI64cXI9PD6bi1K8bsNVoOWB6R2eMuKYpNEm/4X+/pkAMAV1eOo6dVp0sTNuWH/cc0AuBOIyvV5xQ7ilMOoxtcanlDcwcRTQOEVdykSHmohPpT0X4ButL5GUYEKNB8m9r8UuauFOXh5Pb9ioCStVOknH0aDoiB03D6/+9Be1QiuSkNNHMILzkZCFTjF4oAo7WZS11uafqHFlDAiRAAiTgqgSMurerLoDzJgESIAFXI+CbeB4Bh+PhFye2f04r0/c7fFLsh9pkKd7pWYhatMLYV9P5y1ASHgKd+Nq2VO7Dw8QWotTJ+jItfxUYYfHAxQjoY0csEukyI9pchgdfnSKCPVZeQgSG3XoVNi7eilfvvFsJCtkzVoNdlZtVOY/AmHvGYvfLX+PbF5/A712uQi+REXNblXbCCuJfj+MZ3bt4c/njuO3DUn36zkH34H8jqmlsqNL2nooXpuTitS9exm0/iHu0Aeg09ikM7Gr+Hnml+3VDEbt1HT66dyqWt7kFixaMgiFRp+UblavRGPfE/UhdsBzvPTAdb0EEyQzuj1kDe1dz7ylsWPg+NuVLqUOmRx2Ih0fpRxpxfWtsXvMlpkxYjdjbnsOiMWbW0quabg1VZtdv4R7zvfEKCZAACZCAqxHwKhPF2klvP34Q4xY/rTR/ZPht1t7GdiTQ4AQiiorRPzlbmcexEHskb2/wJXICTkpAk5cPv8QL8D+coAgP/kKAqFDkW7CXF/J7tMfFx6ZUuFTXE7+TZ9Fs7rtKv9b0URIUIESJUJSIb1r1AoUULELFsahThIsQlIYFo0zjOCO6lnmFCBQO//Ln9Xgof2ateY6u2GbkWfkNO3BGuCnkeTvu9eWKrDhnEiAB2xCQv1vk7xhZvm/R2DadshcSIAFIrWDnP4fQv303rJk5v0Yi/BqsRkRsQAIkQALWE9AmpwtrhwT4CKsHf2Hx4HvqQrU3F0eEoSimGXxPJ8FHmDsXtrf+O81qOzSpLGzbAin3jEHkh98otRk3Xw1pJaFNyxL7bOXYO0em39MX79x8yA1nLqpV1e51QozQiXlLUUIvXAihopFqWSGEC2FxURIibeBZSIAESIAESIAESIAESMA8AQoR5tnwCgmQAAnUSEC6WEhXC+lm4SssH7QpGdXeU9i6KQq6xKK4TTMUdI2BLipcadd03lJFiKj2pnpU6pqUf8uTMe6aKj15lZRAq4gSBmFCOc4sFyrEuTYtG5oC/bdGsgNtZo6yVenMpKJM662IE9KyQm9RoXcHUV1DFAFDXCv1l4H6WEiABEiABEiABEiABDyRAIUIT3zqXDMJkECdCEg3i4C4BMXKQQoPVdwsTHrN7xyjCA6FXdoKy4emKA10LveCMhGRvjiykbKZTLvKoUa4NXkLSwqtsKjQKHshXGQYxAuDhYUUNLx0+pB5XjohcAgxxpwgow5Q6uejt6owuH8Uy1gVwqJCjV/hJYWKEBnfn4UESIAESIAESIAESMDdCFCIcLcnyvWQAAnYjIDqZiEDSfomXLDoZlHQVbV2iEWRsHpwl1Lq64PSphEoFpulohGuHeWuH6qVRaaJ1YWoyxSCRak+LJGmsBiaC6nwEZu5UiQutBLxKyIihRuLECkKhFtIYUSoOG6EQhHPolCcF8hz4R7iyPgV5ubLehIgARIgARIgARIgAesIUIiwjhNbkQAJeAABUzcLf2H5oMkvqHbVqptFoRAfito0NbpZVNvYQypLhWBQJDa0amJ+xSIwp3Tv0MepkGKF6goij1XxQlhfZOcZ+5CxK0Jk/Arh9mKulIlgn0WNgvVChRAspEAhhQu5L5R7tS6UFhbmGLKeBEiABEiABEiABBxJgEKEI2lzLBIgAachoLpZ+CkxHmRWi0rZLAwzLQnwUywcZFwH6WYhLR9Y6khACAY6Yb0gN1jAKONXtDyfCv/ULJwrLESaEIR80zLhJ879UsVeuITIzSdPLxSJ9E/wE0KG3CyVUpGmVFpSFAhhoqixwZrCKFZIawu9xYVOPHMW+xJIu5iMxk2i7DsIeycBEiABEiABEnBaAhQinPbRcGIk4FoEDsYdwdx5rzh80vOfnoPuXTvXOK4SUFJ8qy7dLKS1g7kYBjKbhbu6WdQIyUkayPgVZUIo8AoLQa5I33nKTPpObxG/wi8lUwgWBnFC7H0VkcJUtBCWFsXFyso0Io5FQJLIaiI2S6XEz1eIEgZXEMWaQlpVSJFCuoRISwu9W4gUNlisIyCFhz2/bsGJ/XE4F5+I/Jxc5calrVqii9jaXdIVg64eZF1nbEUCJEACJEACJODyBPhXlMs/Qi6ABJyPQHRkBIKCAhGfeFqZXPcuncTxKeSKYI+xbVohNzcPSSnmYwPYYkXSzcJfptFMOKcID+bcLGRQSRnTQbpZSKsHZwsqaQsW7tpHiYhfkdc8UtksrdEnJ09vRSEFC2lVIa0rpGBhPM+Cr7Cm0JSWKt14FxYh8FyKslnqtyg4QLGi0LuB6IULNX6FjF2huIgwfgV+X/sDfl6xxig+mDI9cvoM5IbtO/H7nr/w8H3TlPcO0zY8JgESIAESIAEScD8CFCLc75lyRSTQ4AQWLXhe+TAx+/FnFWuFaXdMwLoffsLGLdsgr0khYtLdD9psnjKopJ9i7aBPoWnJzUJaO8i4DnSzsBl+p++oODgQcssRKVTNFuneIbKB6AUKvVjha7S0yIK/EC98pYiRpf8mX/bjm5OvbBbjV4h2RSIjiLSk0AfbNMSvUCwrDDEshBVOkRvGr5BWD5/Mfw0nDsQp2MOjI9H32sFo3rYNwoVbRoEQiBr9FYc/jh3Hxn37sWv3X5g+cw4evncq+l3WW7mH/5EACZAACZAACbgnAQoR7vlcuSoSaFAC0k0jNqa1YvWQlJwCuR08fFQ5l9ekEGGrEvXmV2iZpTe9r9yn6mahptB05mwW0nqj0ZqNlZdQ53MpzrDUgoCIX1EoUonKDe3M3yfTk/qLVKam8Sosxq8QXanxK0JPnDXbcalwR1HcQYRAIeNXyOPyYJvl564Uv+Knz1cbRYhBNw3H9RPHIiC4YsDQkRFNcce1Q/FlXBz+74NlynvD4veXYZF4/4iOijTLixdIgARIgARIgARcmwCFCNd+fpw9CTglgZdfe8s4L/ktp9zUYus4Et4iCwO89MEFpZuFdK8obtPc5dwspBWHOUsOlR33DU+gTOuN/KhwZbM0myrxK4QriN7CQnUP0YsZxvgVIkBnbeJXyJgVevcPIVhI4UIRL6Rg4RzxK2QsiK3frFcQ3XjPZFw5ZoQlXBjYtxc6dn8V0opKum0tfm8ZZPwXFhIgARIgARIgAfckQCHCPZ8rV0UCDicQFBgIGQvCHsUn8Ty8DRkS1P7LNBqUBvmjdPCVuNCruxJgUr3GPQk0NIHax6+QwoSMXaHGr1DP6xa/QrqiSKFCjV9RHmxTZA2R1hbS8kJYf8ifI3uUj+cvVLpte0mXGkUIdXwZV+bhGdOUoLfScmrj5q0YOpgBLFU+3JMACZAACZCAOxGgEOFOT5NrIYEGJCBdMeY/85hdZhC6fjsCdh+GLkpkLVBSaMaI43DjWPokjsZTtz3I69MZSY9MQugP29D4sw1uu05PWpjV8SuE5U95cE1DdhBDsE0Zv0LGtvDNLI9fIQN0ys3a+BVKDIvIRnrhQsavUGNY1CF+hbSGKDC4X902e0atHqfMgDP0qoFKPJmNm7dRiKgVPTYmARIgARIgAdchQCHCdZ4VZ0oCHksga/gAyI2FBDySgIxfIbJvyM3a+BUyjalMa2qMXyHFCiVjSBZ8DNZFXgKmGr8CNcWvaCwtKWSgTUO8ClWoMDnXBforj+fcyQRl3zy2DRqLoJS1Ld27dlKECHtn1qntvNieBEiABEiABEjAdgQoRNiOJXsiAY8m8Nf+g3j+5dcczuCNV15Am1YtHT5uQwwYuOcIYiY93RBDc0wXIFCr+BVCpPBPMbiBSGuKtAxDAE7hEiLOpWhRIX5FcgYCxGaplPj5KkE2f8m9oDTrXKpB62+2GOJXyOCbekuLUh8fS92IFL+tlesyyK0MbCtdNlhIgARIgARIgATciwCFCPd6nlwNCTQYAY2X7X3NL72kKy4RptqdOrRDVGQkIiPCkZWdg9S0dMQdOYbtu3Y32HptNbCMc8FCAo4koMSvaBaJPLFZKtK1QxUl9HshVhhECv1eWFykZ0NTWqp0411YhMBzKUgt1Wds6XgqBZ0+/LbKENIdRe/6EQqdvx+8GoUiQLhdeQmLC51Iddo+PMx4T3ziKSUFsLGCByRAAiRAAiRAAm5BgEKEWzxGLoIEGp5AaZn+w4gtZhIdGYEZ90xBrx7dq3TXOLwR5NahXSxuGnlDleuuVpE2eQQKRLYPTX6hXaae16eLXfplp+5PoDbxK3yFBYV0BZHBNpv89AtwNA77w/yQHdFMES+qi18RfOoC1HcN4XQCucmyu6z8Z+G6zzaiJHy32EINW4jYy02IGMI9pCSE1hJ6avyfBEiABEiABFyLAIUI13penC0JuD2BoYMH4t67boefnz4lpzTPluk/5T4+8TSioyLEFol+fXpBBsh09SKDbmaNGOjqy+D8PZWASfyK7HYtFApB2iJFiDjs54Wdix9V6jQiPalqTSHjV6gWFu3OpKAsIxvFWbnwShfuIEKQO4pi5Z5O8IFfwnlAbmZKmbc3dI2C9eKEiFehiBTCwkLZS6FCiBbSyqI0gJZHZhCymgRIgARIgAQahACFiAbBzkFJwP0IeEGGvqtfmTHtDtxw7dVKJ1J4+GL1NyKF37ZqO/1i1TeKL/m0O8bTdLtaQqwkgYYh0LxtG2Xg9IvJkBk02vXoilIhGOQL0U1upqXT2TTl9GKgH/K8NdAUFWPVk88DZzPRpnMHpPe9Apr0TGiFC4i3yaYp1osVXkLg8BGWGHIDzph2XeG4zNdHWFBISwq9+4dqVaG3tNBbWehkOlMf/llUARxPSIAESIAESMBOBPgb105g2S0JeBqBMpTVa8k3jxpmFCF2/bkXi99fpgSqs9Sp9B+fO+8VjB93E8aPvclSU14jARJwEIEWbWPQ9pIuOHngML58/T3MXvwyAoKDrBr9829/QPzZc0rb4VP+hUwzVk+avHx4C8sKKVDoRQphTSEtKoxihTgWlhZepfr3JS8hcPhcSFM2SxMpCQrQW1MY3D8UFxDFLUQVK4R1hcheUqaxfUwcS/PiNRIgARIgARJwNwIUItztiXI9JOCCBCIjGmPiv25WZh6fcAovv/ZWtauQYsO69T8hV3wIMS3SOkLqIFKQYCEBEmh4ArfNnoFFDz0OaRXx7ZLluPGeyTWKEQfjjihWUHL28mfdkutVaWAA5Fbcson5xZaVwVu4fKjihFbEr9Bk6MUKHylYCCFDuZada+zDO1cIHGLDmSRjXeUDKW2UhgUrLh8VY1cYXEJk/AopZIRaJ75U7p/nJEACJEACJOAJBChEeMJT5hpJwMkJSBHCR6T0k6n65s5/pdrZPnzfVAwdPAj9+vYSVhD/rSpGCDeO7l070U2jWnqsJAHHEmjcJAo3Tr8DXy16D7t/2YwTB+Jw26z7FDeNyjPJysvDe2u+xpoNIsilKLFtWtlGVBTxK0qEYCA3xDSrPKzx3KukVLGe0EphwiBUaKSlhSJU6MUKaXWhyS9Q7pFOaN6ZOcpmdfwKaVUhY1ao8SuUc8avMD4EHpAACZAACXgcAQoRHvfIuWAScC4CIcJke/DA/sqk1q3/uVp3DFWEkI3kt6Tzn37MjBjxLeaLdJ8sJEACDU/gsmsHoyAnFz99vlqxjHjviXmQ8SOaC9cNKVTIsnL33zhy+gyyDFZO3bt0wsMzpjl08mUiNoVOpg4Vm6Ui41eo7h+KO4gQKqyPX2G+Zxm/olgIE6VCqFAsKaQ1hRQsDME29QE3Gb/CPEFeqQsBbXI6Qn7fV5dba31P5rD+igVTrW/kDSRAAm5NgEKEWz9eLo4EnJ9AdyEceItAdrJIt4vKxVSEUK+ZEyOkabd07bBk0q32wT0JkID9CVw5ZgS6XXEZvlz0rhIz4tzJRMitcgkSbhbSHWP0iOsrX3Ka81IhGJQ2iUCx2CwVJX6FwaJCjV+hWFgYY1gIASMjB5pSffJSGb/C92IqIDcLpWL8ChmzQgbeVN1BDNYVjF9hgSAvqQTka7T5E+8YrXzUenvt/eLicWHuVHt1z35JgARclACFCBd9cJw2CTgbgbpmzejYvq2yFCkgVI79MG3yeMUdQzaQbhtBQYHGvSpGzH7iOeV+9T+Z6pNChEqDexJoeALS+mHGgmeUDBrnTiYoQkRaUrIyseExsejcsiXCOrZFaNPohp+sDWZgjF/RwvJ6tCKYpoxRockUbiCpUpwQwTfT9HVaIVpoxKbNzjPOyJr4FbKxjE0hrTtKlLSmUqiQaU31MS1KFfGC8SuMUD30IGT9doeJEBKx/+F4+AsxoqBrrIcS57JJgASqI0AhojoqrCMBEnAYgeioSGWsXOEnXrmo1zZu3oqk5FTFb1xmyti4ZRsevm+aIjjIb1JNBYzq+qncL89JgAQcT0Cm8ZSbaRlpSN95RqbvNL3gAcc6Yb0gN0tFjV8hXUKkOKEIF0K8UM4NwTZN41fIvpQAnSJIp6VSpvUWQoW0qghR3EJk0M1y1xApXgg3EeEaUubnY6kbXnNRAiFbHOOSYYqn0ZpNuEAhwhQJj0nA4wlQiPD4lwABkIBtCNQ1fafGkAZPWkRULkuXf4F1IoCddLkwTc+5cfM2UXcUQYHCQqJSBo3q+qncL89JgARIwBUImMavKLQwYSV+hRJsUw2yKSwtFAsLIV6YCBZeOp3Si5euBNqUDGXzs9BvqZ+vIlboGkurCiFcKAE3DXuDW0hxZCMLPfCSsxEI3vyX8twdPS9pFSHjUuiiwh09NMcjARJwUgIUIpz0wXBaJOApBAoL9X9eV+dOkZScIiwhUqpFYa5expxgIQESIAFPIqDEr2gq4leIzVLRiNSk+mwgeqsKJX2pSGvqbXATUa6JjCBeIvWpLJrCImgupMJHbJZKSUiQECmkhYXekqJU7qXFh6FOSXMaEgiITCYsDUug0ZqNDTaBsNUbkXrf2AYbnwOTAAk4FwEKEc71PDgbEvA4AqfPnlfWrLph1BdAdJTlP8Tr2z/vJwESIAFXJVAaFIAisaFVE7NLkCKERggT0uVDn9JUiBaKVYV0DTGkMxXnmjx9OlPZkXd2rrIh8YLZfstEUGKdErdCL1gY05maCBjS6qLU35KNhtnuecFKAmfeeNTKlmxGAiRAAvYlQCHCvnzZOwl4DIG6Bqs8evyEwkgKEbFtWiE+8XS9mNEiol74eDMJkICHEygTVguKBYOwaihs28IsDa9inRAqhDWFFCyUuBXCHSRNuHsYjhVrC3GsKS5W+vAqKYFPaqayme1UXCgVcSnU8WWcCsUlxOAGIrOEqLEspLDBQgIkQAIk4LoEKES47rPjzEnAqQjUNUbEocNHkZGRiUaNwjB6+HVY/N6yOq9r6FUDYSvLijpPgjeSAAmQgAcQKPPRKqlMa0xnKtxB9ME19RlB9FYVegFDETGktUUFd5Biq9xBdMLVQxUs9GKFwdJCuoWoAobIIEJ3kPIXY9P5df/9Wt5L/Y+YyrP+DNkDCbgDAQoR7vAUuQYScAICvXp0x9oV+j9y/I4motkLHyqzSv/Xtci8abBVMxw6eBDWrf+5WquIg0KwkMVcMEqZPWP8uJusGoeNSIAESIAEHENAuoPIrbilbd1BZGpTJb3pKfPuIKUiGHKpIY2ptKZQXD+ESKE/Vq0thIAR6O8YGA08igwYyUICJEACzkKAQoSzPAnOgwTchIBXQREi31utrKaodVNkjr6yViub//RjmP34s0hKqRgcTWbOGDNhqtm+nnj0IVpDmKXDCyRAAiTgvARq5Q4i41SYZALRpGeaBODUW12o7iCa0lLhLiJSn4rNUuSJMl8fJY2p6vahk7EqFOHCYF0hU52KWBZlWvf5s7lQ/H5OfmSi8qKIeu1z+FkQdExfOfK+vL7WB4XWJmcg5HfHpws1nTOPSYAEnJOA+7yjOidfzooEPI5A4882wCcpHdJ/N/m+W0TYdU2tGAQFBWLRgucxd95/q7WMqNyZtISQ4kV1WTcqt+U5CZAACZCA6xJQ3EGiG6NYbJaKzA5SG3cQr6Ji+F4U4rfcLJQSYdmhBNkUQoUUK+RxqXArLM8OIurCgiGFFWcv2cMGGFNpZo4diuhFn1s15fMvP2BVO9NGpeL3dNiPO0yrzB4nfP4YZu3qi9ffuBUx2IH5E5YADyzD3EFmb6nTheLEdbjt1Z9wpAjwaT0a9707Hq3r1BNvIgESqCsBpxQiZDq/tLQ0ZGVloaioCMUi0FGZIZVUXRfK+xqWgJf4pezj4wM/Pz+EhoaicePG8PX1bdhJcXSbE5AuGSEb/1T6zRg7BMVtmtVpDFWM2Lh5q1lXjejICEhXDhlXQrZnIQESIAESIAFJoLbuIPqAmyITiLC2qJLeVIgaavGWAoc8P31RraqyL9N4oTTMIFQYxApdo/Igm0YBQ3w4b8jikygzVvVSpuCTeM7qqQTtPozcvl2sbu8rxgmwhUtI7t94e+67+PWCDj5tRuDF+beg/c7XccvXGWiTegbxJSHo06cljv15CLmBffHI6/djkF8CPpu7AKsTdQjqeDOefXok2hs++ZzcvRtHmo3G3HfGI8ywmpxNr+O113chG9Ho+/g83HbFfiwb/Su8+51BXNIg9MvdgAtjPsT9o1Pw/bQncXrsB7g9YEmle9LFtddwsb0fju1ujSmrH4T1tKzGyoYk4BYEnEqIyM7Oxvnz5yH3LO5FQApJUlSSm3y+Z8+eVQSJ5s2biw+RIpgUi8sTqK9LRnUApNAgt6TkFGWT8SGk5UNQYCAtIKoDxjoSsAGBkuPf4IPnV+Fkug7eIVfgto96469xK9HkrTfQc+NMvJk0CQueuNzqkVJXzMGSggfw+F1tyu/RncSG2S/g8ZOFgG8z3PrUPIzvWH6ZRyRgbwKm7iCWxlKyg9TCHcSrtMyQ5jTLUrco9dWiRAgUMm6FGlyzNFxYV0jxQhUwhHuItAKxR5EWCj4p6UrXgXuOWD1ElLCciLK6dR0bJq3HrAnrjTf3FUcJ33yOn0Nuxiev9sD3Tz6Fd74fjNdEtu7S1EiMe/8RpLw4Cx+lDcMnnwzBB3e/hd/+AjqlfoyVvuKe5fKep7Hyz5F44gp9t5369UXsz9/g5akXMPaFB3FZy/349q3D6PzcctycsxjPfbwBV1/RXAxwDLnd3sRLcxvj4kd78ca2Hcjvm4mjFzqi31VH8e2Uyvf0EwMk4WzAk5i3+hL4GFfBAxIggcoE7PPuVnkUK84TExORkpJibKkR5tzyG3R1k+csrkugVPhpSssWdZPn0uJFbk2aNEHLli1dd3GcuUKgvi4ZljDKTBhyY2pOS5R4jQRsQWA/Vj31FbKvew4v3dPB8Ef0Voi/6ZXiJX4VlxQKW2bocObTuXhnZSJKgjrihnlPY2iHneLbw6+R3ykLpw7nwX/QFIzUrMfarRdQXPo4/pP4AF59zmBffXon9p1sjpn//TfuDgfOCKOmvKwdeOWxj7A9A2hy1X14ZUYU1s58C6djfbFvXyvcdf0JLDl+Pf737DVIEebbj5wYjk9n+uEdC/c8/vF0yA8xLCRQVwL1dQeR6Uw1YvOR+4xseBksfDVFOmiS0oQrY5rFqSnuIKo4YYhbobiHiLgVUsBQ4llIdxAzfydr8vIhXSOqK7URIKq732510cMrumaIgRLPJAPBoQjTNkOLSGBNfAIghAiENUELP8EhWLxvtOwqrgPRwsRBJgKPO3oKOH4KUyZ/Kc7E9XhRe0Ur5RgtR2Pty10x54sPsGrm2whYEIVTBVlInTsZertOHc5CCBGIRJuejSGTxTa/uh/C1+zFjt/Scb7b1eidfAS/V7lHChFAi0tdW4TIzMxETk4OLdOVp+n6/3kLd2nVMj08PFyxUHeGVTmFEHHy5Emkp+tVWSk4NGrUyGkAOcNDcpc5+PuXR6UuKCiAfJOTgsTFixcVgSI2NtZdlupx67CVS4bHgeOCScDZCMQfRHxuJC65VhUhzEww+Xus+tIXwz5bjs7rnsTCL//E0LmibWkqfK9fjJcmrcC8ufug/X4WBh57HAcGLahoERE7ED1bfo/XnnoGByc9gFnXtcbuTz/FwZ4zserOPPzfvavw3egZosNknAh4FJ993A1+iSvx7fd7sDX3EmTuS0bnay7DkU//bfkeM9NnNQnYmoA17iByTH3sCuECYhAotNLaQgTc1KcylcE2hYtIXoFxekZ3kDNJxrrqDkpEOtOyYOmmqE+m7aUrhTZZ/7d1zoAeSHngVlx4amp1t7pEXduYpsDBLGTqzuOs+N6y9cAYMe/fLc69TUthu5EzGEufGYGwomwU+oYY2x+N2w//mK64dtZoHJqyA0nBfRCtCUXMs4sxXqiXuZlAkJAkKoTZFO9bl0S/hC3rshA7YRACWv1VzT0X8L1xFNc6kFbLFy5cQGpqqvL3uWvNnrO1loC0Sg8ICEB0dDQiI4Wq14ClwYWI06dPG0UI+UFVihAyngCLexOQz1rGiMjIyIAaE0Set2jRwr0X7oarM3XJKOjYutZZMtwQCZdEAq5LwFsLq+wPDx4V3xYex9lJk7FOrrZpPM4pod7C0LxDqPj2MAT+EH/Jmy1tMOztN3HXsjfx4PIF+G/4HDQ+XoispIUY95v+Jl0CIL+7bNdNiBCyqk1/DIj8Ebt/2Ym00x1xzaA0HPqhhnvkfSwk4EQESgxWDcIpyWLxEYEz9bErhDghsn4o2UGEeKEVwaCVOBZZuUL4KxF96P9m9hbpTCG3aorf0QSltqCr637h0+qW6bh17wLcNXmliBExCi+OFOYQO6tZrElVzKg7MGL/m7hn8irALwYT5z+DcQYD3OS/VuCB17NQrPFD5DUP4PJmvXDJ9G14d96d+I9OC/9rHsK8R0w6Uw7boNcgf/y2qjkuHSLcirX9MbrKPU0q3+QS5+fOnVPc400nK78c1opMMfKbdH42MyXjesclJSXQ6XTKF79y9vn5+ZDeCDIkQvv27RVhoiFW1aBChFTckpL0Cm9ISAiCg4VdFYvHEJBvcDJopYwZIc2/pAor40VIMYrFdQiYumSk3De21lkyXGelnCkJeACB1j3RofHXOPDjcVx/Xyx059JQIq2TK5eYlsIqOgf9PnkGQxoVIbfQV3x7WN2ngkg0Ep8XSnUlKBF/BHmr6Q/jD+CQXztcP3Iypu57Ct+eC0LvFhqEdpqJJfdfAmRlA6EZ+GKl6cCtMLhfBJ754Vdkdb4RLwQ1w54a7zG9n8ck4DoEpIWDFBx8zqfAOzlNWDdkwr9K0MeqX9yVCKuIMm8hJ4qgmV6F4mdOuGbkXn2ZsvDwNZucAkD6LUPMziNm4n+xdqJ6+QrMXWEI6oAYTFrwHiapl+R+0CysNXh7xcxZhsGGa1PeWGY46obp4p7phjPT3aBJL+Nv0dn3LcozsASPfgzPjDZtBUz93jCAobr5XW/g1bvUNlpEVXPPyKUr1AYusa/sHi+DyssvDKU5P4v7EZCChHSNl18ESyuYI0eOKGKE/Czu6NJgQoSEIK0hZJFKG0UIRz965xlPvvClq4Z8Tcg3Q/kGyJggzvN8LM2kskuGrkn5L3RL9/EaCZCAsxLoiBufGS+CVb6AJ9eJDzGBV2HSSiEMVC6xo3DLqP34+K7J+EHYK7S8fT5m3la5kTwPQmzPVlj32VN4KmV2eZDL9D+x+vmX8LFOA//o/njs6ihc0m8Ctsx7E7dN0EEbMACPLruhSocxA/siYN16tLylP4KhxcDba76nSiesIAEnIiBjOPglXoDMLuGdnCH24jjhPDT55e4Z1U23sHVTkX6zEYraNBUZqpobjptV19RYF7Z6o/G4IQ8sCRENOS9PHPvMmTPGGH3y85iMH0ABwr1fCdLKRX4RLK0iVDf548ePo0uXLg63jBAxc6zPi7n9+EGMW/y08nQeGV7tXxxWPzkpQqjWENJHhS96q9G5ZUMpQiQni0BEojRt2tTmLhoRIkd4/2TxDZsox0KqD9qkXOR/VhOQLhnNn3hLBNpKh3TJuPD0NFpDWE2PDWsi0DKvEIElpcrP6/FQ/szWxMtVr488qw/UdybQD3nyW1wWEnBTAnUVHIojRCaNqHAUdI1BSWRjFIlYCUV1TI0dM0n/N7xELPtNv2OkCGTpj/DlQk48dcEq8up8rGpsaBRwJKFC84TP5lU4d/SJ/N0if8fIYmoR4eh5NPR4aWlpiI+PV6YhLZLlF4EsnkVAumzI14H8HCZd5KUYIYWKuhapFez85xD6t++GNTPn19hN3UeqsWvzDaT2oX7oDAsLowhhHpXHXJEvemkZId005GuDsSKc/9HTJcP5nxFnSAIkQALWEPCPOymaVTXzt+Zea9q4cmwCa9Zn2sZWgoO0drAnt8yx1yCvbxdl6pljhyJapOW0ppxf8IDZLBzm7g//9AfIdKEszkNAZrFLSEhQJiQtIShCOM+zceRMpCGAdImXmSulm4a0kImJiXHYFBpEiJDxAFRDjMBAGeGXhQSEAa9QY6UQIdW5vLw88LXhvK+KgH3HELLxT2WCGWOHgC4ZzvusODMSIAESsERAihBNX/zIUpN6X0ubNAxZIwbWux9n6sBVBAdzzHyEKwjQS7nsk3jOXLMq9b4JF2olkCicrLS2qDIYK+xGQAanlJ/FZBBK6Y7B4rkEpBClfhks4zdKTwVHfQZrECFC+qTIwjgAnvuir27l8s1QbvKNkUJEdYSco066ZEQsWatMhlkynOOZcBYkQAIk4MwENPk15Yhw5tkDASJIpFbEb9CmZMAvLt6qGA6qC4PqUmFvC4faEpQWCt6Gv8eDt1RIUmmxq6YvqoEgLTbjRScmUFpaaowLIS0h6B7vxA/LQVOTsRplvD5pKSNDJ8Q4yCqiQYQIuUhZ6uOD4qDnwmEcTEC+GUo/JfU14uDhOZwVBKRLhjYjW0Tl9kb9smTosPONh/BLn3cxt2JQaitmUZcmOzB/whLsNrm17wPLrBi7lvPM34YXpm9Ax1fnof/GxzDrzBisnaNG/TYZnIckQAIkQAJORaCy4KBNFqkyhfhgqZQE+CkxG5xVcLA099oIEJb64TXXIiADFKrFUd98q+Nx77wE5GtBvjYyMjKM1jL2nm2DCBHyg6YstIiw9+N1vf5VIUJ9jbjeCtx7xla7ZGTtwCuPfYTt4u+3Jlfdh1duOY/nH/kF7Z/6Ly7fOBsvpV6JGwt34bv4Quh2TsW9p57H+6POVLxnRhTWznwLp2N9sW9fKzz+8SXYMGkdctrn4NixPAT1m453Z12O4MpjifvWP/4ivkosgiagD+5/+wEMVWId6tOAJXwuxIFdffH6G7ciBjr889V8PPXNKRQHtsfEJ+ZgXJO9WPjvD/F7Rin8WvbHVT6HsMlknk/gLbx8pg38DhxAzOx3MS3vHcx6fzfSEYmhD8/Fw5dpoNEVibRIhtfC2R/w8OQlOOPfF4+8fj8G+SXgs7kLsDpRh6CON+PZp0dC+9VjFfp8pLd7v464OhIgAeckYOsggk3nLYV/pUCFzrDy+ggOMlBkiZKtopkSOLI00HWC6V54aqoz4OccGphAbm6uMgN+IdzAD8LJhldfD9JFXsaL8PPzs/sMG0SIUOND2H11HMDlCEjXDFn4GnG+R1cbl4zdn36Kgz1nYtWdefi/e1fhu9Ev4P5hWzDn7SfwZ0YYxr40HpPatMEZYaEAg1XC7rdeqnTPDAEhGScCHsVnH3cTCQJ3YENpOvyH/BdfjVuFqS9txx5cjqDKY13eF9sTQ3DdU89gUrROiBEWWKb8iHe+9sHE9z9Anw0v4OGv92LcgD+wLbcDpr5xH/qhDE2iDyHdZJ4JIp7XxXh/PPfhu+jp9zdeu/Moes/5ANNz38OUL37BzZc1qzigX2/M+XASvp31Ctb8kopO+BgrfW/GJ8t74Psnn8bKP0digrijvM+Kt/OMBEiABEigbgQ8VXAwR8uewS/Njcl65yMgP2TKon7wdL4ZckYNQUDGilCLWwsR6iK5JwEScB0CqktGqZ9PDS4Zp3HoeCGykhZi3G/69ekStJh001B0+OFLHO02BePaVF53dfcArUSzdt2kCKGWUMTGhkLkWEEAskRlNfflX4t7Rh/BwpdnY3v7cZj3/DAEq7dX3h85jpM4gZP3TocSqi06EQkzx+H+Xa/hvZmP4vshD2Dh9Mo3ifPYLkKEEPvEYzhamI2LL03Hr0ozneivkhAR2RQt/TqjWyzwd24e4s6cAo6fwpTJXyp3NIk/reyNfQrBRe9C0gOzV8zCYP1V/k8CJEACJGCGgK8IvOgjYjj4iqCIMoZDbVwqXNnCwQwOs9XhazaZvebIC+m3DHHkcByrEgHV/ZlCRCUwHn4qvwyW3goyhogqVtkbSYNYRNh7UeyfBEjAtgQquGSMu6aGLBnNENNCg9BOM7Hk/kuArGwgVIfdb32L47Ft0e7wWiyNG4j7u4ajsUhZnSRctXS6qGruycAXK2taRzVjeeuQ2uPf+OjaH/HYzE3YnDgMMVWED0O/rVqgCXJxw9uP4ZbQImQV+SI0T/wxO/0lfDZoKaYt3IQ904eZzLPSfFq0RCtNCLr851XM6imWKrSRUGGn8btps5QLOFN4BIfiRWaYToFo0zIKyBmMpc+MQFhRNgp9Q5D8lekNehcS0xoekwAJkAAJAKaCg0/COSWApBQfLBU1hoMnCQ7meISt3mjukkPrKUQ4FHeVweQHTVlUK+QqDVjhsQTU14T6GrE3CAoR9ibM/knAxQlUdsnIGnZFDSvSYuDtE7Bl3pu4bYIO2oABePTZMHy8LRg3LZiLfiJGxJNLv8WIhTegR5dgvPb+fXgk9QW8VvmeZTfUMI68XM1YLzTF6rlr8U8hENJxHAabEyHk7W1uwIzrD+Hlh6bjU/ii/a3P4P+a/4B/v7kdeTotmgiLiD7CLsPbZJ6PyPvUor0Md92xC3MX3ocxon3gVffic+lRYlLCcQBP370OmTJGxLURiCm5AyP2v4l7Jq8C/GIwcf4z6GvSnockQAIk4OkE6iI4SGb5nUXkHxG/QW6FXdq6XAwHRz53mdUj/Y6RypDhn34Pn9TyAIaW5qFmA7HUpvK1gCMJlat4TgIkQALwEr74ZdZy2H78IMYtflpp/sjw26y9rUq7hIQEyDyl/v7+zF1bhY5nV6SnpyvpY6KiotC6dWubwYgoKkb/ZPHNvCjHQiwFDbDZkG7TUYQQDUI2/gnpknHu5QdrsIZwm2VzIQ1MoGVeIQJLSpWf1+Oh/Jlt4Mdht+FHnk1T+j4T6Ic8b43dxmHH5gn4x51E0xc/UhrYK1hlhjDFzxg7tMokbCU46MWH8Cr9s6IigZhJ+r/hZW3K9FuEcV4vpUHw5r8Q+cGaio3NnJ1a8iRqG6Az/NMfINOFqsXWrzO1X2v38neL/B0jy/ctGlt7m9u0O3z4MPLy8hASEgKZtpGFBFQCMnWnDFYpP4PJz2K1LVIr2PnPIfRv3w1rZs6v8XZaRNSIiA1IwHMJ1M4lw3M5ceUkQAIkQALmCXhnZiNo92ElhoO1LhWyt8oWDhQczDOu7RXvFL0IKO8zPa6pH62IxVHUxnpxWJOXD78a3GdqGpPXSYAE3JMAhQj3fK5cFQnUm4AmJw8RS9Yq/RR0bI2aXTLqPSQ7IAESIAEScBMCMmCkz5mLympCfv0TIb/uNrsyCg5m0djtQvia3+BtsAqQFhHWluZPvmNtU7YjARIgAYsEKERYxMOLJOC5BBr/bz20GdmKS0bKfWMhQul6LgyunARIgARIoFYE5Dfn3tl5MiKe8b7C1k2V+A1FbZoqMRxo4WBE0yAHoRvK3SUaZAIclARIwKMJUIjw6MfPxZNA9QSkS0bw7/uUixk1Zsmovg/WkgAJkAAJeC6Bgq6xKG4eBZ/zKci+5jKkTr3Jc2E4ycplBhHvfH1shIaakhSjWEiABEhAEqAQwdcBCZBABQIu6ZKx9XWMeXs/2o5/Fa/dFCHW8zdeu/MNbAkbjtffuBUxFVZY+WQH5k9YAjywDHMHVb4mz+X1tWi14L+YYikDR3W3so4ESIAEPJhASViwIkSUhIV4MAXnWfrFp6chYHdcg02oLDAAeX27NNj4HJgESMC5CFCIcK7nwdmQQIMTcGWXjJM7dyL5ppGIituHAwFhCFVpJm7AUwvW4FAGEN7vLrw+6wqE6dJx+I8DSInwRZhoqCQuk4LGyhaKeIHPH8OsM2Owdo7aCfckQAIkQAIk4LoEito0E4Emm9V5AX8fiMPJhETcPHp4nfvgjSRAAiSgEqDTt0qCexIgAZi6ZKRPHOZaqTqjW6Pt+QP4Ixc4uH0vmnXpZHiiOmz+chVO95yJVR/fg077PsXSvcCR5S/giaU/Y+Oa9fgjhw+fBEiABEiABEjAEoG9fx/Alm27LDXhNRIgARKwmgCFCKtRsSEJuDeByi4Z2dde7mIL7oYBfROxbet+bN/TDAM7FSBLWcF5JJwtRUBIKLR+TdEsrBAJ8Qex52Am2t44C88+cReGeF4acRd7tpwuCZCAvQgE/H3cXl2zX7cjUGYae9TtVscFkQAJOJYAXTPM8E5e/RL+twHo+8yTuLLVHqy953PEq221/oi4dDRGTu0PYdUtSsXrXr5haDF0PEaO7YhA9R65P/0dlr2wSW8CLk717f6F4Td1RrB8EgdX4O03/kLzu+bh5gF+8g4WEnAYgSouGQ4b2XYD9ezZCV98uRznG12NV4KOQ0R+2ZeXXQAAQABJREFUEKUV2rXW4NfsLOgK83A+0w8xsbFodBDIzsoGdGlIFTtjKchGhi4LZ4+nAgHGWh6QAAmQgNsQ0OTlI2TLXwhZvwMyzab66VIe66LC3WadXIhtCZSVyZdKeRYU2/bO3kiABDyNAC0iavPEe0zE7CUL8dC80QiNW4nl877DRZ1JB8r1l3HbIC3ObPgIm/ebXDM5DBv2qOjnFcyYeSlyf1qCT9/dA5HgCug+AQ+IetuLECU4s/x5LHpzj8kseEgC5QRc2iWjfBnQ9u+HnmmpCO/fH1Em9YPumYbu+97AuDuX4GjPOzCtdxAGX98Pup9ewsRHvsNpVXDoNQADSrfjuSlz8XtpNPgGaQKRhyRAAi5PQAoQ4Ws2oeXDryF8uUjRnCIC55gUihAmMHhIAiRAAiRgVwK0iKgDXm1kfwwbswfvrtiMHbuHY0x/00580Sw2WlSkIuO8+Jq1h7lI0d7w63gTrh20Fyu3/Ig9p/vgyrMfYtHSw4idtlD0WYTz6z7EdxvikVNUCu+wdug19Q5c2TUYh998FBvOt0OMz1mcPleAEm1jdJ0+Ezf0CkZJwq9Y89aPOJNZAmh8EXrFdWgb/ysOiHbA51gkLDv0/ZvOmceeTMD1XTLE0xs0C2sNGS/mfnaF4XGW14kfBMx5V603XL7iXnxUqQq4HHOWVHVJmbuiSkNPfslw7SRAAi5GQFo6NFqzEYF/HoEmX/49oC/ZV/ZEQY/2iHp7lVrFPQmYJVAmTSJAiwizgHiBBEigVgQoRNQKV3lj/w5tEIaTSDt7sbxSHunycTY+SRyEokl7cyJE+S0tO7QCthxG6tnyOnlU8teXWP3taTSfPBdTr/LGkddfxE/vfYfWi8frGyafRtnkx/HAgBRsevwdHBDfbHTrdSuy1/0gRIi2GPrGA+hWcgppuS0Q3TQMmdK1RFpsPNSn4kA883gC7uCS4fEPkQBIgARIoBoCqgARvGWf8WpJgB+yhl+B7OEDUCrSKfrHnTRe4wEJ1ESAnhk1EeJ1EiABawlQiLCWVOV2JSWoogvvFxYHMwDvgCboMOVuDG5X+aaq5yW60qqVoibt5GkUowiJIrL/4uVqkxy9C4dyGotOA8LgrRXxKNoAB/ZnQrq5t+nRDt77T2Djo8/h0OXDcMOk1urN3JNAFQLu4pJRZWGsIAESIAEPJuAfFy8sIDbB/3C8kUJxRBhyBvcyChDGCzwgASsJSIsIxoiwEhabkQAJ1EiAQkSNiKpvUHDyjIjI74vOHZqLBuf1jepgcXA+XppCtEDzjmJ3TN+N/N8/wF/8H47eT83F4BhZU14OK4caaKp5eoGD78W9sX/it49+wOHtIo5Fainu+zcDX5bT45FKwC1cMtTFcE8CJEACJICg3YcRsmFHFQEic+w1ighBRCRQHwJ614z69MB7SYAESKCcQDUfZcsv8qg6AiUoPLUV69aehFfTa9G3R3VtrKkrQua+b/DL1hz49boZPSqlDwy57FJEf/MDDq37A31mXI6AorM4ftQLnXtJ4cN8yTwZLyJe98YNz3ZB4/kvYGtamrCU6IJg6SWSIy0qSuBbBGh9vc13wiseQSDio3XQZmSj1M8HKfeN9Yg1c5EkQAIk4I4EZAaMsNUbKwSfzO8cg9yrelOAcMcH3kBrUiyB6ZvRQPQ5LAm4HwEKEbV5ptL1QsRakGk3o/vehimTLxc2C7UvmRsWYtEGvQtHq1H34l+jO0LaP1QoUdfg5vsysfazVVgy40sl8KR/vwk1ChFJv32E9TtEAEvRmXQR6XrX1SJ7QDAuHdICh7/7Fu/f8z2ibn4Ut49oUmE4nngWgcA/4xC0U+SvFCV94jDomlRSwjwLB1dLAiRAAi5HoEIKTpPsF1KAyBw7FAVdY11uTZwwCZAACZCA5xCgEGHmWUeNfRKzjV8S98GYJZaCPNZ03TBIq1GYumSUmRFFdf+7Mbt/+eXAXrdgotgqly4PLRQ2DuWlwvnUF9Fhavk19Shq9CN4aLR6xr0nE5AuGY0//k5BUNCxNbKvrZolwpP5cO0kQAIk4MwEpAARtmEnQn7YXiUDhgxAWdSmmTNPn3NzZQKMEeHKT49zJwGnI0AhwukeCSdEAvYlQJcM+/Jl7yRAAiRgDwJqBozqUnBKCwhdVF1sNCvOVAa5tGXR5JWnCrVlv+yrYQgo2TsbZmiOSgIk4IYEKES44UPlkkjAHAG6ZJgjw3oSIAEScE4CvonnEbphOyyl4LTVzJu+uMxWXbEfNyRQJvLFMWuGGz5YLokEGogAhYgGAs9hScDRBExdMvIu7UCXDEc/AI5HAiRAArUgwBSctYDFpo4hQNcMx3DmKCTgIQQoRHjIg+YyScDUJSP1njEEQgIkQAIk4IQEZAaMILH5Hy53kyiOCBMBKJ0jBWfaJBHgWLiBRL++wgnpcUr2JEDXDHvSZd8k4HkEKER43jPnij2QQGWXjJLwUA+kwCWTAAmQgPMSMJeCUwagzOtrGqK6YdeQM7g3SoMCoBPiiDY1s2Enw9EdSoCuGQ7F7bSDlez8EG8uPYqYaQswpr+3fp6nv8OyFzZBd1lvaP/ci8rvDGHDHsXUy/cqbdRrMgthi6H/wvCbOiO4mk+kh998FBv2m2CIGoLbXxqFFKW+C4YtudsQvP8cfn9yIXZDfx2rX8L/RHbCvs88iStbARX60fgiuP1AXH/fKLQJMelbOdyDtSI7olEC1voj4tLRGDm1PyJ8RYOkTfj82e9QMPQRTL21ReWbeV4HAtU89jr0wltIgASclgBdMpz20XBiJEACHk5AzYARtHkvtC6SgrP5k++gNNCfIoSHv3a5fM8l4N23F2I+OoyEP/ehpH8fSCkiY98RIT6E4tJrJmHo9EkGOKn4Y94CbDsTg97XNxeN9ir1iigxtgkKj32HFQuX4NNzE3HnQ30QWC1SU8FB3yCl2nY1Ver76XDia3y6YBPWfdkWD97dtfqbekzEbDEfXcpOfPfCSiyfl4IJz45Ck+ghmPjukOrvqWNtydGVWPp/mbjSKKrUsSMXvY1ChIs+OE6bBKwlQJcMa0mxHQmQAAk4hoAqQFSXgtNWGTDstRJTwcReY7BfJyWgxIhw0rlxWo4joO2JTt2/QPzROMTr+qC9Nh3H9p0HhMXCJe3Kp5G38QtsPwWEj7wZPaX1QUb5NQj5wq/jTbh20F6s3PIj9pzuo1gvmLawx7G2XWs0Fh1nJiUhF10RZGEQbWR/DBuzB++u2Iwdu4djTIv1ikUHpHXHWChWGH9H90eH5L04nBSL696djk6JP+Hr9zbhbEYRyrQhaHntRIwc2xGB2cfw+3uf469j2SgRa/e/bAJGhv+MdRsvokjMYcM9wvpDEUB6In3r/7B2xUFkFJXCO6wdLp9xN/q3EyYZwhJl0dIMdLw6EGe3noB3t47I//sYwm+ei0kjRNYkg1VK0VX3477JJg/Cwhob+hKFiIZ+AhyfBOxIIGj7fgTtPKiMkD5xGOiSYUfY7JoESIAEaiCgpuCsnAFDul40lABR1KYZsoZdAd8E8UHCDkUX1Ujp3w5ds0sHE5AxIrzEPxZPJ+CNjpd1wo/743A8Dmjfci+OC8EhbFhvRKlo8vbhl7UnURZ1FYaPEtYQZkrLDsJ3YsthpJ4VDcRh1XJY/yFdXjBYKlRtY21NibDCOIU00TysU0eLIoTao3+HNgjDSaSdvQhU441RfOg4vGY+joe6h8FbdwDfL/oRF9vfirtf7g/Nzg+w7JNP8HvnuWi2fgl2J3bAta9MQ1e/dGQXhqNReC8MvSDdT0ysPk6swcpP9kN73Sw8fEso4t5agF8WfYnI1yejvTKp84g/OxIT3rgfERox3qxjOLZnL7JHXAMcOKa3ShngGiKEXA6FCPWVxj0JuBkBumS42QPlckiABFyWgCNTcNYWkoz3kDZ5RG1vY3sPJCBjRIj8nR64ci65MgHVPePEH3HIPvM3khCBvpergkMJTn6+Eify/dH5buHSYOHTZomutHLXlc5NPqRXuGIiUKj1RhVErTDdy/ZzlIqAXpNw+03qXE3bVHNcUiJf9eblt4huuFSKEPLW84m4WAgUH1qJJTNWGjvLzz6KhONinV16omu4t2gbiUbV+6Eg9cBxYakhWF7RCt6CW4ceLfHLIYPgY+ix+YDB+pgVuASX9gvGsS1HcCKvN4r2CDUnbCA6u44OQSHC+CrhAQm4GQHpkuGdm49SPx8wS4abPVwuhwQ8nMDcF/7r8A9E0yaPR2xM61qRN5eCUwagzBncS8RaCKhVf2xMAg1KgDpEg+J3qsFV94y4A9iRIz4AC7eMzgaLhpKE7/DbrgL49ZqMIT2Uj+hmp34+XppCtEDzjhWDSsZOW4hOZu+SF0wFCjVYpaUbZPsRSH96Ef44f0582O+NYJgGp5TXe1XpoODkGWTBF507SOFCH+OiQiONNzRqhRB1/cRxqLBmmPYvU/MOMc5StZE1+1KUlphvp9GWM2054FKRZWkHjm/ejTLFKqU/rJRYzA/gwCsWNCoHzoJDkQAJ2JQAXTJsipOdkQAJOBmBg4ePGmcUHRmBpJRU5dz0OMjwIT83L9/Ytj4HuXl5Vt/u7Ck4rV4IG5KACYEyGSPC/HfDJi156P4EVPeMfTj2j/gifojqlnEOu5ZuRaamLYZM7gl/syCKkLnvG/yyNUcIFjejhwjc4P/QQkMWDP1Nh/80e3MdLzRHv2mDcOTFTfh+zaWY8q8+GLOkj0lfe1D+m0W4cZzainXCvcSr6bXo20M0O23StLrDxj3RofUGbNv6Iw5ddxe6hRQhac8JePVri1axGsT/sw9x6X1wSVAmTvxTgHZdmyOkUbDoKQ952UCJXxEa9emGsO834cQfpzGoZSiO7z8D+LVDTHvRzDSDiDp+u95oH7YNcet/gw7N0P8qV5Ih6JqhPkbuScBtCNAlw20eJRdCAiRQA4EnHnkQ/US6OMVCQrSd/8xj2CVSx7382ltYtOB5BAUGYvbjzxqFihq6q/dlV0nBWe+FsgMSIAGPJ6C6Z8QXRqCD6pZxei+OXJDuFiex6ZFHsUmlJOM7jNGfZG5YiEUivaZ3QBO0GnUv/jW6owXBQu3ANnvvmFG4/qp9WPnzMmy6dC6u7VRuXWAcYf/nWCTSeMr0otF9b8OUyZdDhIK0okTg8ll3IOeN1fh1zhz8JGwltEG9Maxfd/SceivOv/m1Uv+LcM4IunqaECKAllcPRNTOn7FFsNrWagQmPTMcN09JFcEqF2Pxz/pglX3vH48uZlw5AJGRZHAz/P2tiPHTogc6W3RPsWIJDm5CiwgHA+dwJGBvAqpLRokwEaNLhr1ps38SIIGGJJCUbJLIzeC7rtbl5uYpQoS9fdrVDBiulIKzIZ8Zx3ZdAvoYEa47f87cxgS0wqLgfVOLAtF/q1GYumSU2YEsXat8U5dKFhLq9ar1zXHlSwtxpdpg7JOYLbJaqKVie2+0nPwsZk9Wr5ruK1tImF4Tx5XWVmFMtWnIJRg6V2zqubpvejlGvXi5ela+b3U9bn/7+vJzeTRoCu4aVLFKOet/N2b3r1rf6JIOCBVCRMhVV6JR1ctOXUMhwqkfDydHArUjUMElYxKzZNSOHluTAAm4GoGly7+A3NQyZsJU9RCzn3jOeGyPA1WAcMUUnPbgwT49gIASI4LBKj3gSXOJLkOgCOd3HEKWph0u6+96MYcoRLjMC40TJQHLBCq7ZOQM7m35Bl4lARIgARcl0L2L5TBm9liWdPOQxRlTcNpjveyTBCoTYIyIykR4TgINSOD0d1j2wiZk+bbApTPvQA+z7hsNOMcahqYQUQMgXiYBVyFAlwxXeVKcJwmQQH0JyFgQDVECdx9G9KLPjUOXBPgha/gVkFkwmAHDiIUHbkpApjFkrEo3fbhclusRqOQq4noLYLBKV3xmnDMJVCFAl4wqSFhBAiRAAjYn4JN4TumzOCJMER+YgtPmiNmhExOgRYQTPxxOjQRckAAtIlzwoXHKJGBKgC4ZpjR4TAIk4O4E0tIzMPX+Rxy+zEcfuhdXjr0GhV3aoqBrrMPH54AkQAIkQAIk4E4EKES409PkWjySAF0yPPKxc9Ek4LEEvAzZMWwJQOvtjQ7t26Jrpw6IjopUtvyCAqSmpuFEwins/GOPcTiKEEYUPPA4AmUiCQ2DVXrcY+eCScBOBChE2AksuyUBRxCgS4YjKHMMEiABdyYweFB/TLtjIkJDgs0us3j6ncjPLzB7nRdIwBMIlMkgEdQhPOFRc40k4BACFCIcgpmDkIDtCXinZ6Hxx98pHedd2gHMkmF7xuyRBEjAfQmEhYXi4fumok/PHsZFxgvrh4OHjyI3L0+pk9YRMkOH3PtYECqMHfCABNyYAGNEuPHD5dJIoAEIUIhoAOgckgRsQYAuGbagyD5IgAQ8kUCnDu3w1L8fRmhoiLL8jZu34ovV3yIpOaVaHN27dsb4sTdC7llIwHMJSNcMz109V04CJGBbAhQibMuTvZGAQwhIl4zAPUeUsdLuHIWS8FCHjMtBSIAESKChCDRa9Su8NBqkD+1dryk0b9YUT8+ZheDgIOTm5mHuvFcQn3jKYp8H445grtjGj7tJCBI3WWzLiyTgrgT0rhlUItz1+XJdJOBoAhpHD8jxSIAE6keggktGn87IHVBuVly/nnk3CZAACTgngbAN29Ho698QtnojtJk59ZrkIw/eU6MI0a9vLwQFBlQZ54tV32Dppyuq1LOCBEiABEiABEigdgQoRNSOF1uTQIMTqOCScdfoBp8PJ0ACJEAC9iTgey4ZjT7/SRkie2hf6MLMB5WsaR4D+1+G9m1jlWYvL3yzWkuIoVcNxBOPPoT5Tz9WrRixbv3P2PXn3pqG4nUScDsCjBHhdo+UCyKBBiVAIaJB8XNwEqgdAbpk1I4XW5MACbg2Aa+SUkQu/hJeJSUojm6MtNuH12tBN428QblfulrIoJSVixQhHp4xTamOjWltVoxYuvyLyrfynAQ8ggBjRHjEY+YiScAhBChEOAQzByGB+hOgS0b9GbIHEiAB1yIQtvpX+J6+CJk1MOXh21Dm5wv5rWxdSoiICdGxfVvlVmnVULmYihDqNXNihAxqSasIlRL3nkJAsYigEuEpj5vrJAG7E6AQYXfEHIAEbEOALhm24cheSIAEXIOA37FTCPtmizLZzDGDURjbXDn2quMHoW4iDadadu3+Sz1U9jImhGoJIQNYmhZzYkTlPkzv4TEJuCOBuoqA7siCayIBEqg/AQoR9WfIHkjA7gTokmF3xByABEjAiQh4FRYh6q2vIOPzF7VqgsxbhhpnV9cPQ82aRCt9xCecMvalHnQ3iBTy2uL3lqrVWPyu/liKEbFtWhvr5YG5VJ8VGvGEBNyMQF2FQDfDwOWQAAnYgADTd9oAIrsgAXsSoEuGPemybxIgAWck0PjTH6BNzUSZVqt3yfCu//cmAQH+ylJz8ypaPMjKdRt+QW5+PqTLRmzrVkYkG7dsQ1JKqhAhWlUbU8LYkAck4AEE6JrhAQ+ZSyQBBxKgEOFA2ByKBOpCIGLJWnjn5qMkKACpzJJRF4S8hwRIwIUIBOw/jpDf9igzTp9wPYqaR1WYfV2/kS0u1in9BAUGVuhPnkjrBpmas7qiBLYUwS1ZSIAESIAESIAEbEeg/l8x2G4u7IkESKASgeDNexH493GlNu3OUSgJD63UgqckQAIk4D4EvLNyEfHOKmVBBV1ikTXsiiqLq6trxvmLSUpf0s3CFiU6KtIW3bAPEnAZAnX92XOZBXKiJEACDiVAIcKhuDkYCVhPQLpkhH+2Qbkht3935A7oYf3NbEkCJEACLkggUogQ2uw8lPr7IeXBW6tdQV0tIo6fOGnsTwanrG+xRR/1nQPvJwFHE6jrz5+j58nxSIAEnJ8AhQjnf0acoYcSoEuGhz54LpsEPJRAyMbdCDjwj7L61HvGQNcopFoSdf1W9mJSCg4f1VuYjR5+XbV9W1sZHRmBfpf1trY525GAWxBgjAi3eIxcBAk4DQHGiHCaR8GJkEA5gcouGaXBVX2ay1vziARIgAScm0B+Ti62frsBZ08mIP1iMs6dTERAcBBWtmiOyzp2RHR0FG787DdlETnC+ktagZkrjcMbYe2KZeYuW1XfvWtnyEwZBw8frdI+Ny9fqZOxIcyVaXdMMHeJ9STgtgTKytx2aVwYCZBAAxCgENEA0DkkCVgiQJcMS3R4jQRIwNUIHNzxJ756/X1IMcK0yPM/hIWC3GTZg0DMDmuO7KmjTZvZ7fiJRx/C7MefVbJimA4Sn3gK0x+eYzY9p7SmoDWEKTEeewqBMpSBrhme8rS5ThKwPwG6ZtifMUcggVoRoEtGrXCxMQmQgBMT+HjeQnwy/7UqIkR1U/4WeRjvlYIThqCS1bWxZV1QUCAWLXheSc1ZuV+ZRaO6Mn7sTaA1RHVkWEcCJEACJEACtSNAIaJ2vNiaBOxKgC4ZdsXLzkmABBxI4KfPVuHQzt21GvFiRgbmzn8Fubl5tbqvro1VMWLa5PEICgww241045j/9ByMH3eT2Ta8QAJuT0D4Znh5uf0quUASIAEHEaBrhoNAcxgSqIkAXTJqIsTrJEACrkLgxP44/Pz56jpNV4oQi99bCuk64agyesT1kFt8wins2v2XcVgpTkg3DKbqNCLhgQcT0MeIoBLhwS8BLp0EbEqAQoRNcbIzEqg7Abpk1J0d76wjgdwEbP/jFBDTBwNig+rYCW8jgaoEvlz0btXKWtRIMWDXn3sdHoshNqY15MZCAiRQlQBjRFRlwhoSIIG6E6AQUXd2vJMEbEYg5Jc/EPi3PmBb2p2jwCwZNkPLjhQCOqTu/AIvfbIFJzJ0gMYXwV3HYtHtGfjkg/XA6FhFiNj77gN4YXt7PPzBbAw1b6VOpiRgkYC0hkgXqTLrWzZu2eZwIaK+c+b9JODWBETWDLpmuPUT5uJIwKEEKEQ4FDcHI4GqBBSXjM83KBdkyrpckbqOhQRsSSBnx3t4aPE+hI94Al9OboOcfV/gzf2tEIWMCsP0nvE21s6oUFXrE13cJ7hnXjruXDELg2t9N2+wN4FzH83EolVJYhgNfJoPwsRXZ6D7X6/gP/+nuiP0woTv7wNefgxfbc1AiTYAlzz8OCI+fxa/XSifXcS4BXj8rjblFSZH50SKTluU+MTTtuiGfZAACdiIQJnim0HXDBvhZDck4PEEKER4/EuAABqagHTJ0BQWQ9coBKl3OSZtXUOvmeM7kkAqNny7F3mhg/Hk5HbwE0P79bwdz/UUB4kHKkxk8ytTseivHpgtRQRdOrYtWYi3t59Dnk4Dv6a9cc9/puPa5ufxycxnsT6wK9pl/YPDaUVAcHtMfGIOum1/DvN+FO1Fr4smiL563YO1c66oMAZPnIBA09GY/f4wHH3sAXz39Qh0j5FzkgLEHPRWprcVy7YWo+fzyzG+r+HPhGtWYOQmKVjApJ3SuMp/504mVqmrS4XMXCHjRciAkrUvOux84//ZOw+4KOs/jn/YGwQFFBARNy4US03NVZorrSxXZpmjbLjK/Xdllpk5MtPUtCy1MtPUMitnpZZ74UJRQQFFZG/4/77P8eBxHHB33HGD78/Xec/4je/v/Tx33O/7fMdb+CPsc8xor31r7VscxrxBq6EcmrPVG19qMLaWcqb/jbmjdqP+wvfQZu9kjIvqx58x7S8Wt2ACTIAJMAETIMCKCBO4CCxC5SXALhmV99pX3Mwv42KkGK1ZMBpqMWjM9sVYeDAbveauxMjat/HlxLlYsSIYzec1lnrJiLyLoLnL8L7vIUx7/Vt8s+EAvpk1D6NvKykztBiPq1Y0gXRkZQi7CBubgoFPYlOvQdhESoq1fRHWdh2+mfM64p99G8NeaQpXLcS7H3dXi9qlV71+4yaahKjcuUmH8dHkdfhHGPT4Pv4aPnr2DuZM+AN1py/Ao3vHY358BzydeRQ7r2ci58hwjL45B6t6RxVt87o3to1djlu17XHqVE1MWd8Uu4fsQErdFFy+LJQfrUfh83GPwlV1LNHu1ynv4/sbWbB2CsOYz94ocGNqixmb2iJyo1AOHG2FJUufRxBycPX7eZi+/SaynRXKuv6+J7DonTU49CAPDgFt8LjdeexTknMqluODqFpwOHsWQeM/x6tpKzBu1TEkoBq6vD0Dbz9iDeucLGRmFnCL/gVvD12NKMdWmLBkDNo7ROLbGR/ixxs5cKn/DGb9rxdsv59cpM8JCm1T6eD5LBNQQ4BjRKiBwoeYABPQmQCn79QZHTdkAuUjoOqSkfZISPk65NZMoDQCNrbQRvN8KSJK9HYXu2a+hn5D5+JnYc2fl5yMVHmMai3QuZ494F4fDaqJg/fvo/xRAeTO+d2gBGJ2YHHfd7Afz2Dw4ICCocgiYhMWrh0MP7ig+YwVmDgxDBnb5uOLTbFaieMXHKRV/dIqF1NCiMrHvv4a50LHYsv6kah9dAt2ZnfHmKfs8cdnU/HZYQ889/JAvDz/BZDRD1klrBpcs3gbur3F/R3hNBDfrh+FVrSblwDHzvPw/bTHYHX0HxwXh4qNdfw/HLrhhienL8WXHw7Go6XFUrn3G1b8ZIfBn3+BZU9mYONPJ4Az/+Lv1HoYvnQxlr37At5QkZPEiL3uiOFrPseElqexds0ltJz0Bb57IxD/bP4DxZxVHFpi0ppJeML2GLb+EY+7u9bjB/tnsG7De+iR/hN++I96VO5Tsc//MwGdCFCMCJ0aciMmwASYQHEC2vwuLd6ajzABJqAzAXbJ0BkdN9SKgCe83EWD6ChEircg8dKkuDiTE0ddvLlholjkKLe4hQO0a22jlWJDuQfeNjIBYfUwdkouvpkQjhspgKyKKJTq7gVcvB+AOp1GoNfxY9gQFS1O+RaeLmvDL1h97Iiy2qmer12rpuohsX8L569kIiluEfrvV5zOibTFkL5dUO+X73Cp8TD0Lza8ujYA9V6ncWPJXUnRkztq13YX97UbnJAkDqlpl/4ERva5iEUfjMc/dfvjvTlPlWwtcvEKriEC10aPwjoawOcGIsf2x5ijn2Dl2InY1fkNLBqlGLnI/7UbIZQ+fjcu41JmMmLnj8KfUoUc0V+NIlVRrToCHBqicW3gtHBjuRAlsuBcuYlhQ7+T6vleL1BdyH1CdiEpcMEq2hvvMYFSCbBFRKl4+CQTYAJaEijy81LLtlydCTABHQmwS4aO4LiZDgQaomfX6vjjp/345s/OeLdrNdikJeBafA7ql9Jb6GMt4Pz3v/hpUwQ6iNgSiAvHsXs+aFeG4U5VLzfRayoeiHVcjoOIH+FgzwqLUjgb65R1vUF48dnJWD55I2o9T1IUuGZQrAjhpnB06vtYm5kHG89G6DZLuwC6+lJE+HiTqY1qqYEgf2u4NxiL1WOaAknJwionB8eW/4wrtYNRJ3wb1l5ohzEhCgVcXE4OcnK81bR5gM0/qPatuq9mLBuRgabZO1j3xG+YPHYfDtx4CkHFFB8F/dT0F+qbVHT/bDKedc9CUpY93NMewH7UfHzbfi1eXbQPx0c9JSkKFXKqjO8fgJrWbmj07kKME+YdSeIz5S7sNA4pV7sXg6jMizh/HXBp4IxaAd5ASkesndkTHlnJyLR3w93vlRsoXEiUj/A2E9CUgBSskk0iNMXF9ZgAEyiDACsiygDEp5mAvgmwS4a+iXJ/ZREIemEKZuZ8jk83TMGANXmK9J3tR+KbniW3tG05HHOHpeKTzR9gwC+ijcie0OC56WUqIpo82QW1/9qBdaOHY0OtZ7H4w97Sk+eSR+IzFUnA75WlWPhKwYivLMKHBdsLnygqRcutPYoeoL3Ok7Cwc/HDqkf8g4PgV7sWbl+/oXpKq/0+PZ5UU98W7V4chIPvfYoBg3LEbfkYJs7ywPq/XdH3wxloLWJETFv7M3ou6o5mjVzxyarXMCF+Lj5RbfNldzV9qx5SM9bc6vhxxjZcFTEa3Or3R8eSlBDUVa3ueL3beXzw1ih8DXvUfX4mPvb7Be98+o8IAGsLX2ERESY+HTZKck5QFsH2Ebzy0lHMWCTco0R958dHY+PryhUAT5zF/0bsQCLFiHiiKoJyX0LPM59i5NAtQgkYhMHzZircToo24z0moBuBfHLNsNKtLbdiAkyACagQsBLaTfG1oln558o59F/2P6nyhB4DNGukplZkZCTi4+Ph6OgIT09PNTX4UGUlkJCQgIyMDHh7eyMwMFBvGKpmZaPNXfHkTJTLbk5661eXjnw++hrOp69IWTJuL3gTea7OunTDbZiARRMISMuEc26e9Hm94m7cz6xFgzbQ5KKvRWLl5LnISEvXaQRSQrz60iCd2nIjJsAEDENg5ryF8K5WFW+9NtwwA1RQr/S3hf7GUNnl71VBo5rOMOHh4UhLS4ObmxtcXbUJRWw6c2BJDEMgLi4Oubm50hqM1mLaFtIVHLl6Hm3qNsbWsfPKbM7BKstExBWYgP4IsEuG/lhyT0yACZguAbKK6Dakv04C+oiFzsDn+urUlhsxASZgOAIcI8JwbLlnJlAZCbAiojJedZ6zUQiwS4ZRsPOgTIAJGIlAnwYhGG1FMUM0LxSgcurEt+DiwpZimlPjmkygYghINtQW4JnhICwiuDABJmB8AhwjwvjXgCWoJAQ4S0YludA8TSbABGCTkYUmH32DR6zc0dqvJmbYp4iYESKjQymFrCAG9mdLiFIQ8SkmYFwCQhNhCTEi7AsUEfEOvAwy7g3Fo1d2AvwJrOx3AM+/Qggou2TEj+zHcSEqhDoPwgSYgLEI1F+9DU73HiDPxgYZM0djfIAPzh3+D7ev3UDE2QvSu5ePNxoH+COsRg20b9kCObX8jCUuj8sEmIAGBBSuGRpUNPEqDnmK8Hjp1mwYbuKXisWzcAKsiLDwC8zTMz4B29j78Ny4WxIkpUMo0kNLS5pofHlZAibABJhAeQhUPXEJAXv+lbq48nJPpAolBJUmbR+RXtJOwX81RcC4Zgmp0l4E8pFrihH5/1qCfp+dQfDAhfikb1Uh62l88vJSHPTogSVLn0dQwVzUvx3GvEGrgTe+xIz26mrQ+W2o+eECDCstA4e6pnyMCVQwAYVrhnn7ZtiI7xnHPIVrxn1HuwomyMMxASagTIBVgco0eJsJGIBAtZU/wjozW8qScf9FNSnxDDAmd8kEKpZAKiKOHsTvRyORIgaOPSe2911AbMUKwaOZAAH7xBQ0XrRRkiShSR3c7NexVKlinOyRbaVY2PimZZVa19gnrx05grskxIVTOOvkAXdZoBu7Mf31Ueg3aBReWXIYiXQ8JwHh/xzEoUtW8JArkkJj7A+IFKcjN05Gv48OU00uTMBsCFCiPXN3zZC/Z+h7h75/uDABJmA8AqyIMB57HrkSECCXDMfLCr9odsmoBBe8wqZIT1GHF13I3PgBo8Wx0RtvVZgUDwe6j782rsdnG//DPXHw4i9i+4s9uPiwAm9VEgJNhBLCISkVOU4OOPvukDJnTYuB666OUj1X4bftmZVTZhujVPAJRPCds/hXGG+c++cEajRqUCBGDg58twW3Qsdiy/qRaHDqa6w9IT4DG+Zi6trfsXfrr/iXtHNcmAATMDoB+n6h7xkq9L0jK0GNLhgLwAQqKQFWRFTSC8/TNjwBdskwPGMewZAEcnBuzfiiyg5DDsd9mz0B/z1HUfXkZWke4WOeQ6aXbApQ+tQi3RyRZGsjVfIS1mMOBWbTpbeq6LON8VirG/j7rzP453gNtGuQgSRJhDuIjM6Dk5s7bB2qo4ZHJiKvn8Pxc4kIfnocZk19BZ29KlpWHo8JGI5AgQGT4QYwUM/0vULfL1To+4a+d7gwASZgXAIcI8K4/Hl0CybALhkWfHHNYGqZV37G3CW/IPx+FvJsPdC4xwhMGtwYHpK/+320e9IFF/Zdgm23mfi83XnMWrgd5x+Ip9HW9vB5/Gk8cnUXfotKFzNdLUzOV6MV+bi3ScDfqxfhs39uIy3HGg7VW2Lku6PwRGkxBoWJuvo2d/DV2Fn4tXpHPBZ3GPtj6mHMhol4gv8qmcHdVVxEp7sJaPDFNulEbPtmiOnUsnilEo7QU8nTXq5oczcJdsL0OyA1E+S7nWBnWjdDaGgDbP5uA+5U6YSPXK6ITwaVmqgTaI0/k5OQk5mGO4kOCKpdG1XOAclJycJF4z7ixVthyUjGg5wkRF+JB5wKj/IGEzALAuSaATPURHhm58ArIxuk7pS/b9gawixuORbSwgmwRYSFX2CennEIsEuGcbjzqAUEck5g2fvbEBEwCKs3fImvXg1AxI4V+OqMTCgKx281xZw1X2L10CD8veVHoYQIxqi1X+K7zydhSp9uGLnwRYRS9RYjsW2TItBezPbFWHgwG51nrsS2DTPQPe8YVqz4Q+E3L3et8l5Wm4wzF2A17AN8v4mVECrozGbXSixOGotUnTbiaWOmpxsuvPWC1rIn2dngiLe7tEigxYK3WDQEiECWFFjOVIptm9YIvR8PzzZt4K0kVPuRr6LJqaXo//JqXAp9Ca+2dEHHbq2Rs2c+Bk/YiVuywqHFY3gs7x/MHjYDh/J8wD/AlCDyplkQMLcYEfT9Qd8j9H0iKyHoe4a+b7gwASZgfAKm9bjB+DxYAiZQbgLsklFuhNyBpgROKqwVlKv70k50BK5mAhlnvsKrQ78qPJ2UVLiJhh27IdBBsR/asiFsT17EF6PH48/H+mHs8OCHFZW2LkVESXu7Zr6GXYXHk6HIeVB4oMhGmW2qtUCPUE/wH6Mi2MxqJ+iHvfC8eEOSmeJC5DjrZvIsKyOa30+Be04unIUvd53kDGSIFHuZNlbIFe9pNkZYvrd9G3vaKi7J/K9bF1ybgmPkb+7SGrOXy8fFaTr26Eh8J14PC/mlt8Lsla0eHqKtXGD+N9RWnBfbXJiAKROwFkpHO7G4p8+mqRaSzUa4YTjkPsyOQbKSOwZZXrESwlSvHMtVGQnwb7/KeNUr+ZztRP7obGvd00+lpqbh+o1b4nUTLi7OqB1YE7WDAgupsktGIQreMDQBslaYVLBComCVU35VjCjuSxex5d1zpmTxUESMvxR7trYPv/49npiAr+r+jbWf/4j9B7/CuHv5+Pp/BVoKpcYuznSsLt4s5kJxCweU6ilvltnG2katEkL+oZtha4SFp/IEeLtUAm7XbyP429+kOjd7t0NC07ql1i/rJC0SDvl6oF5SOmqnZEiuGpRqz1Fa9+TCq6wO+DwTYAIGI2AnFvluOXmSlYHBBtFzx+SCQYEpr7jLpkl6HoC7YwJMQGcCD3+JatlFRk42HG05/66W2Li6kQiki8WOXMgHOVuHXPVH/zuBtRs2I+4u5QUoXlq3aoG3g0M4S0ZxNHykoglUewSPBf2Eb/Zvwx+93sQT7lm4dvQirNu1RJAaWWKvXEGmb1u8vaAZAqZNxNf37orsF00hxRpMSRLpCHPgKCwsQh9rAee//8VPmyLQYWgdIC4cx+75oF2Imk4LDunShpSFckljRYSMwuTerXNy0HTBBlgLRUGqvzeuvtJbbzLSooGCyVXNyIFveiacxBjuWbmSYkJvg3BHTIAJWBwBUjwk2dsgXVhQxYrsPfGOtpwdw+KuMk/IVAlkZmuXhlsrRcRj9ZoUzvtuUgJqevkU7vMGEzBlAsqLGUdh8quNeS9ZQCxbuRZHj50sdYp0fvSxU3jdyh1Pd+2M9ND6pdbnk0zAcAR80H/qGMR/uAEr3xiF5cIb3cG1DcaVoIi49sdyLDqYLtQNgK2TH7q83l0oLNzRs1sgDmz9DsMG/YjaA2Zjcb/hmDssFZ9s/gADfhGPqG2d0OC56aUqImxbat/GQUkRoaxENBwv7lkXAvXW7YJL9F3kiR/8ZycPRa69fh9O0IIixslOeukiH7dhAkxAvwQShMVSpLAu2OXPtkn6Jcu9MQHLIBCX/ECaSJOA2hpNSMSYohC4mhe/t56RKrepK1JZKSkmNO8BiIyMRHx8PBwdHeHp6alNU65r4QQSEhKQkZEBb29vBAY+dHfQx7TD4lNQPSMLycJP8I6TvUZdkvXD+KmzQcoIbUrX9m3x1hvK/sHqW0dunIxxO+6Kk5SBoC3Gz3kVbc4sQb/P5KiCzTB+03BgySx8elQ8lxYLv7Yjx6P6j/PxU9zDPn37zMGqwTUfHuAtJmDGBCiwGEU5TxdxAfZW578RpngpPc9eRatpKyXRIgZ3x7VBT5qimCwTE2ACeiSwbPwM1GpYD31HD9Njr9xVRRMIDw9HWloa3Nzc4OrqWtHD83gmTCAuLg65ubnSGozWYtqWz37fikzhNTGhxwC803Ngmc21soig3kL8g3AhOhJ3kxQajzJH4ApMwEQIxIkna6SIcBMWEYnCz1ETq4hln6/VWglB0/3zr8N49NEwtH6kZdmz9+mBJYuewIm5E7FuZze0kfQvpIAYh45S68OYdzQH7Sd/gXGhBR/Zx7/EMCkNI5TqlT0U12ACpk6A3DLchRKCSoyjZgpDU5+Tpclnm5aBpgu/laaVVMcf1wc+YWlT5PkwASaghoC5pu9UMxU+xASYgJ4JJKWlSkoI6raxhhYRWkcBe6qZIjI0mV5QnAguTMBcCNwSgfboCSsV3/SsMtPC7fhlD86FX9J5estWfamFEkNEhs8Qlu7CWkNRzmDxoOHoN/YHRKIZOrXKw/6FEzBl43nhr8+FCVguAV+hLKRPAZnlX/FwttyJmvHMGn62BQ4Jyci1s5VcMvLFteLCBJhAJSAgjKj5014JrjNPkQnoQODW/Yem2pp6TWitiBjQuoskWnJ6Kg5fPquDmNyECRiPwAUPhQkaBaz0EkHQSisUmLI8hdw51n69qewu4n7FuKHTsQ19MP5Zv4L6ZBHxJbYtfR5BIv9B+4mLsWxMc6T9uggzf3z4QS+7c67BBMyHgGdWTmFaOIpyTsoILqZFwPfQadQ4eEoS6vLIp5FWo5ppCcjSMAEmYDACki83fy8bjC93zATMlQAZJ+wPV8TSe/7RzvBwotxtZRetFRE1q/qABqBy8sYVKGs/yh6OazAB4xKgwGdRBfEhyAfdW3r6WjxMyrkLF/UiKKX5LLMI14yP3+8Gz+hLuKQuFMW9izhxNRO+7Ybh5bYuiL1zp8wuuQITMDcC1YQSwjtTYWUX72DLqdZM8AI63E9CyKffS5LFt6iPqB6PmaCULBITYAJMgAkwASZQkQR+Pv5XoVuGJrEhZNm0VkRQQxrAzVFhMrv7zL/soiHT5HezIHDay7XQ99wzWwRkScksfAorT+B65E15s1zv129o1o9tcH+82ysJ6+b8gKu5NGSBa8agJTiAW/hx3ngMGDQK888GoH/PxuWSiRszAVMi4CDSMgamZsKrQAmRJNyTjld1MyURWZYCAhQXwlak0sx2ccK5iYOZCxNgApWNALlmsEVEZbvqPF8mUCqBE5GXEVXgljGiU2+Q0YKmRetgldQxDfDj2HnotmACyEVj7b4d6C5iR9T19dd0XK7HBIxK4HhVVzS/n4IAESuC3DQC0jKRYmONLLEIoiCWkRoqEDSZBFlXNAlpqLZq0OAF2Cb/nh88H1sKtrcpolQWtum4Xk1E+vbjsK19YRXeYAJmQcAG+XDIzZeUfzZCCeEhlIFyoeCUZ7xc2CVDBmJC74E/H4LnuQhJogvjBiCrwM3NhERkUZgAEzAwAUWwSgMPwt0zASZgFgTIHePI5XM4ceOyJC9l1Jz73Ktaya6TIoJGoPygi4e8JfzV1yI5Iw0/n/hLZNSojU4hLeBoa6eVEFyZCRiDAFlGxKZnIyQxBU5iYeQqMmlAvCg7tpvS4qi8spGSo35yenm74fZMwGIJSIEp3Z1AcSG4mB4Bl6g41F2/SxLsdtdWiGvTxPSEZImYABMwPAHhyWrF4SoNz5lHYAImToBCM5BXBBkkUKGsmutGTdVaap0VETTSgDZdpPQczy2dISkjLkRfF6k9r8PbrQq83T3h4yFeYlu13EtLRmJ2OuytcpGdqpN3iGqXvG8hBJIzU5GVnQWkJcH6/l2DzypKjHBMZAhskGuFWjlWqJ2nCI7XsGYAcPioXsZ/tEF9vfTDnTABSyNw2zofkTb5uGybj8ysZOC+eHExKQLWQjnb5/31sBExdVK83PDngMeRUwHfzSYFgYVhAkxAIpAlnoCmZKYLM2zD/z5j5IYjcF/81s7IzkBWhhXSxFqMCxOQCTzIShfPZHPhkPIAmXIiP3EyQ6zN7oqMmbfi45AolA+yAoLaUezIpUPflrvQ6t1KmFkVj9SnVReQBFot3DPoRdYRXJiAOROo4+SGrOi7+Hfj7nJPw83HC+2H9y13P9wBE7AkAsm5OYhIZ6WDOVzTYUejMPD4HdBPhYnPhSC8uiLzkDnIzjIyASagXwJ3N+2FQy1fuD/Gsar0S5Z7YwLmR4CsIMgVQ9NUnepmWC6LCLlDStFBASxHdu6D3aePClONo5Jy4sjV83IVfmcCZkNAWiB56cdEPEe4f5xKSTCbubOgTIAJMAGZQL24VLwglBBUtrSswUoIGQy/MwEmwASYABOoZAT8Pb2lOJEUnuGF1l2kMA3lRaAXiwhthThw4AAuXboET09PBAcHa9uc61swgYiICDx48ACNGzdGu3btjDrT2bNnY86cOTrL4OHhgcjISFSpUtw9SedOuSETYAJMoAII5KWm4VLok8i6dgOOTRuh/r+7YGUv/Ni4MAEmUGkJNG3aFL169cKHH35YaRlYwsS3bt2Ke/fuwc/PDzVq1LCEKfEc9ETg3LlzyMzMRIcOHdCoUSM99VpyNxygoWQ2fKaSEyBFRMeOKukrtGCyfv16VkJowYurMgEmYDoEoifMlpQQVnZ2CNr8OSshTOfSsCRMwGgEyEWL03caDT8PzAQsjgArIizukvKE9EmAlAlk2aBtGTZsGPr166dtM67PBJgAEzA6geTf9uP+mo2SHDXenwKHhnWNLhMLwASYgPEJsCLC+NeAJWAClkSAFRGWdDV5LnonEBQUhFOnTmlsGeHu7o7FixeDFBhcmAATYALmRiA34QFuvKSIfu3cNgzeE0aZ2xRYXibABAxEgBURBgLL3TKBSkqAFRGV9MLztDUnQMqI/fv3SwqG0qwjOrQIw+nTpzFu3DjNO+eaTIAJMAETInBz+ATk3rsPazdXBG1cAWGHbULSsShMgAkYkwArIoxJn8dmApZHQC9ZMywPC8+ICRQnQAoGelEwTbKSIOUEKSncJ3+EOveS4P/KGFQT+1yYABNgAuZI4P7aTUj6eY8kesCn82AX6G+O02CZmQATMBABVkQYCCx3ywQqKQFWRFTSC8/T1p0AZcHo1KmT9KJerm8/KP14Tzt+RvdOuSUTYAJMwIgEsm9GI3rcTEkC96e7wXNofyNKw0MzASbABJgAE2AClk7AsIqImCOCX754FTXtrJJxETWsbsIt9z7cUtMtnTHPTwsC3rnRcLJKgUe68BqKsdGipfGqOjfwQpIYPu2IuN+le954svDITIAJMAGtCeTlIbL/DOSlpcPGyw2BHw7m7zKtIXIDJmD5BPJz0mGVGs3fD2Z+qavlXIWdVSKqZqeKddh9M58Ni69PAtURiSyrLDgniUD9MYlFu3YVVpKuNYseK+eelTCzIk2BfkrMYeDqD8DN34AsWppxYQKWTyD5bD6uLRHzFPq2psKl2tq+qOLN8gnwDJkAEzBnAnE783DnJ8X3VvB4wK0Jf4eZ8/Vk2ZmAoQjUnxKDQa2dMOcZ7bOJGUom7pcJMIEKJuAVAtR9AQjsVm7FhH4sIkgBcWqx0JyIdy5MoJIRcK5TMGGh0kuPBFzqVzIAPF0mwATMlkDGrXzc2aYQv2qnfKGE4BjWZnsxWXAmYGAC9OjSigPYGpgyd88ETJzA/QvAv7PF2v8TIGSEeA0H7HVTTpZfEXH1e+CviQ+JOVYTj1MCACefgpf3w3MFW5GRkYiPj4ejoyM8PT2LnecDlZdAQkICMjIy4O3tjcDAQLMAQQ4kdtVXIzsmGWnZHeESGmYWcrOQTIAJVG4C+dm5iJz7tfCgTIC9vwf8PxgmfkyU/2dB5abKs2cClksg32E+rGq0AkLFk1AuZksgPDwcaWlpcHNzg6urq9nOgwXXP4G4uDjk5uZKazBaixWW3AzxtPUekHJL+KLfVbyT9wMpI27uBrqs0ck6ony/OP6aoHDFICmt7YGAToBX40KZeYMJVBYCziHVkSgUEenhsZVlyjxPJsAEzJzAnWWHkHkjQXIrC1rQG1ashDDzK8riMwHDElBYRBh2DO6dCTABEyRg4ygUDcLQgF5USDFxQ2TZSooAyELi56eAp4RxgpZ6AN1tMMkSguJBUHERQjV8UevBFY35fyZg/gScGwkLIFHSLrAiwvyvJs+ACVg+gZRjt3B34wlpor4j28Cpka/lT5pnyASYABNgAkyACZSfACkmgp9WxIkgYwSyjtgr3DSyVAJcljGSbooIigUhu2OQEqLe8zr7hpQhH59mAmZBwLlxdUlOerqYl5FtFjKzkEyACVROAnmpmbgx7Rdp8k4NfVB9ZNvKCYJnzQSYgFYEKL69lUomPK064MpMgAlYFgGygAjuq5hTSpRQRozUan66KSIoMCUV0oDUYj8xBQz+vzITcBKuGXJJO3dH3uR3JsAEmIDJEbg1/0/kxKfCys4G5JIBa86SYXIXiQViAiZIgF0zTPCisEhMwNgEyF3DO1QhBRkraJG8QntFhPIANcRTFB2jZBqbGY/PBPRJwMbNAfYBioix6Rfi9Nk198UEmAAT0BuBB3su48Hui1J/fhM6iu+tKnrrmztiAkzAsglIFhGcNcOyLzLPjgnoQsC/M0AJK6jIBguKvVL/114RQZExqdBg3i0V2/w/E2ACcA5R+FinhccwDSbABJiAyRHIuZeCW++J4FKiuLWphWovFDzBMDlJWSAmwARMkYDI3inSd5qiZCwTE2ACRidABgpUyGiBsmtoULTPmnFT8SMGTkopPTQYiKswAUsn4NyoOuhpIwestPQrzfNjAuZJgOJC5KVlgSy4Auf1MM9JsNQmSWD/satigWqYFaqHqyNCG/ib5Lwrm1BsEVHZrjjPlwloQUDOqEFNSBlRt2aZjbVXRFAgCirOiiwBih3+nwkwAacQxWciKyoRucmZ0o99psIEmAATMAUC9zadQMpxxd/vwNndYevpbApisQwWQGDJtwcx/uPtBp3Jyc0TWBlhUMLcORNgAkygnAQok4adG5CdLCwiCvQFZXSpnWuGckoOJ1ZElMGWT1cyAs5NahTOOP0Cu2cUwuANJsAEjEogM/I+bi89JMng2asR3DvVNao8PLhlEXiQnG7wCVXEGAafhAUMoMiaYQET4SkwASZgGAJy7MhkQ7hm3L/wUGhl84uHR3mLCVRaAtaOdnCo5QlK4Zl2PgaurWtVWhY8cSbABEyEQG4eIifvRH52Lux83RAwuYuJCGY6Ypy6FI3ElIwKFYjdDSoUNw+mJwKKrBmGccHRk4jcDRNgAsYk4CYyaKQKawgNLSJsjSkrj80ELI0ABayUFBEXOXOGpV1bng8TMEcCMasOI+PqPUn0Wh/0grWLgzlOw6Ayj1u4HQeORxh0DNXOO4bVwf41Y1QPm/W+IeZk1WKiWTOxNOE5RoSlXVGeDxMwLgHtXDOMKyuPzgRMnoBTI0XmjPQLsSYvKwvIBJiAZRNID49F7JdHpUl6v9gSLs39LHvC5ZwdWSmMHdwBtWp4Sj317dQE9KJC52aN7ia9Swf4PyZQCQlw1oxKeNF5ykzAgATYIsKAcLnrykdATuGZdSfJogNWnl46H6Hr45UusDWcPaqg0eNdsX5aGzQR8Wq0LVmR/2LIxO34+VoGskRje5dqGP3JVCx7VNueTLX+cfRusRG7hHi95qjXfx0AAEAASURBVC3Czl6mKifLZQkE8tKzJZcMiJUDuYzVeLODJUzLoHN4+elHsOTdfujXuQk6j/wc2xa/Io0XOmARxg15HHSeypxVBdnDpD3+jwlUHgJsEVF5rjXPlAlUBAFWRFQEZR6j0hCQLCLIfVL8+E87extuj9WuJHPPQ1rifRzf8QNCzybg+E890Fyrmafjy/d/wJZreYWtstI9ENKwcJc3mAAT0IJA9KL9yIpOhJWtNYIW9IaVnY0WrStn1e37z+OZLk3x1Y5jEoClGw+iipsTTl++LY79h9r+Xti+/1zlhMOzZgJMgAkwASagZwKsiNAzUO6uchOggJWOtasi41o80i7EWb4iIqAzTu3ojeYZKfjzs8/Q/Zs45EYewYpjPbCqlTb3QgKuxyiUEN59RyNqdn0gQ9hF6GBZoc2ollY368JONBu6D5faDUb+sjBLmx7PR0MCyYcjcf+ns1Lt6q+3g2M9bw1bVu5qkbfvo9OIFYUQKHaEXPYfiyhyTj7O70ygMhFQBKusTDPmuTIBJmBIAqyIMCRd7rtSEnAK8ZEUEenhlSiFp6MruvZpjFpCEXENKYguEiIjBb9/sQnjvr6CC6m5gLU9/Fu0w+r3e6CHr3hKmxSBGRM2YEmU4na5u30VHMTv/+CXJyJiLPm0l9Gemu1aA6sZ4UDbAUidBAwb+xN+upmFrrM+wm/96Emwdn3ceikOL876G3/FZSHXzhEhTw3EvrlN4UNj4aGLhbSr9N9DmZUOlrop99UAa3d3wqXpm7H8ZCLS8mzgHtwS61cPxDNeBR1kJ+LXFd9i5ObriM4QShvB0SsoGCNe64v3nqyKuL+3o8f4v3GJ9DmHNsJKuIEAVTHpu2lYIPQ6aVdPYM6SP7Dm+F3cL2jv36A55s5/HsODCp6WK3GsOAalAuKTWhLITcrAjRm/Sq2cm9WAzzCtNIJajmYZ1cnlolOrOhU6mSA/+YNdocPyYEygXAQU6Ts5a0a5IHJjJsAECgmwIqIQBW8wAf0QcG5UHQk7w4VFRJHVuH46N9VeMu5j+/fncUOSzx/tCh/Gp+O7CR9g4D6l1Hh5WYg+vg89+9/F5l2vYEBMODYdT5biQhSfngbt3ZVandqNBkMTEZWiOGYnmaNr2cfRLahzNBdZspdIdgYu7PgaTwVNwYnhVZUGK75pZ1uwoC9+qowjV/B6nyvIypYHzUXStf/w/BveuLSpK2iJdHrFZ+ipHJdDcLx/7SI2HH8SC57Mwacf/o1z2SUPk3npBD77OxapchW6DuH/4dWhufDZOwS97eQT4t0oDJTG502dCdyc/RtyH6TD2tEWQSJLBqxMZ9Gw/uf/cONOAvYfu4pTl24jyM8ToQ38xctPCgpprMW5HPtBZ+jckAlUEgJsEVFJLjRPkwlUEAFWRFQQaB6m8hBwDqkuTTY7LgXZ99Ng5+VsuZOP2ofQFvuU5meDJiOex0QFAiDqEN6XlBCO6DVrErb28wCSr2Hi4M+wPOocFmxJwIDhvRFxsiUm91mEj4RVRBGrgqg9GrRXRLiXhEhPxJ2gNti2uS/6+tsr5NJIBqU+8nJh17IXjn/WBU1wGcP7rMK6e3k4+fsp3BzeFYEIw86TsqYlF8cWLcAj34jAna4t8fEoRdYUJSAabuYhyzYYH24cicl1gd9nf4Bu20XA04un8X1MV0wVPM9GFAQHbfksEta2QxXhDnN033HcbhokjbFgxyI0fXsihh4Sux2Ku2Z49hqIsw2z4ervCW/h8pJ2ZRfavLAXZ1NOYS0pIroriWoUBkrj86ZOBO5vO4ekA4o0lP6Tu8KuurKWTqcu9dLo1KVovDJrs6R8UO7w1KX0wmPkBjH7te5SZgrlOhWxfVooRRKS0ypiqMIxqnq4oGm9GoX7vMEEzIEAB6s0h6vEMjIB8yHAigjzuVYsqZkQcGokDPjpIaQIWJl+PgZ2HYLNRPLyi/n4xJn4/UVXFKgAxGP8m1B4qmdg15y5cJhTdIwz58iGQkkJUPS0Du3tMWD880IJodSR1jLYo+8woYSQ4lPUx0sdXbHuR2FikZKOBNFtoFLXcbvW4QlSQlj7YNKqgUWtCpTqabLp0qmzUEIoyD3ZOwTe24/gLjLwIEm0FooI7yokUAZwYhv8+17Am6/1xNQnOqK1siVDKQNlRUZg5eLfHrpmFNbNQ3ZO4U7BhnEYqErB+5oTyI5JQvTCvVID94514PV0Y80bG7Dm7JW/aZxlgupu23cW6+YMlCwlDChWka4nfvIz/vz3SpFjht7p2b4Rdn06wtDDcP9MQK8ExM8aUzKy0uvcuDMmwAQqngArIiqeOY9o4QQoOr1jXW9kXLmL9PBYuFuyIkIKVtkDt6bNRJ9fM3Dwuz9xZkBftNJwcZybI2JGlKMUb++GANkaQ8N+y+rD081B9FTg66Hc5/3jGP5hOBJhjQbDh2JBSIFbxuWdqDNgn4iVUVDkgJ7yfgnvvr5VHp5xd4Kb2Lv78Ai6/28s1qavxVt77yHt5kV8NO0iFs31x5S1YzFPHlupfpHNqD/R5rlfcFL2/ChyUt1OUY5aM1DXJR8zHAFhLx05dRfyMnJgU8UJgbOVzVsMN2xZPWujhJD7IpcNSp15fdd0KWOFfNyc3qtVccHzTzZH+xa10ai2L2r6esDNxVFyS7lx5z6Onr0pFnOm4zJjTmxZVuMSYIsI4/Ln0ZmApRFgRYSlXVGej0kQcA7xlRQRaRcqQ8BKG/R+pwc6/PYTDkX9hVEb2j+MpSBiJtDyPBfB+PTAG3hTW0vx8ranu0EffRS7q25jxqubsUvoJzw6DMTBNyiopoGLnQ+GL5yK4SIex94fdmDEp2dwPSMa70/fg8EiXWpIKcPf3HO6QAlRFa8sHoVP2lVDFTs5UGYpDUs9ZQQGpcpTeU/GrfsXaWfuSABqzesBG3fJnMeoQMiyYc6qPTrJ8CA5Hc9MWId9q8fo1N6YjSjexCcTn4ane3GXvPq1vEGvJ9s0MKaIPDYTYAJMgAkwAZMgYG0SUrAQTMDCCDg3UsQKSDtXGRQR4uJ5tcenL1EgRxFL4TOR+eF+wQVt2wAdpG+Za5gx44hYOCuOpyXEYO/Wv7CzLDzlbU/D6aOPguko3kRciKUb8GGkMC9wbYTls8MKsmkUVKpPMS8WIV9+UXrTIu112/l71+/4+WwiHth4ocvQQVjft8ClRViVFItReT0Kx+hgRjoeiPeE5ALwcEWDRp6ognQcXPQHdusmimhVBgOd++WG2hIgy6s7n/8jNav6bFO4tQ3StguD1FdOfanLAJQuk5QZ5lLICuK3FaMktxJSQpAyZenGg5JCpfPIFcLKQ/Ei5QzFzODCBMyRgCJrhjlKzjIzASZgigTYIsIUrwrLZPYEKIUnlZyEdGTHJcPOhwztLbs0H9MPg7esxcYUoXSYdwpDPgkVTwVbY+FLh9BmfRwSD/2A4LY/KEGg1JLt0bu60iHVzfK2p/700YeyXNf24EUxH8mpJCUcQ7uKAJHyeTVBIuVT5X2//ttuEYiyuOrAo2kwGhV0/niov0jdKRY5UQfxyKMHxdGC9J2dGqLG+r9xR+Q1mfLUJEyh+tYeCKgmqt4raKzNm5EYaCNiZaibn52LyMk7hf4vH/b+HvCb0Mkkpk1ZMSg7RnnL+p+PoV/npuXtxuDtKdvH4a/eQvVqCpOv0lxSSMFC5yldKMXCMFamEIND4QEskoAiawa7FVnkxeVJMQEjEGCLCCNA5yEtn4BTfaGIsFV8vNJEwMpKUexCsPiNYMkVI3Hfdkw5Rkt1G7Qa+w7Oz3oEYX6OhUEsbRw9ENbncbxQmhJCglbe9tSJPvqQhFH8p84CQem0oTabdmiIEA97iS+NYe/ihbAXhuLcnJBCroFDn8f8MA84S7eeNZw9vOBHa6PmffHzW3VQvSB2h33VOpj02QTs7E1WLDoUIzHQQVKLbnJn+SFk3hALfrEuCFrQG9ZOGgZnMTCVbfvO6WWE7fv1049ehCmhE3sRE+j3z0dLSgiygmgxcJFGLimkkGgx8BO2jiiBKx02J4uYUqbBp5gAE2ACTKAEAlbCzIqC4GpWYg4Du19Q1A0dr1kbNbUiIyMRHx8PR0dHeHqWEjFfTVtTOpSSkoKcnKLh5qtUUQo4Z0rCmoksCQkJyMjIgLe3NwIDA81EavViXn7xWylYpe+rrVF9TDv1lfgoE2ACTEAHAqmnb+Pq8M1SS22/Y04vnY/Q9SLbiwi06hwYhm/WDcQzh9fAakZ4gSSNsOHkQODdj/HqH8nIsnPEs/8bibpffCql2JXFLZJqVz4o3juNWIEDxyOUjui+uW/168J6oK7WHZBVRmkBIZvX9ysMhvnE6JU6Z82Y/5bIXjO8qyRf6IBFOH35djFZaSyKHTH+4+3FzlVxcxKxMF4vzBJCLhzmViJv30fk7QRUFe4p9/bN1Zv4dA0pcCmV0AZ+WPxOX53uBb0JxB2hSofpeP/NnnhjAP+mMefbITw8HGlpaXBzc4Orq6tZTYXWXbT+SkxMlORWtxajE7a2toVz8/DwkLbpGJfSCcTFCYvf3FxpDUZrMa0L6QpijgC+bYAeylbQ6nviK6KeS5GjdJOT4oTeaZFM72UVUrLQh5te9AFgBUVZxCzvPAWspKwZlSNgpeVdP54REzBVAnmpmbghsmRQcaxbDdVHt9VeVMrmsrUDdr86F+9seBzPSGt9UkCMwItSbyKY6R85GLD8I3zdriAjTJ9FWLCLFBZQqqf90Nq0oMU7LdaVC1keUHaN8pSTmycULv517cdTZLcZN/hxqTm5W5SkhNi/Zow0B5rHK7MUyiN5TJoLHTu5eaJ0qG+nJlJ8Cfm8ObzT4yxSRFRxddSruMoKKBqDlBLkyjL7tW4Y1ucRvY7FnWlGgNN3asaJa+mXAK29oqOj8eDBA43WYPLo9+4V9T2lNRmtx/z9/aWH4XI9fjceAVZElMBevuljYmKKWT2U0KTIYWpPL/lDQFq46tWr881fhJJl71DASnrmmHr2jmVPlGfHBJhAhRKIWrAX2bHJoFTB5JIBG129LIViPQOwE5llFEXEPGkhYp5IKWe7YmjnrRj49hxEvPQifhpbv2hQ1lJmHOTnKSwiSqmgxSkXR3soWy/ITWnBLhdanNKYJRXFea+STut8fMwL7eDkaCcpDtRlCCG5ZSUEDUJWEVRUlRGkVFn/83/S+XFDFIoNqaKZ/EdKGLKACVBOQaxn2Ze821dS5iz59iBenrkZFAyVWI0d3KGYokrPQ3N3KgRKszRSqcq7TKBcBMj6ISIiArQW00ehB8n0ioqKktZkderUkSwn9NE396EbAVZEqOFGNzzd+KpuF2qqanyI+qIbn/qmG5+UElwsm4BziOIa56VkIet2Iuz9PCx7wjw7JsAEDE4gaf9VJOxSuFD4je0AhyAdF9hR+xD66D441nsSh0aJLD9Spk1liwgRWuSTWWj861YMmrUKTzhNw5lRmsUUCW3gj692HCs3i1o1PPHX+rfK3Y+hOni6Y2Opa3UxMVSVELIMJSkjKMOGfE6uy+9FCdB9tX7uIGER0V1S3Cz+5oAU+JO4zRrdjQN/FsVlkD3OmmEQrNypGgK0bjp+/Lj0UFfN6XIfovUYWViEhYWxMqLcNHXvQNfHKLqPaOItSVN26dIlvSohlKdMHyzqn25+LpZNwKFetcKAlekX9KPNtWxiPDsmwARKI5CTkIabs3+TqriGBaDaoJalVS/9nLB6+O/bx+EnlO5HktVUjYnAr2ezENzjeXzUzQnXImPVVFJ/iPz59VFo4WmqxVYEI24VEiCJR9YMyoUUKLIlhHKqTnlbXjgrtymvq4lyX5a+rXDP6I7IX2ZIcSP2/XcVtXu9L6VIpbgSXAxHgLNmGI4t91yUACkKyLLckIX6p3G4GI8AKyJU2FeUgqCixlGZHu9WIAErayuQewaVtPC4ChyZh2ICTMASCdyc8StykzNh7WyPWvN7lnuKdiG98d1LKZj46k5ISW6gcM2warEG3+A2FoyaA5cWk9DviB+mv9hA4/HIt58W4+UtLz/dqrxdGKx9NRGY0dpa/U8oih1B8SBI8SAHWyRByJ1AVlrQYlq1yIoK1eO8r54AMSb3DFJIUCpUOY4EKSW+2lFUOaS+Bz6qLQHJIoKzd2qLjevrQKCigmhW1Dg6IKgUTdg1Q+Uyk8sEBUQxpBZOjhehMjTvWiABCliZJmJEVJoUnhZ4DXlKTMAUCNz7/hSSj9yQRKn5v26wreaqs1jNx05D/tiC5mMnI7NgO//pol2+eLhD0QO012sE8nsVP6x6ZNviV6T0lKrHNd2nGBD9OjfVtHqF17O3K/nnE1k3UBpPCuBIwSiVC8WHIDcMdRYQqnWV2/F26QTIyoReZBEhxdvgOBKlA9PxLFtE6AiOm2lNgIJKNmjQQLIi17qxhg2of04moCEsA1VTr8430GDm0C0pCZo3b45q1YRZvQEK3fDkj0RZNbhYPoGHFhGamzVbPhWeIRNgAtoQyIp6gNufHJCaVOkufjh1q69Nc6PUJbcK8tvXpXiI7Avr5w7UpWmFtblzN0k8gS85+zkpGkpSLKhTQpDgpuyKUmFgyzkQWeNQHInru6aLzBqtQHEkPB+fIQUIpTSjXMpPwIotIsoPkXvQiAA9HG7durUUV09fqTflh8FyvxoJwpUMRqBklb7BhjT9jklJ0LhxY8kqggJMUurO8lhIUH9yuhg2ATL9669PCZ2ERQQVKWDlzQTYB5bfXFmf8nFfTIAJmDiBvHxETt6J/Oxc2FZ1Qc3pT5i4wA/Fo6CCtOjevv/cw4NlbJFLB1lTqKbsLKNZhZ/OzslFVGwialavIhQIflLWiPIIQfM29TmXZ34V3ZZcX5a8268wsCVl2yBLiU6t6kgKMuXUoBUtmzmPl498WIl/XJiAoQnQuovWT/QiywV6USZCiuWXmJgovWuSVIAUD7T28vDwkN5VHzTL4xh6Pty/egKsiFDhIgctIS0c3fx169aVXnSjymlf6MZPTU1Vaflwl9o5ODhINzzd/LSvXCg+BPWh+mFQrsPblkHAoXZVWDnYIj8zB2kXYo2giMjFT5NnYO3jH2CnBubU5ad+HL1bbMQupY56zVukwdhaypn6H3p23o/WP76LflvnIzSiO/KXhSmNyptMwDIIxKw+jPSLihgzFBfC2sXBrCZGSoWvpm/FW7/8g2SxiCmtUCpGUl6Yy4J816ELeO35xySXgKUbD5U2tTLP0QLZ3EtiSnq5FTL6ZiDHkaBYEqSIoBfF7VAEvOwmrCYUKVX1Pa6l9qeIEcGKCEu9vqY0L1qPxcbGolatWoWZBmndpLp2ovUZvVQLrb1U11/Kdaj/GzduwNfXF0FBQcqneLsCCbAiQgU23cx0Y9LNTzcnWTLINzO9q34AVJqXuEuKB9LkUb+kiKAPlq59lTgInzA5AoqAlT5IPXVbBKyMQZWnGupPxvvH8fwL32FLPFC7z1AcGRWHp/r+hUdWTUWfrXPQL/ZRjE8/iWXhIn3onomoc3UiIobeKdpmblUs6rMe5xva4fe//fDjPw2xMuwPJDRNxdHT6ajyxBBcWRgKT9WxRLvPB36K9y5lwcalKb747WUMc6GphWHnyTCcXiqUA380w6kdvdEcuTj22VJ0/DIamW5BeG/FGEwNOIvBz27Epvh8OAe3wGCHy/haSc6tWI9nI/zhfOQimn38ARYnf4Xmc84gBl4Y9uFYrO9iDevsbKTJ7tfX96LpoxsR7twM3/48DAOcbmHG0BX48FIOqjR/CrtXd4XdivlF+hQJA7gwAZMmkB4ei9jVRyQZqw1qAddWNU1aXnXCJR26htDdkfjFqjq2BNrhQTMfyUri9OXbIBcMckegRbjiVVddFwY/Rqk2c3LztB4n+m6i1Ibm0DGsTrkW4aSAMfdC1i+dRqww2WlwHInyXxpFjIjy98M9MAFNCNCajDINRojsTrQeq1q1auFDXrm9vEaT90t6p75o/UVW7vID4ZLq8vGKI8CKiBJY001KLypk1UAfAGUrh9J8lUjpQNYTdNNnZmYWmhKVMBQftnACziHVFYqIC/rNnLHz4y040H4EMqekYWCXX7Ds5XfwxeCjaDPjQ+y4644pm/piXv0AhAsLBRRYJeyc9qlKm6GCfjxOuIxGwj/14YzjWJn3AK79piPttV0IeP2YsG4IRRXVsZ5ohi2XXDBi1XS85y9MxiUlRAkXMmY/Rq2xxXt/foQemxej6ZqzmNr9JL5Pro1Pdg5FP9Gstv8l3FGS8/RS4Fq4I/Yc/ABPOl7AkMeuoceyj7A8aQN8Pj2ESV18ig7m1BTfH3wWS/qswIItCWiLH/C+/VOI/bchPh3yMd7f2xWzRYuHfRZtzntMwNQI5GflSC4ZZETgUMsTfmPNT3NGaYsjJ+2U0PqE1MDitQMkCzFTY71ookqUTh0EXPJuX2kRnphS/MkcBaekJ/CkfFFXKJaGuiwa6urysfITILcMepHyh1w2KI7E7JW/SZYtfC1K58sWEaXz4bOGISA/zKUHunKhtZnsdqFuTSavxeR3uR2/mxYBVkRocD1klwwNqnIVJlCMgFMjxaJZv5kzbuPQ2SzcjVoFh+2KIbPCbTDvlXZ45JufceTR5zGtWDw7dW2AxqJ5y0dICSEXN4SGuMIeLnATxtQQafyKjZXcAZ++fBWDXp+DLU174c/1nVBi9Ivj13ESN3Cy6yRMpCEConB6QS988cdqvN57Lj595mUcnymPrfTeqK5QQoj9y9dwJD0F116fhHXS6RycgIoioro3GjnWQYdGwB8iSv3BiGjgbDR8H/1ZahF8sWABIPcpFC4KF5JG2HByBF5UGpY3mYApEIhetB9Z0eKJu7UVghb0hpWdjSmIpbEM2bEpiHhzK0ihYufjijrLnzVJJYTGEyqjIllFUEwCyoqhWihtZ0mFAipagjVESfNTPS4HIqWMIuM/LpmLajtD7HMcCe2pskWE9sy4hW4ESNFQWqG1GRX5oXFpdUs7V9Y4pbXlc+UnwIoIFYYBAQFS/AdlrZtKFZ12SVtHrhguLi7FzIp06pAbmQ0BsoigQnEiMq/Hg+JGlL/4omlta3g3fxWR8xoCCeIL2TMXO6ftwX+NAtHy2G8Yf+wRrGpVBf5CQxApAt1lZVdT0yYJc1aWJY2asWxyEf3YaNzufwCP9f4HGy93QvNiio+CfutVRzDSMGr3G5jsJZQnGfbwTk6E88wpSOi1CQHj/8GumZ2V5FSRp3YNNLJ2Rbtl0/F1O+BuAuCNsyjycz/mLsIzInAoHPAIdULTOoLxgza4tbYLfDJSkOboihtFLIYVLiQqI/EuEzAJAsmHIxG/5YwkS/XX2sKxnrdJyKWpEHnp2YgYswW5iRmwdrRFnRXPwaaKk6bNzbYemf5T4Mp+49fhxh3xRVVGoafvlUkJQThq+3tJaVkpo4ixFRHy5eE4EjIJzd45WKVmnLhW+QjQmokyW5C7PK3JyLJBn4ViAZKbfGlxJPQ5HvelngArIlS4kMKAMmaQpo0CmZQ3YwZ17+/vLwVCUWc6pDI871ogAYcgryIBK/WjiLDBCxP6YtOIL+HSIhf2Lq2w8Us3TPrVBRO/G4u+IkbE4+/vwZifOqFLmAuGzJmCsNh3cFy1zV8dNSCuZqyvffDhkN04JqyQqzbvhcElKSGo9/qdsHLAZfTrOQlThJ1FqzHj8F/QXrSaegxJ2TaoLSwiesEPdkpyfqMslV0oFr17Ep3GT4WVqO/e+0UkvqdcAaiRfxFdHv8ddylGRH9PNM/pjzcOr0PQoyJspmNNzP12nBiDCxMwfQK5SSJO0YxfJUGdm9WA7yutTV9oZQlFlo/rE7cjM1KkShQx7YIW9dWT8lV5ENPdJsuIU99NLAyMqOqOQRYB/To3kRQQldEdg+JItBi4SKQ2FX88TLBwHInSL4qUNYNjVZYOic/qhQCtw8hagbJl1KlTR7J8IOsHOWOGtoNQX/SiOBPkbk9rMtltg60itKWpv/pWwt9LeKBqWGIOA7tfUFQOHa9ho+LVIiPF0x4RLIS0UJ6e4nGtCRVSPsg3qyyW7JpB75QtQ75x5fOq73LgFLJ+oJtdDkpJ7ehDRH3IaWRYOVGUXkJCghRbw9vbG4GBgUVPmvFexKjvkXI8ChRwzv+dzmY8ExadCTABQxK4PmE7kg5ESJYEDX98GXbV3Q05nN77jvrgj0JrjoApXVH1+eZ6H8OcOqQn/6cuCVcxUUjxYInKB4qvMGfVHoNeln2rX5fiOhh0EDWdR96+L8WRoGwbVlZWkhKpMseRsG31LtbPGYgXe4WpocWHzIVAeHg40tLS4ObmJq15TFFuWiuS0oGsFmgtpVpoTUbrKorHRy/VIq/FaJ2lTtFA6zEKhMlZM4qSi4uLQ25urrQGo7WY1oV0BTFHAN82QI8fymzOFhEqiOhmphuTTHbkrBmqigmVJhrtklkR9UsfGrnQh4Q0feo+YHIdfrcMAk4hvpIiIl2k8ORSuQnIJsn0A1dfhUyL6ccxPY3lYr4EEnZckJQQNAP/dzqZnRLi3qYThUqIagNbGFgJoWXK33LfFnJcmYcdaZKauIqbPRJ+WKtIodzqYdsSt8wwNTGlxqTvM4r7YIhC7i7G+m4rKY4EWbVQulkKelmZiiJYZWWaMc/VmARIWUAvWocpr8lIJnXKhdJklZUWtPaitR69k+sHF+MSYEVECfzJMoJedKOSokC2YND2xqfu6UN0/vz5wpGoPzpGHwQ6HhYWxj5KhXQsc8O5UXVpYmkX45AvTJcprSeXyklg3MJt+GrHMb1Pnkyer++arvd+ucOKIZAdk4Soj/ZKg7m1qQWvZ5pVzMB6GiX5yA1QgE0qrq0D4T+xk7St03+q6YI5NbFJpyYmRej6uYN0utTm0qikOBKkJCFFzLA+j5jLVMolpyJYJf9+KRdEbqw1AdkynRrKFg60HqNtymhIazXlQkoHsj6nQmstak8uGRQHUG6vXJ+3jUeAFRFlsKcbWFZKyFXphle96eVz9E43PJ0nBQMVCrRChT40zZs3lz4E1O/p06elDwidJ8sILpZLwDlEkeVBClh57R4c6+pg7mS5eHSa2f5jV3Hg+DWd2uraqFYNTynFm67tqZ2hnhrq08KiPPPjtjoQEL/uI6fuQl5alhTUMXBeDx06MV4TCsIbKeJCSKlGRUyc2iIuBGX70LVwamIlcpyaWAmGaWyqiyMxe+Ue6W8DWUmQ0sJSi7OjHVyc7C11ejwvMyBASgbZUkITcUnxQGssZTd5slLPzMyU1mu0NiNXevm8Jn1yHf0RYEWECku6YcsqpESgV2lFuR/6wFChYCvycVJUUBDLiIgI6YNQWl98zvwJ2Nf0hLWrPfJSspB2IY4VEXq4pPuPRRjcL1lVzI5hdcqtiFDtk/eZwN0Nx5F25o4EopZQQth6Pkyma+p0ch+kiwwZPyIvIwe2Xs4iQ0Z/WDvZlUNsNemCOTWxTqmJ80VqYi6GI0BuGfSizCdLvj2Ixd8ckN7JbcMc4kh8teM/rRXjI55pjZMXo0Xck4KU2Brg7RgWXOlcWDTAwlXKIECKgdjY2DLXW2V0I629ZCUDPVimdZeym7ycJZHWZewuXxZN/Z8ve9Wt/zFNukcy26EbNDo6usiNagihZTcPsqDgYvkEnBtXR8rRm0IRcQdeTzc2vwnvWgOrGeFo8dYMnBhOQWYvYMhja7Gxamec2tEbpYekU/hXY94i7FSbvoLO/4bG303DgtIycKihJuelpx9GFDBNESvBDy/P3CwFhlvybl8pgr0h3CHUiKPxIbKu0EfgOoo5oRqZX2MhuKLRCVB2iTuf/SXJ4dW3CdzaBhldJk0FIAuviDe3IjsuBVb2ijSddr6l534vu2816YI5NTGnJi77xjFaDXOMI0GKk4pMn3py8wSjxfkw2o3BA5eLAK2RKIYDKQ9oTabLWoni/dGLytWrV6V+ZKHITZ4eDtODZepbtlQnZYTcRq7L74YjwIoIFbakhAgKCpL8iEhLRtk9yKJBWXum0oR3mYBGBJxDFIqIdGERYc7l5O8ncHN4VwQeO499Lu4odDK5vB+dxvyCA/FA9ScG4PTCMPhkJ+KvvRcR5WMHH6G7kGZOCo2V1SXlBZbOR2hEd+Qv050IBTHr17mp9COHFBFkNks/DIP89oinMHWkJzG0WDc1RQTJSU/SylvIRaXzyM/L2w23NwKB/OxcRE7eifycPNj5usH/3c5GkELHIcmdZNIOpIcrAvAGfdQbjvUKvw107JSaqUkXzKmJOTVxOe6oimpqTnEklm48VFFYpHFI6bFv9ZgKHZMHM28CtPYiZYSsTCBFAR2jTBrydlkzpIwbVGg9R8oMKmQdQcoG2UKdjpEighIK0DtZTJCSojQXfGrDRT8EWBGhwjEqKkpK0URuE/LNT1Xo5pQ1ZuRXRB+Ckgrd3BQUhQsTUCbg3EgRJyLtkhkHrAzwR4sbF/FzUlc02X0OdcPq4uJ5mmUuvlm+Cxfaj0TmlDQM7PIdxh8Mwxv/LEGHXc7o3swKxxKBNspA9LR94HgEnpmwrtBUlBblFECMrARu3EmQXuTGwYUJmBqBOyv+QsbVe5JYtT7oVU6Xhoqd3Z3lfyHpr+vSoDXe6gD3DsF6E8A+qD12/dG+SH/Pneyt2J8yC3LuqeYL52JAYS3f4m12LCo8C4Rh50k55WBvRJwsOKVurMNdldoV3Ww+dhryx8rHXPHklAlInSLv0/sgJP5bNHDjgCJyivaF1W3QYOAI3BlYeEDaKJSz/jTcLhxLrlMfyzd/gOXyLr2TTMr7vG10AqYcR4JSkVZ0TCH6G0xj6sMK0OgXlwWoEAKkdKCA/qRMoPUYKQaU12WyELQ2U/ewmNZisjKBlAtUSMHQuHFxi2RSeFAMv6NHj0p9cew+ma7h31kRoYYx5a4lhQTd8JQuhm5Q+aWmOh9iAhoRIIsIqYinnxmX78KpoUIxoVFjk6lUH893+hvf/xKOiwd88MKrmXhLUkTE4uz1PLjVcYW9oyvqVc3CL+EX8cvRJLR45W3sHp6CCT2X4LKB5rFt37nCnhVp5BSpMckSQvlcYSXeYAJGJpB6+jbufn1cksLn5Ufg0tzPyBJpPnzCr+GIW/+f1MCrTwhIfi5MgAkUJ6AcR2L2yt9MIo4EWQ4ao9D8LT27ijG4WvKYpGAgJQIpBsiSgTIYqlor0PqstCI/RKY6FKuvpEKKC1J60HjkDkJWE1wMT4AVESUwppuflBH0opuTbny62SmyKu3TNr1zYQKaErCr4a4UsDLGTBURwJPt6mD28h9xtVpbHHG7jrckAH5oWc8a6xJSkJWRhivx9mjWSGix/wXui2PIfoBoRcxWBS6RVikuW5jCnUkAXDQlWLQeuTXow7WhaK+8xwQMTyAvPRs3RJYMKo51q6HGmHaGH1RPI6Qev4Wbs36TenNpGYCaM7vpqWfuhglYLgGyBKBFOCnHKT4DWSXQiwJbUqYNUlhURNm272yFW0PI8yL3SPqbzVYRMhF+15QArclUMxjSuoyK/K7aFz1IJosIZQv2spQWyudJgaG8r9o/7+uHAK+kNeBIHwDyL5Ijq5bUhD4MZNpDhVJzqhbSsikrL6hfucj1SdFRt27F/EGSx+b3iiPg0swPyf9EFvpVV9zI+hvJrlsLPDlzI24/3xKBUJhmU+8DZgzElhfWwKFtQYyIx51gl94C7//vU3js9UOgUDjUooodWqH/wm/Rrc15PNa0mvAI58IEKheBqA//QHZsMqxsrRG0QLgc2FibBYDMmw9wbdx24YmVB/uaVRC8pK9I02kespsFYBbS4glQHAlZiU6KCFJKyO6E44Y8jmF9DGtdRDGV9q1+3eI58wTNn4DyekndbMh1g4r8rlrHwcFBsmyX+5HfVesp7yvXUV6jKdfhbf0SYEWECk9yxyAToPIWdR8M0q6VVNTVL6kuHzdfAs4hvpIiIu2CIsCbWc2k1wjk91JIvPO47Gv98Bi8wvDDH/Lxgpl1fxF3isVjDMUP+0OLTb3QL7rYGfUHFm3Yjx0HLqg/aaCjQX6ebFpqILaVpduk/VeRsDNcmi7FVnAI8jKLqecmZeDamC3IS8uCjZuDSNP5HKxdHMxCdhaSCZgiAeU4Eku+PSRlepq9UhFwmawkSGmh76II5Gwe3zn6njv3Z14EaD1G6TtLWzuVNiNlSwiqR4oFOibHjVDXVnmskiwt1LXjY7oTYEWECju6QSmQCUVPZW2YChzeLTcB50aKOBHpIkAdRcy3smN7AF2hXr5xFxSoUt/Ft6obwhoJk/PqVVDVwxm3Yh9Iudb/PnUddxPMMa6Hvglxf7oSyElIw83ZCrcG17AAeA9pqWtXFdouPycX197eiqw7SZL1RvCyZ2Hv51GhMhh0MBNNTWzQOXPnJkNAjiNB8Y0MGUeCMiwdOH7N6PPuGBZcYa4oRp8sC6AzAbJOCAsLA8Xto4wX2q7JKLEAFVIoUF/UnizT1QWrlIVUzqwhH+N3wxJgRYQavhQQhW5c8kcqjzZOTdegbBzkekGRYMty9VDXno+ZNwGnkIKFrAhYmX45Ds6Na5j3hCxIejKLfeOFdqgbWE3trBKS0nDoxENXFLWV+CATKIXAzRm/Ijc5E9bO9qg1vydEiqZSapvOKYoJkXY2RhIocE53ODezzO8tU0tNbDp3AEtSEQQMHUeCMlcYK1ClMr9Zo7uxIkIZCG+XSiAoKAgBAQHSmik+Pl5yxdBEKUFrOApOSUoIWnuRtTutu+hdTuspDywrKWSLCKrPpWIIsCKiBM5049KNTy8y5SHXCbpBU0WQPdpXNfkpoZtih0nJQYViQbAiohgeiz9g5+MGW08n5CSkI/0CKyLKc8Hz9ZSvrn4tb2yYNxiPNgksIs6pS9FITMlArRqeUnAtT3dnPN2pcZE6vMMENCUQ/8NpJB9RuP0FTO0C22qlR/rWtF9D14v94gge7L4oDeM7sjU8ezQy9JDG6d8EUxMbBwSPamwCFRVHgtw/KFjmqUu3Mf5jEftFw9IxrOTMA+q6IEsPSqXNhQnoSoDWZMqpO+V1GK3LZKUEWUCors1o7UbrLlJmkBKD6pOFBSkpqD8bGxtQO1qPKbdV3tZVZm6nGQFWRGjAidw16IblwgT0QcC5aXUkHbyOtPAYVIUiuKk++q1sfejjYfLwfo/isynPwtHBTsJHwcO+2vEf6MmRcqEfhvSDjZ7kcMRvZTK8rQmBrCiRNWbRfqmqe8c68OwZokkzo9dJ/PMyYlb9I8nh0aUeqr9mPtk9tIdnmqmJtZ8Ht7AkAoaKI0EK9iXv9pNQkWsI/e07ffl2mehIeSG3K7NyQQXKFOL5+AxNq3M9JlAmAVqX0UubOA6UTIDc7mWlAykkVAv1SUoIqkeF136qhPS/z+Gu9c+01B5lzV2plfikRROQ40SYZcBKE7oyeXnlM4l4sVcY1s4aICkhyPqhxcBFeGXW5mJKCJoy/ZCiH2q1e72v1ZMjE8LFohiLgLhPIyfvlGLC2FZ1QeDs7saSRKtx0y/E4Mb0X6U2To18Uev9Hlq1N8fKlJr46Fc/Ymu1hnjaTZ6BIjVxspSaOO5hamIR76+01MSHKDUxFyagJwKkLNi2+BVc3zUdFGNh8TcHpL9H9DeLLA60LWShQH/XqNC7phYLyu00HZNiU3BhAsYmQFYVFB+CFBKkYJBjR9A77bdu3VqKSSGn7CRlBFlOcDEsAbaIMCzfYr1ToBRy75ADohSrwAcsnoCTyJxBJYMDVup8rXX54aU8WHBAVXwplBBUSAlB6dPkH2XK9eipkeoPNEq3Rm1++uQVjZ4gKfdH2zk5uaqHeN+CCcSuOYL0i3HSDCkuhI27o8nPNjs2BRFvbpWUJ/Y13FFn+bOwsrf8nwucmtjkb81KL6A+40h0HrlCWPo1xbZ9Z9X+/VMHe9u+c6I+WzeoY8PHzIMAKR5Ks6QgRcXp06clNw62jDD8NbX8XxaGZ6jVCGTyo84cSKtOuLJZE3AKKXDzEQ/000UaT+fmfmY9n4oUntwmKL0ZKSJGPttG56HJHcNOZCwh5UNJSoh1cwZK7hidRqwopnAg141HhizG1VvxWsvg4Wq4hSj9sNSk0NM1fZcqbo6gHPX6Ls3r+xkkjZ2+5VTXX3p4LGJWH5FOVRsQCtdWNdVVM6ljeamZiBBpOnMTM6SgmsEr+sOmiv7TCJrUpE0sNbFJsWFhTJKAPuJIUGwIeplaOb10PkL/aIZTO3oL59Xj6N1iIzBvEXYWpA/Xl7xZF35F61f34lQG4BzcGXt/7InW+uqc+zFbAmQ5oaqMoGNyjD+znZiJCs6KCBO9MCyW5RKw83KGna8r6KljmjB/ZkVE6dealAVLNx6SXCNIATGsTythjfAyPvvu79IblnC2QZAPnmrXUDo7buE2tU+CSAlBvrlU9q8ZA3XKCFJCLH7naa0X3zOW/4q/T0dKfev7P1q0a/LDct9/2pnKyoE79S2vMfvr1Eq7gGuayEpPK+UYIja5eejy/VW4CNeMVDd77HDNQu6qPZp0U6xOaAP9K2NIIVZMcZSXh2vjtiMzUph6iyAswUv6wiGwSjF5+AATYAKmQ0DTOBJUzxDfe9qSkL8jtW2HpAsYOXQD1t3MgUODLjiwoQda7VkD2zVJaBpzB6dyXdCzYw0c3XsZD9ya4dufh2GA0y3MGLoCH17KQZXmT2H36q5opQgJhfDfT+JU7R64tbELAgqEidv1FZrPOYMYeGHYh2Oxvssl9A47AruOsdhxpwVGpvyF80Pm4eDABEzusxj/DpuL75y+V2mTJM6tx/mGdvj9bz/8+M8Q9NZ6stzAmARUlREU6JIVEYa5IqyIMAxXSZumS9d083OxfALOwioiMfaqCFipMNm2/BlrP0NSOsgKiHyRIoN+RFGKTZ1/xBSI8LJQZFCh/r/acazg6MM3ZSUEHaUnTyUpI/YfuyZk6viwsQZbtrY2GtTSrYq2QcR0G0U/rUjBRAoOfZfI2wk6+UyXJYdqAFN19a9H3we9qPS/lQWX5DyQI87nwujp1olr0nHl/4iBJgHilNsYcnuOVRX0tXKRhpiVex/bRyzRejiFMsZT63ZlNTCEFU+QnyIjTllja3venK14tJ0r1zcdAvQZoRf9bZu98jcpjgS5EtLfTgoyqfhsiuAm5lCi9iG0xb5CSckY4vS6bVjj8RRi/22IT4d8hFEb2uCE8HTNjfXC1H2jEDVqFibGdkbskcfwVsf12HAIaBv7A963l9t8jPf3dsVPBWF6mvdogQZf70Kd3rfw+fIXMTzoEsa/fw09ln2E5Ukb4PPpIUzqIlKu50UivsUMpH3igfCl4Qj78yQS2qfg16ggjOp2HeOfUm1DQcjjccJlNBL+qQ/nwlnwhjkRkJURFNySlRCGu3K86jUQ29L8jww0JHdrRgScGvkgcZ9QRAiLCC5FCdDiVFZAUIwG+gFFCghSCCgXa2sr5V2Nt+XUY+TrqlpUlRDy+ZKUEdv3n5MsKlRlk9vxe8kEiJkhFpclj1hxZ1KO3ULE6B+kAf1HP4YNo3R3I9JFavoMkZJDm+KwJwLOP56XmmQ8GYxx/ZtgnEoHmihjVJqUuUuLJlIelVUquxUPfV7IMkbfxVCLU0M8eZdTKeubgaX1R9d0/dxB0ncAKSIo0DK9r/7f84i+m2T06VKwzTK/+wM6F3XNEFKfjRCukFVc4WPniwbCw/Wj8FuAUESgajU0cHRFljDeCq5TT5wHgqoC9G128JRQdp+Nhu+jP0vzDr4oXFG6F3yO6vfAmV8aYsHsdRg1eCM813jiSHoKrr0+Ceuk2jk4AaGIgCfatvaAvdhq3qMZan19ASt/ScLZlo9iSMw1LC7WRpENreUjrISQMJrxf6SM4MwZhr2ArIgwLF/unQmoJUAWEVTIBDovIxvWjuIvZyUvFFl7jjBdp8UO/eAsSSkgY9I1a0ajYPrloghSKfdF7zQmPTmiQj/c6Gkp/ViiQF70TguB2a91wzMT1kt15P9o0Vfmjyq5Mr9bPIHcpAzcmPaLNE+nhj7wHdG6wudczOWiDAmSDl3D9a0KJYR7+9po/kFfyTVDtVllv88t3YpH9Xqr2yfFkWoAX3X1zOmYIZQmCsWR/mPmaOum1fmRuqAXWRXS31b6G2vsQmmwdfkuadlAKAWOpiAuOxaXxDOcxk9RzJ1/S51O0zpCI/GgDW6t7QKfDOEOKxQWcjl95BycGzfC/2Z3wvanTuGiewgaWbui3bLp+FpkKr4r9KPeOIvNcgN6r98S/f1WYfHmFHQYFQbP2hfUtLmHycpteJsJMIESCbAiokQ0fIIJGI6Ac5Mais4LAla6tJQ9FA03pqn2rByAkqwV9q1+XaMfKbpYRNjaWhdaVqg+haUf12ThQD+0xy3cLslBzCjmAv14I7eH7fsVizVTZclyGZ/Azdm/ISc+FVYiGGrQAuEZrKPlTkXNJOPKXURO2gmI7yLHutUQ9FEftUqIipLHlMexZCseY3PXxYqnLJkViiP9B2PUxIonISkd2lrxHDgeUdaUdD5Pf1dVC8VbIuU7WQeSFaKmRbYq1LS+vpRXIaMGY/qhFfB7dKeIEfEEDgwVLmBl6FWaD+2PNw6vQ9Cju8QXXE3M/XYcpgUrJI/ZuwVPv56MLGt71OszGK8GhODZd0+i0/ipsMq2gXvvF5H4nuos/TD4CQd8tN4HM3sKK027UCwq1qaaaiPeZwJMoAQCrIgoAQwfZgKGJGDj5gB7P3dk3U4S7hmxqGyKCPqBKLtf0I8UOQClNk9ydbGIyMnJK/Wy9huvMMhUrUTKCApYyYUJlEYgYdcFJB1QLCb83+kE+wDTDvRICpOIMT8iPysHtiKIbp0Vz8HKgX8WlHaN+ZxhCGjz3a+NBJSesjIX+ltLf2OJr7JrFQWrJfcNKmSdQMoITSxdyFVS21hEJIPn45qn/Gw+dhryx8pXLQw7T4YV7NTEvM0fYJ58it6VMt40X7YILxacW7BjUcFWfSwXbZYX7Cm/dZ82G5nTlI/g/+ydB3xT5dfHf23TvVtaoBTa0rJXGcpUhqiAIigoW0QFHK8C8hdQNrgH4GYoQxBEARFEcAMyZa8ySqGlpdC9k44kfZ/npmmTNG2TNDvnfD4ldzzjPN8bktxzz0Do6OdxZ7T6sar5FcfV9XNBKy19quZXH4v2iAARUCdAvzjUedAeETAbAV7GUzBEsBJ/jiL8B5HSAGHMBJT68EtNz0NYqD/78RUNYzyB4k9JSYiANLMQKe/9LYDw7RGB4JGKOGFrJVNeIhWMENJsMQsNEwlGCFGwIlGltepMehEBIqAfgZpCRPIKiyvzG3FDAd/XRXQxVmiOw8MuSYgAESAC2giQIUIbFTpGBMxAwKtNQ+T9eQ0SB0hYqWsCSn2wGxKawcfnVQq4IcIYid94XglTPcnThwW1tTABFn/N80LIxaXg3k7N3hpsYYXqmJ6VFE2ctRvF1zNZGAZL7PbxMHi0CKmjE50mAkTAngj0n/wluMcINxRwY4Quwj0nnDrP1KUptSECRIAI1EmADBF1IqIGRMA0BLzaNRQGLrmVC1lBiXADY5qZLDeqvgko9dHUkNAMPv73v53F4D5thB9g3D1V1ydB2nQb3r+9tsN0zMEIZGw6jcJTKcKqmy16GKJA6y7YlrriAPIP3RT0DZvRF9yDg4QIEAHHIsBDDvkfCREgAkTAUgTIEGEp8jSvwxPw6lCRsJKRkLDwDJ97m9kNE0MTUOoD4PWJ/TFuSBd9ughtPdyqKpTwWNdJC9VyYlcbr6YnRdyIseiFioLk1XrVfYCHhRgjgzkPdyGxHAFe+ebO54pEb0FD28KvX4zllNFh5uxdl5Dx3WmhJdc3ZJwy/lqHztSECBABmyXAE1OaokKIvkB4eVESIkAEiAAnQIYIeh8QAQsR4CU73ZsFgHtE8ISVtm6I4DfsyvwPhiag1OdStIwIAf+rjygzhvNqGZoy46OfhSReG3af1Dwl7K9fMrqyAofWBnUc5InDVJOH1dGcTlsjAZkcibN/QTlLgura0BdNZj9gjVpW6lR0KhnJSxRp5nmC3KYLHqo8RxtEgAjYNwFuACAjgH1fY1odEbA1AmSIsLUrRvraFQGesFIwRNhwwkprSEBZnzcFNyg8s+B7oXSn6ji1ua2uWzxaCO1QbW/sbdUSaTzHRn1CSIytG42nIHDny8OKPAtsN+LdR+DsWeVtY22M+OfMjek/szKd5XCPDELzFcNYaVFna1OT9CECRMBEBHio5IFTN0w0uu7D9u3aXDDy696DWhIBImCvBMgQYa9XltZlEwR4wsrcfVdsMmGlKRJQWuKi8aziO5dPwqKVv2HFdwdrveHnxoEVrw8zeYLK5f8bhunj7q/EsfOfC3j8tfWV+7RheQJF51KRvv6EoEjI013h3SnM8krVoIEsV4IbL21TJNP092AVMkbC2du9htZ0mAgQAXskwD3wjBEOWF82C6c+RIaI+kKk/kTATgiQIcJOLiQtwzYJeLVVJKzkZTxtJWGlKRNQWvIq8nwP/OafZwXnf6q5IXiFDR5ba66a9Dx/hKohIjE1x5JoaG4NAnJJGZLe2CMc9YhpgMYv9dFoYT275aWsTOf/7UDpnXw4ubog+vMnWBiJj/UoSJoQASJgEQITh3YDD09cv+sEagpB1KZYp5ZheoUlkkefNop0jAgQAU6ADBH0PiACFiTgyQ0RrHweygHxxTvw7RlpQW1qn9ocCShr18D0Z7l3BP9hxv8sKYaUSOPJM0nMQ+D2B3+hLK0ATiJnRL7/qHCDb56Z9Z8lae5eIRku7xnx9mDwcDASIkAEHJsA/75Yv2SMAKFftxghX1HSnboN3tPG3se8AofrBY+Hb0Y98rZefagxESACjkGADBGOcZ1plVZKQEhYyeK1S25ms4SVd63KEMF/PPAn8/xpPPeC+Pf0DTQJ9ccLI3ti9KDOUM1hoC/ec5+8g9j1WaybM7yadcWmdaPx+NGv4TTvcsVQbbDxzGjg9Y/w3J8FKHX1wBPzJyNm9Wf4IKVqtubPzETCNOt1ia/StGpr+rj7BK5VR4yzZWnjiXFWYf2j5O+/juxdcYKijV/uI+RbsFat7351GHl/xwvqNXqxN/wfaGmtqpJeRIAImJGAk5OT4PXHje9c+L4uoouxQnMcVe9CzXO0TwSIgGMTIEOEY19/Wr0VEPDiCSuZIUJyOd0KtFGowHMl8FhSzR8Qt+7mYuW2o8IfD1fgSRtjWzUxTO/w/ji74z7se24J/rfxfjwew4fhBojnMV4Y8RQe/VOKUZ9/gG97uyjmGPox3t/DDRZQaac4ZSv/8vCOm3vmMgOP8cpu8h+TBl8HWwFnBXpKc8S4teg3QROvjo0RMsF6S1/m7L2MtK+PC7oGDGqNhs93twKCpAIRIALWQIB/tz/+2johVwN/0KDr95Eh3nrWsF7SgQgQAeskoJ8hIqht1SoK2WNJn/CqfdoiAkTAIAJebUKRsydO8IgwaAAjduI/RiYt/F6nspK8qkTn0cvAcyvw5FOGSTEKiwFXUYWhAZcxofNMTOBGit0PYEL/HRj96mIkPD0eP01riVDDJrG6XlRGzeouiU4K3Zq3V8jl4uzlhkhWJYM9RtSpn7kbic/fwa2FFQaTDo3QbPHD5laB5iMCRMDKCVAJaSu/QKQeEbBFAuIMhdZufjppr1/tLjf/qkEl1vP0tkop2iICtkeAe0RwKUsrRFm22KILGD5jnU5GCFUlldUmVI/ptJ3yD2Lv/QAf4UFsmqJI2qnwiPgY5bsfRSd4YtSyhbjwVlvkf7cKA1fzUA4SImAZAlnbz6HgWJIwefisAXBtpNuXrLm1LU3Nw41XdwAyOdwa+6H5p0+wXBYPIMIuAABAAElEQVRKQ5+5taH5iAARIALqBLghnoQIEAE7JVBcYYgIbqfTAvXziOBDejM37KLbQGmeThNQIyJABGonoJqwUsLyRLj2aV57BxOd5QaFc9dSDRp9xkc/C1Ul9AoPYF4PJ96XYdSEBBwrALppznw3AXszGqLv4CfxweGLeDIxjbUI1mxF+0TA5ARKU3KRuuyAMI9f32gEDlXxDjT57LpPIC8qQcJL2ysr8DRnZTpd/CiJqe4EqSURsF8CvBITD+PTDLk054qVCaHNOSfNRQSIgJkIyJiLc2m+YjIdPSL0N0Q06gkkbAN4aAYJESAC9SbAS+rxEoDF8ZmQxKXBzwKGCF5eq771xXlIx5nvZ+rFw7Xto9j69Efo/dwv6DGJd60IzeC5Iva2wtdTVmJIMXuyGxyNRZ+20mtsakwEjEJAXo7E2b9AXiyFS4Anmi2yzjCHcqkMN6b/jNLkXMDFWfCEcG8WYBQENAgRIAK2T4AbAVTLQhuyonYjPsDq+U+id2yUId2pDxEgAvZMQJJZtbpmuv1W0t8QEcEG5oYIPlnedcA/pmpS2iICRMAgAl6sjCc3RIgv3zWof3078Tri9RWeM4InveKlwOqSTtPeRPm0ilbTZqOkYrv8MfWe44/ep36A7z3yPMofqX6YjhABUxBI++Y4JFcUoYgRbw22Wg8DnhOi6LTiAQHPCcGTaZIQASJABIxFoKxMhrgbaUjNqHjiaayBaRwiQATsg8Ddo4p1BLZheSSb6rQm/XJE8CGbDQIa9lAMfut3FofK3DBIiAARqBcBrzaKPBHiC5YxRHAjgjHEWOMYQxcagwjUl0BxfAburlZ8sQaP7GhV5XVV15a+7j/k7rsiHAqddC8CB7MfASREgAgQASMSkJSUCaN5ursacVQaiggQAbsgkHG6Klqi3fM6L0l/QwQfuvNriglkJQA3RpAQASJQLwKebRX1IKQ5EpSls4QJZpYDpxKMMiMP8SAhAvZAoLxUKoRkgIVmuDXxR5OZ/axyWfn/3sCdzw8JuvkPaIHGL/e2Sj1JKSJABGybgLi4VFgAGSJs+zqS9kTA6AQkLEHlbUUeLcFZIeYpnacwzBDB80TEzlBMksduYG7vJ88InZFTQyJQnYBnS2aIECn+O0rizFuRxpjGg8TUnOqLoyNEwAYJpK44iJIk9n52AiLffxRObiKrWwX32Eic9Yugl2ebhoh4e7DVlhS1OnikEBEgAnoRqPSI8CCPCL3AUWMiYM8EeM7Im7sUK3T1Be5bptdqDTNE8ClimVdE9EjFZBlngKvfVblk6KUCNSYCRIAnrPRkCSu5mDtPhF6VLuq4VDwZFgkRsHUChSeTkbn1rLCMhpN7gN/kW5vwcr+8Qgb33HAN9UH056xMpxUaS6yNG+lDBIiAYQSUhggvMkQYBpB6EQF7IsBTM3BHhOs/KiplcCPEYLatY24IJYr6PeK5bzng7gfErVUowZUJYmXNPNnTXc8Q9sdurFyodJgSNr0SgdoI8ISVPCmemFXOMLd0ahlmcOlOVV1jW4Wp7tI2EbA5ArwEZtKbvwp6e7YORaPJzAPQykQuKWNGiG2QZovh7CFC9JcjhIoeVqYmqUMEiIAdEZAUU44IO7qctBQioD+B0jxWrIKFYfCCFdmXqkp1Ko0QQe30HrN+hgg+3b2LAR6qcXwRUMTiw7Pj2EH+V7NEslORLuwf/plmXi90NiGJNRMQbmP5eyO74s+alTWybp4+cjaiE4rOJAJnmZHPjBIbkssMEfWfsF8A8446W/v///rPQiMQAdMRSP5KDmmWE5zYt2PkRPYFdX6F6SYzZORy5gW5rBwlibxzOSJfksI971v2/86QwagPESACREA3ApJrLC8cE8+EDUBu/W8fdJuVWpmCgJDOmP/WFlf8mWISGtMmCVTeh/GUb/yvLuHREd0XAW7+dbXUet7w0AzV4XgljSePAX0+rqqooXqetokAEaiTgFckC0ZnIpcwG10Wu9swowzvUv+QCn9PJ8Q2czWj1jQVETAugZxj5cg9qfh/GDaKfa+GKraNO0v9Rru9pRyFFba+8PHO8G1nfTrWb4XUmwgQAWskIClT/C7xdKXPHGu8PqQTETAbAe8mivQMj+1jOSHYg1MDjRBcX+OaNHmWTP7HXTcEzwjtSM6dO4fk5GT4+vqicePG2hvRUYckkJqaisLCQkRGRqJ9+/YOxcBDzjwi3hkLSGUQB7wG/0HmcwkfzmyJw+Jn4+d9/xrMfP0X7yJg8P0G96eORMCSBKRpOUiZNo2pIIFv305o8ME8S6qjde6sDb8j8681wrkGzw1G8JJntbajg0SACBABYxOQOPHfB7Ph+chGwNvL2MPTeGYk8O+//yIvLw/BwcHCnxmnpqmsnMDNmzdRVlaGjh07olmzZtW1dWMpGQwIwag+kOKIcQ0Rylm4ZYSHa9QguVdLkSp3RqBzIHy8m9fQig47IoF0Z0/kynMR6MlyjdTyHrJHNvwZg1eXjhD/dwbihBL4m3n967fsEgxA/MtJX5k4cSKGT5qtbzdqTwSshkDS2CchL5SwXAv+aLaVhTqEBFuNblyRgj8OImXu14JOPgPvQ5OVqwBn4zg1WtVCSRkiQASskoDE45agl2dkP5b/jfv1k9gqgQyXO8iUszh/1zC4edMDYVu9jqbQ+y4btERegmjfjuw+TAjiMcU0lWPSr5hKFLRBBCxPwKsb+4/PRHzynNmVCQgIwM6dO+Hvr1+cV9++fbFihZXF0ZudHk1oywQyVqxB4YGjwhKarV0GkZUZIUouxyPxiedYSohyuLeOQdSOb8gIYctvONKdCNggAYlEAldXV2aDICOEDV4+UpkIWCUBMkRY5WUhpRyVgGfXTsLSxSfMb4jgE/fr1w+JiYkYNmxYnZeAGyyWL1+O/fv3gxsxSIiALRIouXIdd+a8I6geOH4E/IY9bFXLkGVmI+HhsZCLJRA1DEH0b1vgTG7RVnWNSBki4AgEuCHC07P++aQcgRWtkQgQAd0ImCY0Q7e5qRURIAIaBJQeEfL8ApQmJMItOlKjhel3lZ4R3DuC/3HDRMaBI5jq5IvdLCy0rFsHwWDxzDPPCKEcpteIZiACJiIglSJx9IsoZ/GQrk3DEP7ZWyaayLBhyyXFSBgyHmW378DJwwPR+76Dazi50RpGk3oRASJQHwJkiKgPPepLBIiANgJkiNBGhY4RAQsRcG/bUrjhKC8uZuEZ5y1iiFAuffjw4eB/XO7MeRvpH36FoQMeQNSuDcom9EoEbJrAnYUfofjCZWENEZu/hLOfr/Wsh4VhJI6aCsmp84JOkVtXwqMjy51DQgSIABGwAAGxWEweERbgTlMSAXsmQKEZ9nx1aW02R8CJJZ/z6qKoFiI+ZZnwDG3QnDw9hMPS7Fxtp+kYEbA5AkVHTiL9/S8EvUNmTIZ3r25WtYY7895H/p6/BJ0av/sm/B4daFX6kTJEgAg4FgHyiHCs602rJQLmIECGCHNQpjmIgB4EPLsp8kRImEeEtYiLj4+girygyFpUIj2IgMEE5EViJI19SZH8sVU0Gr/zhsFjmaJjzuafkP7e58LQQc88hdBZTFcSIkAEiIAFCZAhwoLwaWoiYKcEyBBhpxeWlmW7BLy6KipnFB0/YzWLcPb1FnSRFxRajU6kCBEwlMDt6QtQlpwqlKCL/P4rOLm5GTqU0fuJj57CrUkzhHG97++Bpqs/NPocNCARIAJEQF8CZIjQlxi1JwJEoC4CZIioixCdJwJmJuBV4RHB80SUXE0w8+zap3PxVXhEyMgQoR0QHbUZAgW/7Uf22u8FfRsvnWVVeRdK4m/ixqNPAyyJpltMFJr/vE4wltgMXFKUCBABuyVAhgi7vbS0MCJgMQJkiLAYepqYCGgn4N46RkhYyc+KT1pHnghnpSEiJ0+70nSUCNgAAWlGFpKeflXQ1KtnV6sKeZDl5OLGw2Mgy82DS4A/K9O52bqSZ9rA9SUViQARMB0BMkSYji2NTAQclYDRqmYkZ6UjJScD5SzTt5OTU6080/NzhPPi0hIkZ6fX2pZOGk7ACYrrUI5ywwcxc08Je09wuZuXjaPXL5l5duuZzr1DS7icOI8bf/2D0u6tLK6YS34G3LkW7P/30TgWMmJFruwWh0MK2AwB9+fehEtmNuDhjux3puNoQpx16M48INzHzYRLUgrKXV0hXrkYp6T5gAN/BlrHhSEtiAARUBJIzUyHOysj7Mi/zZQsbP21sEQiLCFPUggp3YfZ+uU0qv5SmUwY70Z6KnJd5dXGbtskEv6einDtaicNOODEDAcG36XuPX8cv53/D/vYa75E9yR2jzVpjy5BTZFWXIDL+WkGqE1d7JVAe//GaODujf+ykvBrqpXcJFgA9vOHb2HEuTRcbOSD159oYwEN1KeMzijC5z8qrsfoSbHI83RVb0B7RMDKCQy6lI5pB5IELZf1j8QfbUKsRuNZfySgfzwzkDB5++FoHIoOshrdSBEiQASIACeQ9fNhuHh7ImBgFwJi4wQmR/dEE68AJBRmIllM1dBs/HIaVf3uwRHwdHHF7pSLOJWTrHXs8KBQDO7YHc/3exRNg0O1ttH1oEEeEUfiL+LjvVtxlL2SEAEiYHwC8SEKa2MLZgBg1kKU1+FlZHwN1EeUuFZFcXmUycgQoY6H9qycQGhBKaYy4x6Xo5EBVmWEGHUytdII8V23xmSEsPL3EqlHBByVQLlUBieRi6Mun9ZNBIhABYEU5kWzZv9u4e+p7gOweMSzBntJ6O0RsfXY35jx3WeVFyPENwDRDZsg1C8QoWzbz6tudw2PbAncxGWQsZsbKT1ZrWRJG4Are184S+Uo9XFDcYCHwyLxSs1A76nvC+s/8vlMFEU0tigLt5x89H16iaDDsU9noCCqiUX1ocmJgK4EuCGv66zPEXglCSV+3ji6ajbKfLx07W7Sdg0Pn0fH974V5kjr1QHn35ho0vlocCJABIiAoQRWTHsT0R3aYujz4w0dgvpZCQGvtEKIyuQoc3eB3N2gZ9JWshJSw9gE3ApL4SQvh4Tdg5WxezFV4ekU8sVF4CkWrqfdRkGxWDjNPSTWTp6D9uFRqs112tbr3bdg+zf4ev8vwsBuIlf0asFCLCJb6jQRNSICREB3AuKwEJR5eTDDTDH8429b3BAh9awyCrmIFXk8dF8NtSQCliMQ8cNfghGCa3Bp5lirMUL4xyej/UebBTB5MeG4+L+xloNEMxMBIkAE6iBQVlwCVzcKy6wDE50mAnZLoCkzOIBFjrZDFHq27ID9l04jLjUR3ENi5Kfzse3VpXobI3Q2RHBPCKURoklQCAZ36K6T94PdXg1aGBEwMYH8FuEIPncdfgnJSB3YzcSz1T683MNNCA/hT5dFEtMYIhoWlyK4uAx+LPRDEJ5r1eAMNrWvx9HPipl7bRrzRktj19WexfdmKqI3/y4sMeXhHsjqYvnEr1wZj8w8xC5cw7y/pJCEBuLs4smQsySVJESACBABayVQVloKV3f7/s6wVvakFxGwNgIezCFhUKfuiGkUXpkrkhsjji9epVeYhk6GCF4RQxmOwUMxRrF4EBIiQARMS6AgpqlgiPCNTzHtRDqOLmMeGqIiCVyMaIhwZYaNqMJiRBZI4EpGBx2vRP2bBZdK0ZR5tpQxY0+irydu+jAXPAvnIan/qtRH4Df5Hd7fCGe5HOJGwbj2/GPqDSy0J2JeTp3nr4JbgZiFJrrj9NKpKGUhIyREgAgQAWsmUFZaxjwiyBBhzdeIdCMC5iYQw9Iz8DwRmw7/JhSueHbNe9jOPCN0FZ0MER/9+n3leA+zLJkkRIAImJ5APnPX5uJ3nWWtZTdTcHY2/aS1zCD1dBMMEcbyiOCeD12zCuAlqyoPxH0hSlycIWZ/JKYhwHm7svcTN/zwvxb5EsEQdCzEH/mu9pOILGbdHnjfZiWlGcYLsydAZgXeH06Me6ela+GTki54GJ2b/yzEYQ1Mc6FpVCJABIiAEQmUlZRCRIYIIxKloYiAfRAI9QtAj5h2OMZKjvNCFryqJq+qoYvUaYi4mHITP/73jzAWn4RPRkIEiIDpCeS1aCpM4sxuHH0T76KgeZjpJ61lBkWeiDy4sCe69RX+NL5NblGlF0QBCxXIdHdFmTOPx7AzKUrEkf9uAZFd0SvK8k++FUUiARd2ix5ULEVgmVS4Dvel5+F8oDeSvdxt/gIEXriOiF3/Cuu4OeoBKI16ll5Y289+QNDFG4Iaca88hewO0ZZWieYnAkSACOhEoKyE5Yig0AydWFEjIuBoBHjeyASWwDKjIBfLft2qsyGizseOyhKdyuSUjgaW1ksELEWguGGQkLCSzy94RVhKkYp5ZcyNnItIUlpxxLCXYObe2TFHYYTgHhCpbNw7zNvC9o0QUmQd24SZL07B8DHPYvi4FzD+7T+QkXkCG1avx4ajChPA6a9exvAJy/G3xDB+xurFCrEhw8NV4F+RlUO4Lo0kZcaawiLj8NCHDh9+J8xdENkYN8c8ZBE9NCdttvMAwv48KRxOfLwvUh+8R7MJ7RMBIkAErJKATCZjjpnMk448Iqzy+pBSRMAaCPRkxggul27fBE/roIvUaYjg7hVcQsgTQhee1IYIGJVAXusIYTw/lmHf0sLj2bm4SAz3iPBipVm7ZhYI4yjyE3igUFTnx5DQ3tr/KTy6Eq98sh/FvWZj65bV+Ob1Pohp2hQhGop3efEL7Nw4AwM8NU7osSuN24BJY1bggB59amrK+Sf6eqC4whulY05BVcLQmjpZ8fHWX2yDO1uDzFUkhGTIXSwfbhJ85hpafrNboJZxTxvET3rUigmSakSACBABdQI8LIMLGSLUudAeESACVQTCg1lVjQrZV2E/UO7X9FpnaEbc7UShr1Cyo6ZR6DgRIAImIcArZzQ4fRXWYIio8ogwvGpGi3xxZThGKgsB4E/l7UOysG/XaYj9+uLNCdHgJhv32PFYFMs2ki6oLfHAB89i+ZmOmLFlOvpKc3B4zcf44kgqxFJnuDfqgsmvT8HAsDvYMG0h9nq1RXT+dVzOZj8CfWIw9o1ZaHdkEZb+xtqzUZczz4vlnSdj56yeanPou8OvQxrzSokoYq63LKlCWxY2cyzET99hLN6+4b/n0PjgWUGP+GceQVF41ZeipZTjlTs6vb1OeKdzD40Lc54G7CwxqKXY0rxEgAiYh4CUVczg4spCKEmIABEgAtoI8Eoavh5eKCgWI09SpK1JtWN1PorMrxgo1C+wWmc6QASIgGkJ8MoZXHwS78BJqnSgN+2cNY0urcgdYGjVDB6SEV4R1pHpJkKJhZNv1rROw45fw5VE1jOyOVrrMcDdn5fjw4Nl6L9gJfOSmIeH5Sfx5Zd/IqNijOLEDERO/xQ7Vo1Da/F1bNp4AE3Hv4WpHXgDbsxYW28jhFJdfj0yKn5k8qoa/HrZkrhn54PnYOCS0z4ayY/dZ3H13XPy0XnBGriUlKEkwBdnlkyGzI1+yFv8wpACRIAI6EWAl+7kQh4RemGjxkTA4Qgo7QWXWI5JXaROjwjlIO5U41yJgl6JgNkI5FVUzhASVrInq/kVCSzNpoDKRLx8JxeRgaEZDcWKHzI8JCPbXp+quIig84cqY3k1IUVgumfBC9gjbPF/ClBpR27QGf1b8HJpLdGKFVeIy85GZmU742/kMAORNzN48coa4YUlyAqynZtmnheCV3ThIUQXXh9nfDh6jujCDDncCOGey8JE2PudGyFKAm3Py0TPZVNzIkAE7JAAhWbY4UWlJREBExDgqRwS0m/r7BGhz29mE6hLQxIBIlAbgZIGASj194FbXiELz0ixqCFCmSNCVGFQqE1vbecaFiuesBeK7PFjJxBB/B7zdgoS2Usk+9NFvAUvkxj838aZGKiGJVmR/8HZRS/Dhi5z1tWGl07lhoiGxQrDUV3treF8M1YhI/BigqAKr0ZRIlwMC2pWXo4O733Lqt3cEcqHnps7CQVRYRZUiKYmAkSACBhOoFSZI4KqZhgOkXoSASJQjUCdoRnVetABIkAEzEogr6UiPMPSlTNkHoYnq3RlN2b85pZLKbvRtT9pjSEPNIJz+n5s+isTPIuGVJyDa8nKIAvtK47t1RleuIyftiQIfUrSL+NwXJb2xipHg4N82V4RcvPZPOwHolTlXH03i1kpVS48V4QthGd4p6QjZr3Cn+RO385Iu69TfRHUu3+Ldb8g5MRlYZxrzw1FVueW9R6TBiACRIAIWIoAhWZYijzNSwTsm4A93hHY9xWj1TkcgYKKcAzuEWFJUXpEuIj1T1bpV1Z1q1zsYi8JKtWvRuRTc7BgaDPc3DgHo1gSyZGT38CSX26pN9LYE3V5FksmtkP5X+8KfUbN/By7rtXNt/2DAxDlfhPrpj6L0Qt/xx2NceuzW2ZDiRSdWUm5Du9vhAt7f5UE+uLKSyPqs3Sj9A374wQifzogjJU6sBtuDe9rlHFpECJABIiApQhwgzcXEXlEWOoS0LxEwC4JqDkD2+UKaVFEwMYJ5EUrPCJ8khQJK8srnlibe1kyT2WOiLpvlGvTzb6SVKqu1A+xY2fjm7Gqx/h2V6za8mTlwb6z1qLq1lSEmEEz8OWgytOVGxM/WYuJlXtNobYfMQzL1w+rPGvMjbKKMp7GHNNUYzXf/LsQ/sDH53khpBV5TEw1X13jBl1IqEyYmRnbAjxMhIQIEAEiYOsElB4RbmSIsPVLSfoTAasiQB4RVnU5SBkiUJ1AXstw4aATC2/wu245rwhl1QxDk1VWXxkdIQKGE+D/FyJ/+EsYIIlVyMjpEGP4YEbo6ZWaiU5L14L/Py1kZUPPs7wQ5XZVGcYIkGgIIkAEbJKA0hBBVTNs8vKR0kTAagmQIcJqLw0pRgQUBMpY2b/iYH9hxy8+2WJYZKwaARdeihByRb4HiylDEzs0AReWSJOHZPAgn6ImIbg+6RGL8nDLL0KX+auEqh2lvl44s3QqZB682gkJESACRMD2CZTx730mLnaZbNr2rw+tgAjYKgEKzbDVK0d6OxSB/Bbh8MjKYx4RljNEKD0iOHhRMSuT6OXpUNeAFms9BFp+/TO87mZBzjwOLsyeALkFfxw7l5UhduEaeKbnCHqcXTwZxQ0UhkPrIWa7mvBEt0HsJsi/TAYRS3jrx8rLCqVIbHdJpDkRsDkCd7Pz4MkSVvfIYBmSrVzyXV0gZUmx89grLxVuS3mPrBwtqUcEjE6ADBFGR0oDEgHjE8iPaYrQY5csG5pR4RHBV8cTVhrLEOERdwMeVxKND61ixNKmjSC+p63JxqeBzUsg+PRVhP92XJg0YexDFi+L2f6jzfCvCJm6+L+xyKtILmteKvY3m5dUjjZ5RWhUUfbX/lZIKyICtkNAJCmBp6srq6RUlXjaWrXX1PGuhysu+3tDLCIncGu9ZqSX4xIgQ4TjXntauQ0RyI9R5InwTk6HM3s6KGdWfnOLMlkln5f/KKlfysoq7Rus3AER8/YwpSR+t9SUw9PYZiLgWihGu483C7PltI5A0lMPmGlm7dM03/wbGh65IJy8Pn4Q0np31N6QjupFoG1uEaKKqn/CiNlTTp7sVmafhXf0YkSNiYA5CWSzCkU8P0Smm3XfNriUA+4sdFRZLpwz4sbMRsW5uOntjrgAb3Nio7mIABGog4B1f6LUoTydJgKOQiCP3XRxUSSsTEZuu+ZmX7rUsyrm3UVcbLT5TW2EMJqiFh+oCAnHT+EGmqFn90gUXTyI8xkN0LF/WzS0uG7mUaDtiq1wZ/kYZMwQd2nWeJRbsNRow8PnEb3lD2Hhd/p2xs1RA80DwY5n4WEYXTMLKp+6siAMZLJcG9wAYUvVXOz4EtHSHJRArpyFRrGKGTzUwVbEVV4uGCQasJxCLkxpbtz0YyFepxr4UriGrVxE0tPuCZAhwu4vMS3QHghIvT0hCQ0U4tB5wkqLGCJUSiOKJIqa4sZkW9qsEeQqc9R3bGdmLHG7dbcewxzFW2PW4GTnydg5q6dinKQfMXXOXmDoYqwaqyirWo8J9OyajUOb1+MnDEYLZohI+nU9vjjTETMcxBAR9vt/CD1+SWB2dfIwSEIC9eRnvOYBV5LAQzK45LZqhkvTRxtvcAcdiRshurP4c54LgksBK1Oc7ukKmZCS1EGh0LKJgJUQKC0tgZtr1cMIK1GrVjW48TLP2QWFrh4IlZTBl+WX4WEb/HPmeIgfGSNqpUcniYB5CJAhwjycaRYiUG8C+Sz2nCfE80u4Xe+xDBqAuURL3VwhKi2Di8R4HhFKXbInDEZxW+N5evDcE43eXqcc3kpfpbj49euYl/1UlbHDSjW1pFqeGTlovfonQYWszi1x++EeFlPHMy0bsYu+hrNUKhgHzy56HuXsppmkfgTa5IorjRBpzAuCJ5ojIQJEwDoIlLDvfTf2/W+Lwo2Zd5hHp5gZORsy7whu7OSfN+cDKUzDFq8n6WxfBMgQYV/Xk1ZjxwTyo8PB3cEtWcJTzhNWsh8kPEcECVASvwtLVvyKy9mlrGKCP9oNfh6zxraD/6EVGP5FNno/6I24f65C9NACfNX7EhZ++DMu5bJkX85uCL3/MdxzfQ9+S5EwlGswnHlfdHt5Leb1yMHhNR/jiyOpEEud4d6oCya/PgUDw2ohLq2pzx1smLYQexv1Ra/0o9h/twVe2jgTA23pk589KW/3wSahbGyJnzcuzhxbCwjTnhIxL5vO81fDtUiCMualdJqV6Szz8TLtpA4weiP2tLIpS4DLJcdVREYIB7jmtETbIlBaWgp3liPCloUbN91kIgSWSYXPm9vebsiyUeOKLV8H0p0IqBKgFLKqNGibCFgxAe4RwcX7doaQsNISqkorQidcyBABSE/j07d3IiF8DNZsXIsNz4UjYfeX2HBeeWVScCq5AxZ/vRZrJkTi8LbtzAjRHFO+WYutX83CnKEPYfKH4xHLm/Pwjy3MCNEHuPvzcnx4sAz9F6zEzo3z8LD8JL788k9kKIfV8lpXn+LzcXCa+C5+2GJjRgi21shtfyOQhUJwucSMEKX+PsK2uf9xYgnQOi1dC+87mZCznAXcE0Ic1sDcatjlfLw6BpcyloQy28OWrGR2eTloUUSgGoFSG/aIUF0M/3zhnzNcOmYrPncUe/QvESACliBA3/iWoE5zEgEDCOS3UFTO4F39ryYhp2OMAaPUr4usImElfzLsMHJG4a2gul4hOeTtBFxnD3GLz2/AcxM2VJ7OVymz3rrvQ2jGnEi4xHZpDdGZK1g9dQb+6jUc057VHoZyNSFFaL9nwQvYI2zxfwpQ20+mOvs06IzBsYGwtQ9835upiN70m0Dh9oP3IqtLq0oi5t5o+9kPCLp4Q5iW54TIrUgga2497G0+7g2hzHCfxjyubCMnRAbO/3MZaSFt8GD7EN0uSVEijvx3i1nWuqJXlAO6hGusP80Bk+3q9kaxzlbcI8LNxj0iOFn++cI/Z8KZBxb/3AlmBhbyirDO9xxp5RgEbO13qWNcFVolEdBCgCesFDduAC/2RNY/PsUihgipp4egmYsJklVqWbJ1HNKWrJJr5u0FfjsRMmSB4PGgpuwhxZ5IVPUR6z/wNWyIOYxvvtqO/Qc3YHpmOb6dX2GlUOns7cWPxeD/qoVQJOOASjvVzTr7sIRdVZqo9rTebZ6DocP7G+HMPBEkDQJwdcpwiykbsf0fhP15Upj/5pMDcLdfF4vpYm8TB5UoEt/yp5S8OkZtcuCDZ7H8jEqL0MFY8cmTSFI7LoJXeCyeefV5PNTUVK7k17Fr9XohkW11Q4QUWce+xzsbDiKhIgzLp+0ILB+fiw2reaLbKMEQcfqrl7HkSAxeXT0DAzxV1mSsTW2JdYWQsfOKEDDmfWVWyTyhtv4rDpZs16ysTTAZ94jw8rKPMDShCg/7vHFlpT4bikvJEGGC9wsNSQR0JVD7t76uo1A7IkAEzEIgP0bhFeGbkGyW+TQnkQo3yWA5IhzII0ITgnK/wT3oFemMjP078We2lIVqiHHj8GkkKs9rvKbFxyMrqCdefX8xxkcB8swMZCIQQX6sYWE+8iBFSYkUsb06wwuX8dOWBPCo+ZL0yzgcl6UxmvquIX3UR7C+vZj1vwphSOy3Ii6yUp0ylsDQEhLyXxxarlf4pqT16oDrLKkqifEI+LFM9lyKXXRNTskqxbAwJh7KtJMZISKF3vyfiuPr38EzIZfw5ZxF2HCD/b80qpQiP7/2ikGFR1filU/2o7jXbGzdshrfvN4HMU2bQtNvosuLX7DQq/oZIaRxGzBpzIoaDZRGXbrWwXiy3RkY/sFRrWfpoP0QKBE8ImwzWaW2q6D8vFF+/mhrQ8eIABEwPQFbe0hmeiI0AxGwYgLcENHo37MsYWWKRbSU8mSVTChZJacQipFvvISs9zZi5ctT8DlYYkmfHpjeu4vKzRFvp5Abf36Ojw9KmLmB8fMMw4AXH2bt/DDkoWY4sGMrJo7ZjqhRi7B8+LNYMrEIy75/F6N+lfPGaDViLnq3VY5U/VXURf8+1UexniOBF64j4ueDgkKJzAMht02kRZTjoSEd2PXlksf+7138H0uU6eRkEV3sddJgZnzjUsJK7RlF3BvgoZefwP7nv8PP205gHCu9W/VDJ1lI3spL4HJPikiolugNVyR29WqL6PzrQgJa+MRg7BuzMLK5CNIbO/Dawl9wi6kratoa0VqjK7Kwb9dpiP364s0J0eCflu6x47GIJ4JJuqC2PIV3BzeeTEffupLNatGp3ZFFWPobS2jLRl0+hnmKqHpuqc1U805NyXbPcg+TzHsw2Oca/rgswpC338X9Fz7G29uuIoet35kx7v9/E+Gz9Uvs0TXZbs1qMCNuDcl2y35i5ZL/RuMB3ZB++ChSW03EtjfuU7metQ1K54xJgHtE2HqySlUe/PPGlx3wY+U8SYgAEbAcgarvZ8vpQDMTASKgI4H8loqElV53syBimft5uIY5RVYZmqHIcG/Ouc0/V0/M29JTfdqIJ7Fqy5NVx/y6YOo77K/qiGKrz3Ts7KN+sCd7ArrtRfVjfC9yxCJsHaF+PGbQDHw5SP0Y35v4yVpMrDgcOWst+lY2EUGXPpXNrXiD5x/p8OF3goYFkY1xY9zDFtHWPScfnResgUtZGYqD/XF28WTIXe3niaBFoNYyabHOJVDPK268+Vg13Xx7t0SrUCDudgq4yTaSt9VRihMzELnkU7zd8F+8+eJ32LTxAAYtjMW+NcwIIW+Ex+bORJ+kb7Bok7YBr+FKIjvesTlaaztdwzFlstlHlqzE5KhUrJ25hCWobY5Ob7UTemjTadPCtzA1lYeqVBgzahi7xsPKZLvs5n7NJ30hOvQxpq5iyXbbf4FOvFPyeSSNmYfvFjRhBhVmsJnLjBBtxrP9PpBdv4uCyGZo0m08bo9ZI4So7GQGHy53tyuS7VZby2ThtNZ/aly/0KcEZy86YcGylegSRD9ZtQI0w8HSMpYjwo4+/4TPG2aE4OEZJESACFiOAH2qW449zUwE9CaQ16JZZR+/a7eQ3blV5b45NqReCvd48ogwB23HnKP1VzvgnlPAKlO44MLsCcKruUm4sFrz3AjhnlsAmbsrziydglJWOpTEGgjocuMtA8tDxx7dG6AvS+zavwX/nGPGDFYUJS47m4VQKQ0Mg/F0+2CI2j+GPruu4PeahncR6fXUXpdks9V1qmly9eNpuxdi+G71Y8Jencl2YzBgCDdCcGmHbm1FOBm3CRNfPIT7Rz6HqTHCiWr/1LmWaj2AuvqEdBtARggt3Mx5SCjf6W6Z8DhzrpPmIgJEwLwEyBBhXt40GxGoFwE5uykqDA+FT0q6kLDS3IYIudIjgmWcJiECxiYQeuwiGu8/LQwb/8wQFLH3urnFqbwcHd9eB9/EOyhnYRjn5k5CYVOhToq5VaH5DCVQxCraZAIevVvq5Q0hTFevxK4VOV+YJ0YiGyxSGLDuf0yZbLbh0MVYNVbhSYeKZJWCRrUk2z1whLdwgWvlL0Q/DHpjBVoe2IJPvz+Kv79eiPTyT/DWwOprq3EtLHlmTVJXH2ed84fUNAMdry+BEpZU1h6qZtSXA/UnAkTAuAQMeV5gXA1oNCJABPQiUNBC8aPS73qKXv2M0VjqoXg+RskqjUGTxlAl4J6dj7YrtgqHctpH49bwqsAT1Xam3m7x9S40OBsvTBP3ylPI6tzS1FPS+EYkIBXfws/LdiDOuRGGDhWCDFRGZ5VueOL/vDTcZrbUkguXkaBytubNlmgdyc5e3ItvL2bh1l/7cEilTG9Vv9YY8kAjOKfvx6a/MoVks1JxDq4lZ1Q10bJlaLLZ4CAe5V6EXKaLlN0o6hXtrley3QxcvZqDBn2ew4r3n0A05MhIz2ZzU7JdLZfTLg/xHBFubhSaZpcXlxZFBCxIoNLebUEdaGoiQAT0IMATVjb+5xR8481fOUNZNcOFPCL0uGLUVBcCPC+EK897whKiXnh9nC5djN4m7I8TiNj1rzDuraF9kPrgPUafgwY0FYGK3BHObgiOuAf/9+FEDAzTnCsYg568H39/eggfPvM83Bt1QWyUM45rNqu2H4zhk0fg5Ls/Ydfbb+DfNvejM7MHH67WjnlBPDUHC6Rf4bONczDqaxYfwvTx6TMZm4ZoaVxxyNBks+0fHICoQ7uxbuqz2BjxBJa/9ygqfB9qnqzyTM3JdiubVG7cwr6PV+EfCTd18PKovfHqo4qZdE6227lysGobNa6/lj7VBqEDJiXAQzPII8KkiGlwIuCQBJgXKvNDrUXCXnlcOPtk9/5oGmQcN1mPbAncxGWQuTqzH51kYa0Fv8OdcmXvC2epHKU+bigO8HC49euyYP+4RNw7+3Oh6T/fLzVrwsqGB8+i44ebUMaSZO5nc+sqwexpSo+MAqH5NV9PtW6R4+YL+3eZC3xx2+Zq5+qz02jRanhUGGuK20QJQ5W0Vbwqx5U2CIA0JEC5q2gT0QhyL3Ud1Ro4wE7LAomwymMhvmapsd509yG0Xr1TmPPCzLG426+L2SkHn7mGzgvXgIdmZMa2wNklU4TQDLMr4mATPnKbP1kHUlhpYLELOWk62OWn5doIgeGsMstr/zcV9/fubiMa166mF0siE17xQGVPk6DaG9vhWa+0QojK5Chzd4HcnZ5J2+ElNnhJboWlcJKXQ8LuwcrYvZi+ciT+Io5dv4QeMe2wY9pbdXand1+diKgBEbAuAgXRTYQbJH7DFHA5EZnd2phNQamn4kOJVzawZhFl5MCDJfNUllr0uHxTUFf5qo/uPC9GKaveoCqlzFhRrlGxpFijxGSZYOQIVO1G21oIeN3JRIt1vwhn0vp0tIgRwic5DZ1YXgj+f4rnYDnPjGI8PwQJESACRMDRCUiKFd/37hSa4ehvBVo/ETA6ATJEGB0pDUgETEtASFjZrBF8k+7ALz7FrIYIZflOfsPmUsK8mljyTGsUaUggcp58AIHb/hbUy3miH5yLSuDGmKkK33eR1J5401lSDE0DhuY+H9NfdeAatpWeGcrTcvYUuCxS3X+8lF1buXeVN5DMixlCItQNIcr+tv7qLJOhw/sbWYlMKUoCfcFzMphb3PKL0Hn+auH9XBLgyypkTIXMQ/+nAObWm+YjAkSACJiDAM8PwYVCM8xBm+YgAo5FgAwRjnW9abV2QqCgRRPBEOF73bx5IpQ5IjhGF3aDbq2GCK5fSasI/iJI3ogHlJu1vjqLWdhY4l21NqKMXLhkKtzHlSc8WHiMqnAPDNesPNVDWre1GTBw6orWtrUdVISUqHtbaIadcCOHpgGjxMrCTqK+/wN+CbeFpfK8EFJmdDGnOJeVIZaFY3iwaydzZWU6l0xGcQNdTErm1NI+57p9IxFBoSH2uThaFRGwIwI8PwQXSlZpRxeVlkIErIQAGSKs5EKQGkRAHwJ5MU0R9udJmLtyhowlElSK4EnAniDbk/DcEMUaeSS0rS9vhLaj6se4t4VzUVUIizMLZ3FNSlVrxI0c/E9VPK8kqu5q3RZlsn7sT1W0GjlUG2jZ1hZ2Ig3xh9xfcV3DmDEjgMXt8yoWqiIJDYSkYf3iavl7N+r7P4Vhkx/tjZwOMapTmH6befW0/2gz/Cuqz1yYMwEFUereKaZXwnFm4IaHQz/vQ05aBhIuxFUufFVwMFo3DUfn7l3Rp1+fyuO0QQSIgHUQqDJEkKeYdVwR0oII2A8BMkTYz7WklTgQAV45g4sHK3nomluAMjMZBFSfWNcV0uBAl0PrUjW9EYRGBuTz4N4WmsYKbuRwYt4bSjFm2Akus1KAFQM3Uk6gw2tBVGOWOJXXRlRImY8HCps3Ue4Kr5LQIBQzI4azVIo2rFQnz8IgbhSM+EmPqrUzx070xn1oeOSCMNW1Zx5Bxr1tzTGtQ87x+3fb8Mfm7VrXfjsrC/zvr7PnsO/fI3j1hWcRGtJAa1s6SASIgPkJVIVmWGcopvmJ0IxEgAgYiwAZIoxFksYhAmYkUBAdXpWw8uotZHRvZ5bZZRXJKvlkIirhaRbmPN8F/1MVXbw2VNsrtz3iFEk7lfvawk7cku7CJ18sNMl3dWGWghL4Jqp7cij7q7763lTPv8HPhR67pNqkapt5I/BEorxok/fdLAwY8UblOe5tUcwMFqpS0DwMUp+qSiZSlihU03shn7fRSCCqOobqdqP9p9H8x7+EQ6kDuyFpRH/V07RtJAKSwiKsfGMpUm8kCSOGRUWgXc9uiO7QFmHNI4TjAWficCU5BTuPHsfFuCuY8cYivPHa/6F929ZG0oKGIQJEoD4ESipDM8gjoj4cqS8RIALVCZAhojoTOkIErJ5AucgFhewJtO+NVPA8EeYyRMjd3CoNIDxHBIltEdDVgBFYUb4zvobynfx9JypSGCuUBAIvJCg3hVfPtGx4pOeoHQu6eANgNghlNRPuEcF3VcWT9eF/qhJ4UX1s1XO1bVcLKWnIDDos1KTRHyeEbtzokXlvOwSp6M5L03LDB0n9CWxdvrLSCPHg2BF4aNxItUGjO7bFI8EKv5veA+7HouWfo4i9r95d9jmWv7uIPCPUaNEOEbAMAaeKCkKe7lWhmZbRhGYlAkTA3giQIcLeriitx2EI5LVoKhgizJ0ngodnuBZJ4EoeEQ7zXtNcqLYbdV1yPLgWitFz6vtwZ5Uq8lkZ2tNvTYXPTXVvC4WRoyrsRFQoga9GG27k8NTIraGpI9/XNGAEXmQHBUMIe2GvXszg0fGdDdq6qh3TDDvhJ3M6aubNUISdqHbM7qDeRvWcvW9fPHoCl46dFJb51IwXcM/AvrUuuVObVlj96YeY8urrgjHi05Vr8db8WbX2oZNEgAjoT8D34JlqOYZqG6UHO7nqgcGI+vt0bc3UzvFkyQX3dwbPu0RCBIgAEaiJABkiaiJDx4mAlRPIZ+EZwHH4sxKe5hQpS1jJDRGUI8Kc1O1jrrYsLwQ3QshcRbgwewLKfLyqJanUxaChjUbghetqh10Li5mRQ1GRg59wYSXown85AlFJKcqdnZEX04QdkxkcdqJp5FCbvIYdbsQr0MiboUvYiTGSg9agkkkO85CMH1asEsZu16NbnUYIpRLeLMfIGzNfwbylHwhhGn8fOIQBffsoT9MrESAC9SQQ+O2v8P/tqN6jdNe7B+B94AxS333ZgJ7UhQgQAUchQIYIR7nStE67I5DPPCK4uOUVwoM9HS4OCTDLGmXsSQcXkaTELPPRJPZBoPGfJxB6XJEz4trkxyBubNyEhNoMGOk92wvwnKQydJvzhWCEkItEOPXui8htHaEVrCKkRL1cqy5hJ9yTw5VVRqlNROy8pgFDc7+2/qrnNMNOtCUH5Xk0VPNmmCvshOeE4MYILqOYN4Q+wnNDDLi/N/4+eBjHT54hQ4Q+8KgtEaiFAE98bIgRopYhaz3ldovlG2LGiMK+nWttRyeJABFwXAJkiHDca08rt3EChZGNIWfx7s4yOfzik81miJAqDRHFxjVE+Px7Bh5XEo12VfiPLhLrIODJrkWblTsEZbI6t0TK4F5mVazdiu8RwJK6crn4v7E1GiH4eV6WVLM0qTYjB29bm4iY15DvjSqPDN7WMy2H5c2o28hhSNgJH7/G5KD8ZA2iLTmoLmEntSUHVZbnbN6hDTx9vGuYuebDUREKI+vNpOSaG9EZIkAE9CLgv/1vvdobo3HAjr/JEGEMkDQGEbBTAmSIsNMLS8uyfwI8YSV38/ZnRgjf6ylI79XBLIuWeXoI8zgbOVmlz8GzZtGfJjEzAZaMod0Hm+BSUgb+RP7izLFmVSBy659ozJ7KcUkY8yDSenc0y/zcE0HTgJFj4H9RzeSgmmEnfEGauTX4MSE5KN+oRYyVHFQ17GRnosLzpUNeCaK3/K42u6YnR3m5E5yC1b25oiKbCX3SMzLV+tIOESAChhFwZuWeff81/3esKDOXvCIMu2TUiwg4BAEyRDjEZaZF2iuB/JhwwRDhzypnmEt4jgguInGpuaakeWyYQMT2/Qi8oijfGDd9FEr9fcy2moaHz6PFpn3CfGnMUHdj7MNmm9uYE2lLDqoMO9FnHl3CTrQlB9U37KREXiCo1Tg5A803qxsiNPUtqzgQqnLCN7wqbCd/7qeICQ5GWWSYSgugtFkjyL0VRlHlCUmbKOUmvRIBIqBCwHfvEZU982767TtCXhHmRU6zEQGbIUCGCJu5VKQoEahOID+GuzAfhV+F23n1FsY/Iqs0RNQeD2/8mQFx19ZIf20cgjb+Cr99+ifcMoVONGbNBHi1i5gKQ0DqA92Q3kORs6HmHsY7wz2F2n+0WRgwjxnseEiGo4uxwk44R83koKphJz5HDwE3ruOCrxuyI5tXYueeHL6J6lVSKk+qbNxMrgpp6ZiYAfC/U1dUWui2KW0QAGkIK9mqIqURjVDOvFWUwrP7l0Y0Vu4KryWsDWX7V0NCOzZOQNKtLUraVP1ftPHlkPpEgAjYCQEyRNjJhaRlOCaBghZNhIXzJHmed7MgaRRschCVHhEWSFYpZ1UHSGyDgLNUig7vb2Q5TGSQsBvCKy88YTbFPTLzELtwDbgOPAfC2cWTIXd1Ndv8jjBRbWEnoaHs/+ny64jzdGaJQV+qFceQY5dZYo5iZLi7ophVM3Fmn2X/7mVeLHGZ6BQSipy+/SBiyXj5n6p46pBPhruF8z9V8bh8U3VX5+1iDW8LaYg/ZCFBav2L20Sq7cvY55WmkUOtAe0QATMRoPehmUDTNESACOhFgAwReuGixkTAuggUsCd5MjcRK0MoFRJWmscQoTAGWKJ8pw+LcfViT0b5zQqJdROIZmXivG+zJ9lMLs4aD5mHm1kUdikuRef5q+BWIAY3mp1eOhWlft5mmZsmURAIa66oSJKTloGE83GI7ti2RjROTRsK50qZZ0IxS75bVCTGwW15wrFm3Tohb8QDNfZVPcGT02oaK9yS7sCJxcYrxbmoBPyYqvB+rlmK+VSPa25XM2Aw+4mm+Gse0LKvCCmp8sjgTUraqoeUKDw51PNmUNiJFph0SCcCvHKFa5a6QU6njkZuVHBfbDUPJSNPQcMRASJgYwTIEGFjF4zUJQJqBNgTRJ6wMoDF4PuxPBFp7Ive1FIZmmGkZJXSYH+IdLgRUK5LXyOEvCKURNmfXk1PIOByIiJ/OihMlDiiH3I1nhSbSgMnuRwd314Hn5R0lDs54dz8ZyEOq8o3YKp5aVx1Ak2aR4JXzLhx4TK2rliJGZ++q3P1jO+3/4ybSYoKJ7yMp67CQzA0wzCKNW7wdR3LI07da4IbOFwy1auduCXdhXNRlUGUfy65s3KFdQkvaagp1Ywcmg207MtZ0uBSVjlJVXQJOynTEq6iOgZt2x8B74OnoYsHkalXLmkdWe3/qKnnpPGJABGwbgJkiLDu60PaEYE6CeS3aKowRMRXxVXX2akeDZTlO10kxklWeXf+c/A5qKhqUJdavBQYl4KB90Lmp1vSw8L7O9c1LJ03IgERuyFrz6pkcClgN0oJ4wcZcfTah2r72Q9ocDZeaBT3ylPI7hBdewc6azICo2a8iOWvzAH3iti1ZiMemzyhTmPE3wcOYffePwSdnpswGsrqGSZTsoaBDTVgaA7HvS9UjRX8vPvlG2rNtIWd8H51eZzxqkWaBgzNfbWJatnRDDvheTPqSg5KYSe1ALXyU9njBwshQ4Es15IuxjO+HP4AQt/wDmswflj5pSD1iIDDEyBDhMO/BQiArRPglTO4+F9NFF5N/U+lR4SRwiP4U8zcEQPqVNv1biYCdvwjtMsb0gfShurx2XUOQA3MQqD1yp/gyeLy5S4uuDB7AuQi83zNNPv5IML+PCmsMfHxvkh98B6zrJcm0U4gqGEIHpvyNH5YvhIn/zyAhAtxGDX9Ba1hGvliMRat+hpHTikMku3btMLQIQ9pH9iGjmq7cTPEyMFLL7olqntSaIadcCwecYlqdAwOO+GjGCk5qC5hJ5QcVO2ymXSHh0fkD+4lzJHx2liET1+m03xZL4yAuFsbndoqG/GQkAardyh36ZUIEAEiUI2AeX4hVpuWDhABImAsAtwjggvPE+HFYvLFTUKMNbTWcZTJKut6Yqe1cz0OulSEb5SzMaQNdInGrsdk1NUgAqHHLqLxP6eEvtefHoyicNWijAYNqVOn4DPX0PLrXULbjHvaIH7Sozr1o0amJXDPwL4oLizC75u3C54RK99YikBmoOA5JHj4hoSd+/HKdfx3VeHFwrXp3q0zXn3hOdMqZmOj8woemgYMzX2+pLwRdS9MM+yEh5S4JqlXMjE07MRYyUF1CTvhK9VMDkphJ3Vff1eWyFcpmjlVlMe1vXKjlr7CDWgkRIAIEIHaCJAhojY6dI4I2ACBIpbsTTVhpakNETIWm8zFpbQMYDH5YHkqzCGi7HxhGjlPPMietleXW1g37S1kjFuNWfdWP8uP3N2+AAtLJmPVWIXxRnsrYx09irfGrIHiGb1izG4vr8W8PnWPr5+eKusuXYHhPzbBik+eRGTd0xi1hVteIdqu2CqMmdM6AknMK8Ec4pOchk4sL4QTm4yHglyY8zTA8kOQWAeB+4YPQbue92Dr8q+EnBE8VIP/XTqq+j8D8GY329wA0f2eLtahuJ1qoc2AAT2fdHM02pKDaoadaEsOasywE13M0ZrJQXUJO+Hrs9fkoDx8p8Gq7ULFF+8Dp/lSdZKgTXvB/0wliZtnY/rxbhXfXYrvTuj4famPTtIbO/D6kl9xs4R5EDV+EOsXP6ZPd2pLBIiAkQmQIcLIQGk4ImAJAvktmiHw0g2WsDIFd/uZ9oe81LOq+gHPByD18TLLkpUeEdKgmn5+OsEZUpTy1BWHVuCJn8RomX8DV8Re6PV/s9Dz5Bf4/FgaSuQLMTxlMna+1hjfzXsP25Ok8G75OBbOfwSiH2bj3ZQIuF+4gMgZbyJ4wzJcDHbFzcuZQNNh+OiDYYjMP4oPZq/DEZaEvOH9L+CDF0Owd87b+CGpFM6eXfHSFy9jgJAUvyfmbekJ9R9Y7KnloS8xfdVJ5KABBrw6D6+2vYKP//c1/s2Vwz28H0Y0u4Ttqnr2Oo4n/hLhnpSzyHj0fSwM3qre/x6VdfMrUXwGyyb/hlvFjTH6raUY3SSx2jpjjjE+KmMuG1b/sq/tP94M1yKJUKniEquSYQ5jgHtOPquQsRouJWUoCfDFmSWTmVGOynSa5T+kHpPwMI0X31sgVNBIvZGI7PRM8FdPb2/0YyU672nZAn4to+GsY94XPaampiYiYKzkoNrCTrQlBzU07ERbclBThZ1wI4dmOI41hp34HDxroneFCYYtOocv5n2Fv+5K4RoxBG+/9QSE76+fchGRlYKbMl907RqOaycuocirG15b8RL6uGv5zqu420k5dhw3w57A5qWDECtm1ggml/9ZgWUrjqMAoeg2ZylG9TyP4dQOhQAAQABJREFUtUP/gkv3FMSl90H3on24O/xrvDQ0E3ueexPJI1ZjvOcajT457NwypMW449rJZpi4/f+gXyCLoAr9QwQcjgAZIhzuktOC7ZFAfotwhSEiPtnky+NJypQiYgkrzWWIUHpEyIL9lNPX+irPcsfAT1di9JaZWPRvMmbNegk3ri/Eke6LBY+IjJ8X4Ue3x7FhY0fseXM+fjzxCMawEdNuemDR118h1j0ZGzbkIT9qAb6ffhVzp/6NA0nDkLn7W1yMnYZtz4jx0dRt+OXebjiS5IsH5y7AuFApM0bUptY5fPP1VXSZtRpTilZi4vd/4vGRqThc1ALPfvICuqMcDUP7QqKiJw4dh/wa8zb4bCWGBV3Csmc0+t+jkQuhJAyjVs1B7nuvYePuc3ig6U/V1vkGU7FqzPp/DYTvOQweHsHlyguPQ8LyfphauEdO5wVr4MFCdmTuroIRoiRQt/eGqXWj8bUT4GU8NUt5PnI7W2icwm7ixNq70VE7JqAt7ETbcnUJO9FMDqot7ERbclBdkioaK+yEr00zOag0xF/wUFBdt2bYSX2Sg+Y8PQR5KhVeVOcx53ZpZKPap0vfi+ljqrwuurHWiT9vxh++7Hv6Q/49PRdf7umLZcxuLs9qgJGrXkPm29OxLnsQ+67uj9XPf479Z4BWWeurf+f1VEwd2bs7muzZhqdn3MSiV57GE42uYNfnl9F60UY8XvgpFq3fh349w/gXJIrafYZ35gUhbd1pfHL4KCTd8nD1bkt0v/8qdk3U7NOdTZCO255vYun2DiBzeO2Xms4SASWB+v8CVY5Er0SACFiMgDJhJS/haepwCWWOCL5YFyOV8NQFnEu2IraVl/vUSfybIcaPfcT5MsNJVVhsZde4q6xEYPwtTJygCCdoeLPCiBPVhhkhKpuhaVQkRH534CscSsal+BLkp3+MkfsVbaSSgZg8lHk1vDsDR2JGYuniQfBRnKr+b9I1XC0pQNo7U/CXcFaKG/eMxkvHl2HltJnY0/9lfDwlqHq/BtHoFMTWoq0/NAwR/g3RxN0PTVoEozhFDK3rbMamUI4JZQhJR8zYMh36BlR43clEy292Czqnd2+HOwP4z0cTS3k5Orz3LXwT7zDTDXBu7iQURLEfjyREgAg4LAFNbwQBhJHCTjSTgxoadsJ1qlbd5HL1S6bLt1xtYSfOzDvNhXssMk+x7FEPVp/AGo+EDlYPzWA6JqVkAD5+8Bc1RhNWiXnHzUSAO/BVfM9J2Zdtw/C27DwQyqDxb3Gt33k9K8IxI57AJ591wO6vPsPCtzfAb2Yw8x7MR9a8CTjB+rIMVLgN/l3SABGxQXBhW2H9uiNwx2kc3Z+DO+36oUvGFfxbrQ83RABNOpERQgBB/xABHQmQIUJHUNSMCFgzgbyYqoSV3inpKGpWx5OHeixGxp5cKkUkUbg2KvdN+SrKyheGrzk0o67Zg9CA3ePLZTJIpVJEhLOknoV98c2CIfAvLUCJmy8yfqhrjMaIbOIMv1bTsOalDkB+AbPGSJHV8X9YN/A3zJ72D/OaGITIiBrGaRKOps6+aPP6h5gey7qzJfmJ85E65R181+cbPPfxPzg1ZbKanmof0tr6Iw2JqtPlpeF2ST5y47PgEeyFiKDq68Qx1Q6KEBLVI7puO3GDwPsb4VImRQnL3RE3fZSuXevVrsX6XxByQvHr/dpzQ5HVuWW9xqPORIAIEAElAWOFnfDxNJODags7MTQ5KA87ceKmWG6NZXlx+AtOss9FjRw5rgm3Ucry9lhaeMUOzlYfac69KC7mI096B7dZhGSz3pGs+7+1DqHtu13ZIfHCGbhFd8C4KQ/j5Kv/4YZ3B4Q6+yFy4acYzWzoReyhhTczSagFr0T1RofQd3Bwdz6ixvSBZ9MzWvrcxR7lJPRKBIiAzgTUfuPq3IsaEgEiYFUEJKxSRhkLmXBlT0D84lNMaoiQsqRySuFPXMwlSo8IWZCh7vfeaNe+CdZtW4LRWS9j27NPY8j5zzB5wjbAPRJj31qAup/li9B7/BgcXPoZRo2RQuTZCzOXNML2eTtxndlkfFuORN/afu+J7sGkp49j3scvYLhUBK/7p2Jz1zP432dHIGb7DZlHRFf2MyhTVU9VpbT1f1G9MoVzcCa2TX2Nxc6yHBHPdEJkoKjaOkca6aJFbfkdfuxHLpdLM8eizAz5QsL+OIHIHQeEOVMHdsOt4X2FbfqHCBABImBtBLQmB9VDSZ5Dwz3pLtyvJME1PRuiu1lwKi6FMvdFOU/Tq5qbV8MIIXdxhjOrTuO//W89ZjVNU0nrSL0NEU2fmIInT7+HSRN+ZDkiHsXbjzB3CDVDenVdIx+t/t0+MlzRLufEt3j7nTxInd0Q0fMZjAxpB7cp5/DV0mfwOvsO9njgFSx9TXPMCHTu44H928LQqT9Lli3qgaFTDmv0aajZifaJABHQgQB7oMUeadUiYa88Lpx9snt/NA1S/8FbS7daT3lks5rY4jLIXFlqOU+KpKoVloOddGXvC2epHKU+bigOYC71JDoT6Dp3JYLOX8etR3vj6lTF/1udO+vZcMDIN4QEgefeeBrpvTrW2TuYxfP3yGDeA0yu+VYZMursqGzAvBgin14k7N2d/xyK2Q8aEtMRaFkgEQY/FuKLrBqSP/LEqPfOWCH8Bk4e0hNXXhxhOoUqRg66kIAu7H3OPTEyY1vg7OLJKDdT1RaTL85BJ1DLEcFumkiIgCMS8GTVLJxZHgduYHBNTIUzS6RYLYSjBjBlLFyRexrw0BS5tztK2jRnrx6ViTMbLv0Gqnkwcp7oh7KIMME44c7m01W4IUFX4fk5NMe+O/fZamVodR3P2O28ZHKEVySr3NOEuUo6mHilFUJUJkeZuwvk7vRM2sEuf63LdSsshZO8HBJ2D1bG7sX0lSPxF3Hs+iX0iGmHHaySXV1C7766CNF5ImAjBHjCSm6IEPJEmFhnKSvhySsViMSlJp5JMbwoPadyHqnBHhGVQ9BGPQnwRJE8JIM/iBM3Ckb8c4/Vc8S6u3ulZqLT0rWCEaIwPBTnWV4IMkLUzY1aEAFtBHgOAR4SYCqpryeAqfSy5LiqxgaXDObdkJEHN5bnxlmHXEsyT0VFDmlIADM6BAiGBDnzgtSXc1HX1sgb8YCAoTSiEcKnL9MJSfqMsRDrmW/Db+8Rk5b81ElxakQEiIBVEyBDhFVfHlKOCOhOIC9akSeCh2aYOmGlkCcit8BsySqV+SG4+5bOySp1R0ct9STQ4utd8GIuwvx6XJg9weQlM10LxegyfxV4TpJSXy+cWToVMg/9LfV6LpOaEwG7JRD2xhcQsYozphIxu+FNf22cqYa32nF5UksesuhxORFOFcYeXY0NfFGK8IX6GRt0hcO9FnQVUUbVwwBd+1A7IkAEiEBdBMgQURchOk8EbIRAAfOI4OLMXA592Y+hgqgmJtNcWTnDXMkqRRUVM+T+LEW2C89jTWIpAsGnr6Lp3qPC9DfGPAhlxRZT6eNcVobYRV/Dk3nFyEUiIRyjuIEuOeVNpRGNSwRsn4ApjRCcjtepK7YPqYYV8Jty18xcNWMDP8ZLfOoi3NigCJ1oBBnLoMw9HHhpS17K1NTiza6LbOOvzKOiMXyZx4KuErRpL3k36AqL2hEBIqAzATJE6IyKGhIB6yYgYS7yyoSVvvG3TWqIkLHQDC7mKt/pUvHkjsIyLPse5J4J7T7eLCiRH90EN8c8ZHKF2n+0GQG81CqTi/8bi7wWFWXYTD6zY08gi/8Zqxdvw40cKVx8e2LUui44M/JHNPz8E8T+PQ2fpY/De2/cqzOkrC2zsKb4ZcyZFFHVR3oDnyxdjK+TS1HuFoYn5r+F8TFVp2mLCFiKgNLYwD0ceL4G9ziew4GFs+iYU6GEVa5ShE5EopwZGHj+BnMZG+pi5rdPYUiuqx2dJwJEgAiYmgAZIkxNmMYnAmYkkN+qGYLPXBPyRKQ+pPtNgr4qSr0UbvHm84hgdS6ZyFhSLquRQysw/IvzaD76QywbxjJ54xyWPfMJDvora6HXpulRvDVmDfDyWszro60dP78TTd97HxNV7tu0tTTnsbYrtsI9v4glGhYJIRnlGhnaja1LNKvK0fDIBWHY6+MHIa133YlRja2DY453Htvm/oCCBxfhncktoEgpfQhnKmA4sZySshKeH0aKlG/n4csfkyDzbomHl87HgBbHsHboT5C0ysety2J49JmIR5z3YuehuyiTz8HrSS/jw0UVb/rkY/g1uRGmvT8bg5q4Q8ydnfKP4oPZ63CEPVxueP8L+ODFEOyc9jmSo9xw9mxTTHooAWviH8KmhQ8gc/NsvJYwGN9Oc8eXtfSZs36KDhVxHPNKZ48bxG6QGxtt8T4Hz8Dn37NGG8+UAykrUvCSmtybQV9jgzJJZHHbKmODIodDoCnV1nvsnKeHII8lwrS0cEMMCREgAkRAlQAZIlRp0DYRsHECeTFNKwwRKSZdCU9WycWFxeybQyo9IqzJEFGx8BvHjiFj2CMIiTuLC57+8FMCSdqHue/twCV2QxXYfRJWTO8Jf2kOLv93AZnBbvBnDYUIbW7Q+LEJVnzyJMBurKanDMfOWcpBrOe18V8nEXr8kqDQteeGQty4gUmVa3iYGXk2/y7McadvZ9wcNdCk89HgKgRuXsTNogboMFBphFA5p7qZsQfbtrph0Hcb0Xr3m/h46wkMmMcayLPg9tCneGfcFiyddxaiPdPR+9ocXOjznrpHRFRvDGm0B8vmLsCJSTMwbUAYzn77LS7GTsO2Z8T4aOo2/DL0RTZgBhI8Z+K79e1YKcMfsWvPKRwq6oC8sxlo/cA9uPLt/2rvo6ozbasR4EaI4rbN1Y7VZ4fnRrAm0TQ2GLsihTWttSZduDcGCREgAkTAGgmQIcIarwrpRAQMJFAQo8gT4XvjNpykMpSLTJNPgWfw5iKqKH9loLo6dxNlKzwipIGVt/k69zVpw9BmaH7nAv4regQRR06jcZs2SEngM0pxYOs2JMfOqLihWotvTvfEkHNL8MYhH3SOccb1QqCVSZUz3uCeLP659aqfhAGzOrdEyiO9jTe4lpH845PBQzK45DIvn0vTR2tpRYdMRsBFBJ0KaV68ituIx+1xE7CbK9PoJlLRjG34I6yFH1zgCw+Fua0GVSMwbcFS3PfbRrz0zVIs952N0PgS5Kd/jJH7FV2kiQAPxolux4wQ/FBED/Rq8BtO/nkM2ckt8UCfbFz6tY4+vB+JXRMwZkUKzfKXtg5OmUDT0usoYVU6zJEHw9LrpPmJABHQnQAZInRnRS2JgNUTyK+In+cJK31YWTClYcLYiku9FIYIc3lEKBOrWVVohgC1HXp1+xuHD53H7VON0Xt4MdYIhog7SLwth2e4H0TufmjsX4JT7CnzqYt5aP7YPCwcVoC1ryxhN202IOXlaPfBJqFiRZm3Jy7OHGtSpT3TshG7cA2cpVJIQgNxdtHzJjOomXQhtjx4s1i0CPoJF36Lx0MvREGamg1ZmJYFRYYjGIXovmEB+geUoqjEDd44pqVhAwSw6CU5M47K2HV1YUlHBbl5AX/nBuG+RybgyfNz8U+qF+5t4gy/VtOw5qUOLEyjAPDLxfc/qg7ZFH27B2PBr38hv/VjWOLdGKfq7KPan7ZtlYDyhpp7XViq/KUtsgv89ld4Xkm0uOp35z6rd7lRiytNChABImBSAmSIMCleGpwImJdAMc++zSpLuOUVwo89VTaVIULmoQjNMEeOCCcWi87da7lYY7LK2NhW+H7rRtwJ6IcPvOPBMj8waYroZs74qyAf0hIx7uS5IzIqCgEXgQJ+cyXNRhZ7qZTiAuRK83E7PgswfeL0yml12YjccQCBV5KEpnHTRwnvL136GdJGxMrJdZ6/Gm4FYnCjx2lWprPMx8uQoahPvQi0xGMLRrNklUvw5m5mOPC6H+N+ZIYBTYl6FE88eh7rJ03Ar8xfIXz8W5g2SrMR3/dGVGxT7P5uLuZmzqhKcplzAosW/4FMqTPcG/XCjP6h6HbPGBxc+hlGjZFC5NkLM9c+XG3AyN7d4Ll7L8Kf6AEfiNB7fN19qg1CB6ySgKqxQVn+0lYqUlglUC1K5T3cU1E1Y98RuOuYfFPLMHSICBABIlBvAmSIqDdCGoAIWBcB7hXR4ORlIWHlbfQ0iXJST0WySl4v3dSi9Ibg81ifRwQLT+nRHbFfrUH2wB4IYW7qSukz+Tkcmf0JRj5TkSOiizdcSrpj25fvYOyJcDRgBodQ3rhzL/TasBqLJp5F65hQ3VzilZOY+NXjdgaiN+4VZrnTvyvSe7Q32YxOcjk6LV0L7zuZkLs4C54Q4jDT5qEw2WLsYGCXFsPw4qZhaivpsKciyWTUJ/iw4kzLF9/DOzyNQ6WE41llO4zFnD0VJ8Z+gPc0nWm6PIuDXw4XGqQwLyshWaXfA5j/1QOVo/GNnp+sVdtHxJNYtYXlVKkQUZgOfZSN6dXiBLRVpNDH2MArUgglL5mrv7nLX1ocXj0VKOraGjx5JReeZDN8+jKdRswePxj5g3vp1FbZyI+VB+VlP0mIABEgAjURIENETWToOBGwUQJ5LdhNLjNE8Dh7U4nMy3weEaIsRX6IcrYYq/KI6DMdOyvuy+Z9pzT4VB2DX0/M+kp5vOJK9JyKdRqHgHsxa031CifztlRraKrLqX1c5kYfyfI0OMtkkDQIwJUXHtfezkhH2372A4Iu3hBG4zkhcltbUbkQI62RhiECjkSA520wZvlLa6xI4SjXUxpiXZVAHIU7rZMI2DsBMkTY+xWm9Tkcgf9n7zzAoyqzN/5mZtImlZLQEgiELqGJIhbA3kXEXQUrFtR1xS76V9aCu3bF1bWh4opdUbB3QBHFpUqXlpDQUklvM5P/d77JHRJImZlMkpnkPc+TzJ17v/q7w5A5c857ClTlDLHI1H3NJlhpqxarbAmNCKNihj0mSpXpaB7xzXb3InFjw7aFi2GtDttdf9elsFU7n9zo6nGTXh8vRvfvV+h+O/5yMvaNH+nxGOxAAiTQ+gSsKze6FtHl4UMiWVxXnAdG+Uup6uCICIWIRNLZcAgkHz+NWLkZto8XoUJFlcTM/9Ht0eOfeQdlg3q73d5UXIoQpn24zYsNSaC9EqAjor3eee67zRLI7+90RAQpkcHo7RnIH+D7b5ZdVTO8KN9pRhXsCHKbvyVXF7lUaRl+VjHD7R0EXsMq9bpxfLdcLzx14lgcGJTUbJuI+30j+s/9XI+//9gUbL/sjGabiwOTAAk0LwHL7uxaE8j/FeJoqOlscESE6ee1GvJJixHwxAFRc1FhKsKFRgIkQAK+JEBHhC9pciwS8AMClbFRKO8Yg1D1AT5qa/M4Iiqrvx0XZ4eprAKOMKdmRH3brww6WAww1F6lcsHdd0SYXY6ImPqG53kfEggrLUPlq85SnWVKo2F7dT6xD6dwDRW1cw9SHp2nn+er0rPr71AiAkHuvzZcA/GABEjALwgUjxuBqB+c0U2pb8/yizVxEf5BQKJdaCRAAiRQkwAdETVp8JgE2ggB0YmIX56PmG3pyGiGPTmqxSplaIv64FrRiCOiIPhgSkWoKi1aosQI3TVzrlMjwtaJjgh3mTWlXQeJTshTJT3UPdp856VwGKUWmzJoHX1D8wow4h9zYK6sRJm6t2sevBaO4OA6WvIUCZBAoBDQKXSBsth2sk4RpyxbcTBlpjW2Xdmru0q7oc5Ea7DnnCTgzwToiPDnu8O1kYCXBEQnIn75BlXCszncEEo0MtwpVinLM5eUq7IQjS+0wGJGtBJADFGOCE/MqJph60BHhCfcvGkboUROQ39Zq7s6JoxDlopSaA4zqygacUKEHiiEPTQYq2dNQ0V0RHNMxTFJgARIoF0TMFJj2jUEbp4ESMAvCbj/taRfLp+LIgESqItAgYqIEItI3w9TeWVdTZp0ztCIkEEsbupEZCgxMrFI5YwIdkgNDPfMcERQI8I9Xt62MhcUo9PLHzu79+mBveeP83aoBvtJOs/Qf85FVOpeVKk0jLX3TkVRYpcG+/AiCZAACZAACZAACZBA2yLAiIi2dT+5GxLQBPKrSx/Kh74oEawc7L7atTsIbVanU0HaSmqGOyaOiH4FpQhWa+qivhHPqDGG0T8zKxs//vQLdqbuQmZWDnam7cIohGAAgtE1fSdGDk1GRITVaM5HHxLo/MJHMJWoexliQcg1E5Ea1Tyc+7/6KTqv2apXvvGmvyJnRH8f7oJDkQAJeEIgqExFtNFIgARIgARIoBUI0BHRCtA5JQk0NwFbRDhKlTBUeNYBxGxN97kjQnL55dtscXSYSyvc2k6lar8zMgz9C0thVekZHSpsyFMfeg1776OFeG/+QuOp63EFKiA/+GQB4pcuxfTrr8KQwQNd13nQdAJR3/+O8HXb9EDmi8/An726oMTi+4C57t/9Dz0//VnPk3beCdhz6lFNXzxHIAEScJuApF9Fff2rq7319w0oHTnI9ZwHJEACJEACJNBSBA5+CmipGTkPCZBAixAo6JeoHRHR2zKaZb7KyHCEFJa4HREhi9gaHY6uynEhWhEdKypRaTJhXUYG/v3S6zr6obGFSsTEfbMex7lnnoqrL5/cWHNed4NA8P4cdJz3lW4ZNKwfiseOUNEQBzVA3BjCrSYd123H4Oc+0G2zh/fD1mvOc6sfG5EACTSdQNRPqyFlGy3ZB2oNVt4M5Z1rTcAnJEACJEACJFAPAd9/5VXPRDxNAiTQsgQKqoUGo1VERHOYoROhxSo9mOC3+GiUqvKdZiUTEZmThyeees4tJ0TNKT776jtIBAWtaQQsVQ50ffY9BNls6maEA1eei5WdoiDRK760SKVVMmzW6zqCpighHn8oXQiJqKGRAAk0LwFxQCTc/JTWfzGcEKUDk1yT2rp0ch3zgARIgARIgARakgAjIlqSNucigRYkUKgqZ4hF7M7SgpUOVZ3Al2ZUzgiWqhkemHzI/blLLI7JLMB/PvsSe7JzPOh9sKmkcYweNQK9k3oePMkjtwhIakyow4HYjxahKm2f7lOpdCF+T+rq85SMECWCOWLmK1rUtDw2SlXIuA72Rsq9urUJNiIBEqiTgKmkFDFf/4aIJatqRUAUnjBcRTyNRJnSDEq6ZGadfXmSBEiABEiABFqKAB0RLUWa85BACxPI7+90RMi0MX+mIS+lr09XYA8P0eOZytwTq6w5uTgj3tqfgXk/LKp52uPjl158FW/ff6/H/dprB5OKQglTDgixqrS9qPjiZ0hcQumJR2L5SSN8HglhqqzE8PvnICwnH3alK7L6oWtR1pllWPUN4C8S8DEBwwER9eUymGqICIsDIn/SSbDFuVFn2cdr4nAkQAIkQAIkUB8BOiLqI8PzJBDgBESwsqRrJ1j35SB6a0YzOCKclTMsbopVHorzt+9/OvSUx8+37MrA+o2bcfQAVl7wCJ5yEFTOWaBTJcq6dMSvf5sEezOkSgx58h3EVGuUrLv7MhT27u7RMtmYBEigcQKWrDxE/bwGdEA0zootSIAESIAE/IcAHRH+cy+4EhLwOYGCfglOR0QzCFbarE5BQ3ONb9482cCeHWmeNK+37c+Z+xE7ali913mhNgGbKQgx//0ccdl5UAESWHv35c2SKpH81lfosmydnvzPK89G1tGDay+Ez0iABJpEQBwQsR//iMif1rjGEe2egjPHoPDMY+GwKt0XGgmQAAmQAAn4KQE6Ivz0xnBZJOALAoXJiej681o0R+UMm/qDV8xS6plGhLGvPTt944hYu2cPBqpqHDT3CHRQZTr7qvxxsZ0XnQxD1NS93u616rp4Ffq8/4NuvOeUUUibdKJ7HdmKBEigUQJ0QDSKiA1IgARIgAQCgAAdEQFwk7hEEvCWQL6KiBCz7s2GpbgUkq7hKzsYEeG5I2L7Hxt9tQzkZmb5bKy2PlBwUQlSnnhbb7MwqRt2Tj7N51uO3ZyGI2a/p8fNHdIHG2/6q8/n4IAk0B4JhG3cieivl8G6crNr+5WdYnT0Q9G4EYyAcFHhAQmQAAmQQCAQoCMiEO4S10gCXhLIr1EjXnQicof383Kkw7sZYpXBJZ6LVSYP9V2Yfsf4uMMWt2fuzXjmo0x13oTg7sdjyhM3YMjqx3Hnk6ur247A5C+uBx6ZgQ+WHoDdEo6U6Xej0zv3Y/G+g8N1uvBR3D2118ETAX40ePb7CM0rVMKRFqybcRkcZrNPdxS+PxfDH3gVJlWVo7hbZ6ydeRWqTKwS7VPIHKzdERAHROzHixC2aadr7+KAyJ90MsQBQSMBEiABEiCBQCRAR0Qg3jWumQTcJCAlO4t7xOkSntFb033qiLCFhelVmEsq3FxN7Wbde/eCL9Izuvepx1HQ9Vzc+vIZ2DLjRnz+yVkYkiTziwPiLozUS1mK15eqqg4PzsPFo6rfCk9+F2cvEocFarTTjQP+V7cfVyB++Qa9j61Ks6E4Id6ne5JoCynTGawibypV5M3qWdNgRM34dCIORgLthEDEik2I+vrXZnVAdP3n3HZCk9skARIgARLwNwJ0RPjbHeF6SMDHBAr6JTodEdszfDqyiKKJWbwUqxQHgm8cEUl6HXX/KkWFCtgwub75X413z56Md8VJ8doEHDlmLt568AbkXDAdV0xNQWTdgwT82dDcAgx86RO9j7whyUg/7wSf7inIZteREBEqBchhsWDNA9egVFXjoJEACXhOIOqn1YiZ/yMs2QdcnUsHJukSnGWDe7vO8YAESIAESIAEApkAHRGBfPe4dhJwg0BBcg90U+KBEhHhSzNSM0xeilUeMWYUVvzQtBKeHeI7o96IiH2f4ZkJn8GSNBE3TlFaGT/L7mtGRADd73sBXRbPxdvP/AuvhM3GbZO7+BKRf4xVVaV1IURUVARG1915ic/XJZoQsVt26XHX3zEFBwbWE6Xi85k5IAm0HQL+6oAoU06QgjPGoOO8L2HJyW87wLkTEiABEiCBViVAR0Sr4ufkJND8BPL799SThGfm+VSw0lZdGs7bqhlDxhyFUSePbZIz4qJbb0B4ZETdEFXUw8132/HWbZuQVgQ4ZTtrNM3aiM25CUgefw3OXrkC8zJ2q4ttzxHRa8FP6LB+u964CEeWd4yuAaHph0kf/oBuS5zaG9snn4r9xw1t+qAcgQTaCQFTSSliVBWbiCWrakVAFJ4wHMVjR8IfIiDECVFy1GCEbU5VYpm/tpM7w22SAAmQAAk0NwE6IpqbMMcngVYmUJicgKqgIASpb8ZjVEWDnCMH+mRFNmuIHsdcaQMcDpX/4Lko4XnTLsf2dRuRl5nt8ZqOn3AmGhO9NPWbjEsvmIHnZ7yDXn+RKapTMyQy4o0ULL/nn3it3AFzh0E47f629wE6IiMTff/7pWa7V4na7T9hmMecG+oQ9/tG9HvzK91k/7Ep2DHl9Iaa8xoJkEA1AcMBEfXlMphqpLeJAyJ/0kmwxXXwG1Yd3/oKIen7EKlSRmgkQAIkQAIk4CsCdET4iiTHIQE/JaAFKxO7IHLXPpWekeEzR4Q93ClWKdsOLi5DZZTVYwISzXDFzNvx31lPeeSMECfEBOXEqM+6T30WT0ytvjr1KTxaffzEKbV7jPz4zNon5NmJd+GJEw8/HYhnUp54S1WwsKsoiBhs/tskn24hRqX6pDw6T495YEBPSEoGjQRIoGEClqw8RP28BoHggDB2IloVsfMXGU/denRUawi51ZiNSIAESIAE2iUBOiLa5W3nptsbgYJ+CU5HxDbf6USI3oBhIljpjSNC+vfok4Rbn3sU374zH0sXOr9dN8Y99DEswoor77u90UiIQ/u1x+fJKlIhascevfV1d0z2aQWLsOx8DL9/DsyVlSiN76DFKR3Bwe0RM/dMAm4REAdE7Mc/qqiCNa72IvhbcOYYFJ55LBzVqW6ui818IOkWIal7m22WorEsK9pscDkwCZAACbQRAq3jiFBh4tqq2ghFbsPnBKpUGgHNdwTy+yai+w8rEKMiInxlNR0R5pLyJg0rkRES4TDkmFE6VWPv1h3I/d8f2AM7Erp3Q9dB/bQo5ahTxtWvCdGkFbStzrGbUtFbaTeI7VIVMvJS+vpsg+ayClWm82WEFJZo8ctVs65DZaTn0TA+WxAHIgE/JuBvDggDVe5lZxmHfCQBEiABEiCBViHQKo6IqupUcpODHzZb5a778aRB9urXhMVzvQE/3larL61QRUSIhebmI/hAISpjo5q8JqN8pwzkrWDloYsQzQf5iVTf1I1Z+ZS+vOTRmajoFHNoUz6vh4A4CoY8/hbE3VvcIw5bp55dT0vPT4vOyNB/zkWk0p4Q3ZG1M69CSffOng/EHiTgJoH7HnoMML68cLNPU5tdfdnF6J3kFPn1dqywjTuVsOMyWFdudg1Rqd7HJPqhSOm1tHQEhGsRPCABEiABEiABPyHQKo4Ih6k6IsKuBO5oJGAQUD4I+aAj5nqNGNf42CQCBTUFK/9MR/bRg5s0nnS2Ww9qRHhbwrO+RYSpnGQxeTVU+LjKgx64Df/qP2chwqv5rbvrMjgsvnubH/DifHRes1XTkwocuSnJbZgkt+YPBNZv2tLiyyguKfF6TnFAxH68CGGbdrrGEAdE/qSTtQPCdZIHJEACJNDKBKo/jbXyKji9PxGQiHR5XQS10BcAvvsL1QOKjhCzbi2bDFLOiCozv/32AF+bbWqq4ZiyBztfI212sy28sSqLGUVJXRG1cy+ilU6ELxwRsgVbWCgsZeUILinz6Y5ClQaBWFnn2Bb/NtSnG2nhwTqt2oKEb5frWbdeegYK+3T32QoSP/0ZiV/9psdLnTgOe049ymdjcyASaIyARCmcNO543DfrMURYrbjn9pvw45KleG3ee3jmkQcQofRjbr37fhSrcpitYRErNiFKlbakA6I16HNOEiABjwhUfyEcxMh0j7C1+cbihHB+H6y+EG6Z3baKI8IeakGV+kcg/wDMFQ6VZ9xCu20ZppzFSwLmSrvuWWUOguGs8nIodquDQH6/RO2I8KlOhNXpiDCXNk0j4tDlhuU4IyLKOzMl41A29T0PLirBEU+9oy/nDeyFtL+eXF9Tj893Wv0nBqhIC7GsowapdI9zPB6DHUigKQTi4zprZ0PvXs6UCXE8yDkx45o4KFraERGlSlrGzP8RUlnCsNKBSboEZ9ng3sYpPpIACZCA3xBwfgFsB1Pk/eaW+MVC5HO5ESXTUpHpreKIENoV1mCEFlUo1XW7/tDpUB8+ae2XgFlpQ5gqnak6FZEh7RdEM+68sK/Sifj2d1XCM91nsxg6Eb7SiDAWFpbl/KO+LE5FRNDcIjB49vsILSiGPTQYG+66VGs4uNWxkUaR6fsxTOlCyDt0YVI3rLv7ckapNMKMl31P4N8vv474+Z9iZ9ouPfjOtHRkZmfr41vveUA/Zmbn6MeW+EUHREtQ5hwkQALNQcCudNh0nSvRZZOU6BYKw2+OvXBM3xGQLAUxCYpwtFBkeus5ImLCEKIcEfLHrbmkAo6og6UABQKtHRFQr3hzSaXesEO9ICoi+VpojrtfoCpniIXkFyFUfXtXLmkPTTSjcoavIyJqpWY0cY3toXv3735H/PINeqtbrp2A0rgOPtl2aF6BqpDxCszllShXAqerH7oW9hCW6fQJXA7iEYHi4hLsLHY6IaSj4ZCQ48wsp0NCjpvTTCrtI+br3xCxZFWtCIjCE4ajeOxIMAKiOelzbBIgAV8RsIWrj38F5U4tAPUtuEQi00jA5PRDqL/zVHq8oefYzFhazRFRpV7zZR3DEZ5bCpN8EC23qW/yWm05zYyZwzdEwFxW6RKpLO9oVd/kNtSa17wlUNi7OxxKj0W0OCQqIssHjgh7uFOw0ucREdVhzuWsltHo7Q7PysPAlz/R7XJG9Mfu049ptI87DcwVlRjxjzkIy8nXURbihCjvEO1OV7YhAZ8RWPDu6z4by9uBDAdE1JfLYCo9qIcjDoj8SSfB5iPHn7frYz8SIAES8ISAfNstofeSmmGusDNF3hN4bbWtei2Y1GtBzB7Wcp/HW26mOm5cpUrPkE1Lioal3I4gm9KLUOcYIlQHrDZ4SgRRLKWVMKn7LlYWFYJK8dLSmoWACFaKMyJmW4b+yRqT0uR5bEojQsxc44/zJg+qBmBqhpsUVUjlEapUp0QsVEaEY/3tU9zs2EgzNW7Ko28iSpVRlRC9tfdO1a+dRnrxMgm0KQIW5eSL+nkN6IBoU7eVmyEBElAEKtTf3GH55SpF3qGqa6k0+RYKxSd8PySg/uYLVpHp8j2wfBlcEdFyka+t/qmvPDZMi1aGKABaJ0A5JezhIbBb+LW4H75UfbYk0YMQJ4Rxl8vVi75CpevQmpdAoRKsFEeEr3QiXBoRJb4Tq7QUFisPvTNVp4wREQ2+IJI+WoQOm9N0m423XKT+DUU22N7di/3++yXi/rdJN//zmvMgkRY0EmhpAgWFRXj8mf+09LSYfPKJGLc+HZE/rXHNLe91BWeOQeGZx8JhDXed5wEJkAAJBCIB0WMLLlafvdSXgZZSGyqkgmELheMHIq+2vGazCgYwhEvLYkJbtJplqzsi5MZKiobko4QfKNNlQyxKM0Jlp6ivWVX1BBFQUf8wGK4vQALXdDkYUWOV0B8RxpGvWZXJfS3vEK7FS51n+Ls5CRSIYKWy6C0Hc62bMl9zaESE11CfL6dYZb23J2rnHiS/9bW+vvuUo5B5zJB623pyoeviVUiav0h32XPKKOyaMNaT7mxLAj4jYLfbsX7TFp+NJwNZzGb075eMQf376mobUnGjtKwMOTm52JG6C7/+vhKO7G8QmVOh56UDwqf4ORgJkIC/EFCfr0o6WxGRWaw/hIYUV6io5GBUKSFLWvshYFZfCluqiwVIVHplRMsWDPALR4Tc7krlmbOpnJQw5YwILrM5vylXaq5m4xNr+3lNtJudVqgXfHlsOEVyWvCOG4KVwSVlCNufi7IuHZs0u706NcOXGhEh2fl6TQ6TiZoE9dwdk82GlMfmqT8eHChVWh9brptYT0vPTndctx1HzH5Pd8oe3g8bb/qrZwOwNQn4kECVOK19aCeNOw5XXnIRoqPqjxz627QrEfzBt6j8baOOfigaN4IRED68BxyKBEjAfwiI00E7I7JLXNHp9mCT+jwmafL+s06uxPcETOozto5MV18Qi4kTorST1fcTNTKi3zgiZJ3yD6JUeefKBY7yzFmUQ0JAibgeLbAJyMtcSrTKPZY3OJvVooUTA3tXgbf6wqSuLsHKGCVY2VRHhC3MmU7jy6oZRkREeScljMiSUnW+yJLf/BIRu7P0tfWqVKc9rOkebOuebAyb9bp+vy1KiMcfSheiSjmDaCQQ6ARCQkJw1y03YNSIYa6t6CocqgSoYREq3aJ3Uk8EW9SfRVPOwm71QyMBEiCBtk7AoSLSi7pEIjy7WH8zLpoR5spy/SWhCFrK3wGsqhH4rwIdma4+T+vI9OoIdWNX5Sodo7yVqlf6lSPCACIfWCuiQ/WPcY6PJEACPiCg/kORqIjYLWmIVloR+48/+Ie5N6OLnouYRUVY+MrCqiMimJZRN9HYTalI+uQnfXHnhSfiwKCkuht6cDa4qAQjZ76svOPlSsDKitWzrvOJc8ODJbApCTQLgZiYaDxw923aySATrN+4GZ999R2Wr1h92HwREVacNPY4XDxpAuSYRgIkQALtgYA4GkqUMyJE6fSFSllP+aAqUenqR32N2B4QtMs9SvRLqUqPF2dUa5lfOiJaCwbnJYH2QKCwX4J2RERtO/htoLf7tlmdERGWUmc+tbfj1OwXWq0RISkHtNoExOEzRFXJECtM6oYdl55Ru4EXz4Jsdgx/4FWEZ+Yp5WwL1jx4Lco6x3gxErsEAoE9c2/GMx9lqqWaENz9eEx54gYMWf047nzS+GA+ApO/uB54ZAY+WHpACUeHI2X63ej0zv1YvO/gDjtd+Cjuntrr4IlmOXKGjHo7dLgqL/zQvXegV6JTG+ffL76GH3/6pd7hJEpCnBTSZvp1V2H0USPrbcsLJEACJNDWCIiApVQvtCgRy2ClHSClPWlti4Bo89mUFoj8+EOlQjoi2tbri7shgUYJFCQn6jbRWzMabdtYA6Nqhrk5IiL4Yfgw/ANf+kSFTx5Q6TVmrJtxmX48rJGHJ0QTIrZavHT9HVOQryqr0No4ga7n4taXz8CWGTfi80/OwpAk2a84IO6C86P3Ury+tBLDH5yHi0dV/5lw8rs4e5E4LFCjXcOccvdnIS8zCzvWbcLuHakoU5E3yUMHo3ufXujWuxc6dolreIAmXr32yktcTohb774fO2ukYhhD9+6ViMysbBSXlBqnIA6JR55+HtOvvwonjTvedZ4HJEACJNDWCUg6hpT2lB8xk6qqIdERLpV5fZa/Ao6Auq861Uaqo/iR0RHhRzeDSyGBliCQ36+HnkYEK617slDS3fsPA0bVDEuZ78p3hlVHRJR1YkREzddD/G/r0W3RSn1q2xVnoVjpODTV+rz7HbotcX4TvlVFV+w/bmhTh2T/gCFQigqVUWVSTi2nrca7Z0/Gu+KkeG0CjhwzF289eANyLpiOK6amoH55x7o3/O3bH+G7d+YfdnH7uo2ucydMOBMnnHgSoq2+T4Po2ydJp1nIZK+9+W69ToiHZ87Qjoj7Zj1Wyxkh/f790uvo3aunK61DztFIgARIoD0RcChtN/DTYnu65S26V/9yi7To1jkZCbRPAsWJXVS5XOf/KtFKsLIpZlOhz4b5SrAybF+uHrKcqRkGWoTkF2Hw7Pf187whyUg7v+klNbv88geS3/lGj7lXVQZIvegU13w8aOME9n2GZybcgcWYiClTnGkLzoiId/HEa1PQHREYdt8LuP32I1G24F945d39bgORKIiX7p5VpxPi0EF+XvgVrnzqWWxKzzj0UpOfT5pwth5jpyrJKekWh5pEQogTQrQgRKRSHyvBykPttXnvHXqKz0mABEiABEiABHxAgI4IH0DkECQQUASqBStlzSJY2RSzWw9Wa7CUNl2wMrhA6lk7hZHK4hgRYdybIU+9g+DiUpXTF4p1d17S5GoiUjFlyJPv6OEPDOiJDbdcbEzFx/ZAQEU93Dz7LMTs2oS0ojo2nLURm7eUo9P4a3D22AjkZOyuo9Hhp0qLijF7+j2oGfVweKvaZzYrJ8SkWY9ge9quWheCVWRU7PxFtc65+yQkOBhHHzlcN2/MCWGMWZ8zQsQtl/9vldGMjyRAAiRAAiRAAj4iQEeEj0ByGBIIJAIF1ToATdWJqB0R0XTBSqNihrCkYKLzFZXwxTJ0Wv2nfrL5+oko76jKmjbBwvfnYvj9c1Tepw2l8R2w5oFrVFldIzy/CQOza0ARMPWbjEsvKMBnM95BhtYjc6Zm3Hn241iFNCy65wb839mX4Y3VPXHy+e6l7Lz/zEsQZ4Q39uQrc3W30D93IW72u+h+y9OI+nGFN0Nh8KD+MFennCxfUduJUDMS4tDBDWfEoefXb9py6Ck+JwESIAESIAESaCIBZ3x2EwdhdxIggcAiUNDXGY4dvbX2t5Ce7sJeXTVD+vmihKdRMcOhojYqYqM8XU6ba2/dm43+r32q95U5+gjsPWlUk/Yo92jEzFcQUliCyohwrFJlOisjfZ+f36RFsnOzEug+9Vk8MbV6iqlP4dHq4ycOycwZ+fGZh6/jxLvwxImHn5Yz//t+CTb85p3jQPpvV0KSn984E38/IM+cVqkcZdhfo1SHcaGRx4Tu3XSLQ0Uo5eS5Z56q0zFEkPK9+Qtx9eWTdVupqDH9hqt1msaQQQNQ0/kg6R00EiABEiABEiAB3xKgI8K3PDkaCQQEASMiwlxhQ0T6fohuhDdWGVFTI6LpqRlGRES5pGUEBXmzpDbTJ6iqCimPzYO50obyDlHYeMtFTdpbkEp5GTbrdUQo54ZDqSZLJERJ985NGpOdScAgsHTBV8ah14+v5u7G3009UHpEbxSceTz29VJCujfe7vF4MdHOqCFxRBxqn331vXJEROC9jxYiooYmhJTsLC4p0SU7azohDu3P5yRAAiRAAiRAAr4hQEeEbzhyFBIIKAIlPeK0YKU4IkSw0ltHBFTkgsNi0WH+lpKmp2YYERFlnWICimdzLLa3qmgRvd2Zmy+6EE2NXBj83AfouH6HXqpoQhwY2Ks5ls0x2ymBPTvTfLLzn2+ehMSjnfoOyMvzakybSjuqz3YqLYpHnnpOX5bIh5q2fMVqyA+NBEiABEiABEig+QlQI6L5GXMGEvBLAvkDkvS6mipYaQt3ClaafSBWGW6U7mznQpVyT3q//72+P+lnH4u8lL5Neg31+mQJun/vDJvf8ZeTsW/8yCaNx84kUJPA9j8OluSsed6b4z1BTrFab/oafXLznPkdQwYPNE416VEqa9BIgARIgARIgAR8S4COCN/y5GgkEDAECvr10GttaglPQyfCUuqLiIh8vab2XLrTXFGpUzKkekhJ107YetW5TXpNxf2+Ef1e/0yPsf/YFGy/7IwmjcfOJHAogT07Ug895fXznUor4qB5l56VuuvgGCJO2VQbPWpEU4dgfxIgARIgARIggUMI0BFxCBA+JYH2QqCgr/MP9KgdKvy/umSmN3s3Kmf4IiIizIiIaMepGeI0sO7LQZW6GetmXKZSaIK9uS26T9TOPUh5dB7k41y+Eihdf8eUdq+94TVMdqyXQIcuSsvBR1ZTtwH6X4HnA29TjpGs7BzdUcQpm2KyntGjGEHUFIbsSwIkQAIkQAJ1EaBGRF1UeI4E2gEBo3KG6ERE7tqHoqTuXu3abnWmZljKyr3qX7NTmCotKabFKmteaCfHHdZtQ6Iq1ym2c8ppMO6RN9sPKSjGiAdeU2KXlShVqS5rHrwWjmDvnRrerIF92geB7n2SfLZRKaFpWFRUFB6eeZfx1KNHi9KuETtp3PH47KvvUDvSwjlUcUmpPqhL1NLZQqpsnKarbBjP+UgCJEACJEACJOAbAnRE+IYjRyGBgCNQ2q0zKlX5zWBV0jF6a4bXjghXRERJ0xwRIflFkHQEsdLOqmpGO7PgohKkPPG23nVBcg/suNj7b3IlvWPkvS8hNDcf9tBg7YSoiI5oZ0S53ZYi0FFFRISHhaLUB87ImroOwcqZUPO5t/uZfv3VuG/WY6oqhtPxYIwjwpW33v2ArpZhnKv5KCkZF184oeYpHpMACZAACZAACfiIAFMzfASSw5BAIBIo6O9Mz4jedjCn2tN92KvFKi3KodEUC8126kPIGOWd21/VjMGz30doXiHswRadklHlZflSXfbz0TcRlboXMsbae6eiyMvyrE25n+zb9gmYVLRNwte/YswNj+PUMnOTN+wLPYe6FiFRFg/PnFGrXKfRTpwRdUVEnDT2OIgDg0YCJEACJEACJNA8BBgR0TxcOSoJBASBgn6J6LRmq46I8HbBroiIJopVGvoQDlUStCIm0tvlBGS/rotWIn75Br32P68+DyUqWsVbE42JuP9t0t23XH8Bckb093Yo9iOBOgmE5hUg8fNf0OOrXxFSWKLb3BEUgx9MFSi21186s87Bqk9aw8Ob9YO/OCNe+fcTeO3Nd/HjT7/Uu5T4zp10FISkdNBIgARIgARIgASajwAdEc3HliOTgN8TMDQIXIKVygngqdnDQ3UXSxPLd4ZWC1VqfQgvowE8Xbs/tA/NLcCgFz/WSxGnQYYq1+mtdf/uf+i14CfdPf2c45B+1hhvh2I/EjiMgETZ9Px4Mbr+tAYmu11fl9SfPacchV3nj8OFO3fgvw8/fVg/d05cPuk81NSHcKePp22kDOf0G67Wjob1Gzdr3Yidqbv0MJICIhEZo4+iMKWnXNmeBEiABEiABLwhQEeEN9TYhwTaCAGjcobJ7kDUzr0oVNoEnlql1XBENE0jwoiIEGHF9mSiC2EpLUdlRDjW366qWnhpHddtx+DnPtC9s4f3w5Zp53s5EruRQA0CVVWIVyVgeyoHV4f1210XylRlm/Rzj8fuM47Rr125MESVmz11yiR89858Vzt3Ds4fMxoXnHEqnLEV7vRoWpv4uM5axLJpo7A3CZAACZAACZBAUwjQEdEUeuxLAgFOoCy+Qw3BynSvHBGOsDBNwdxEscqwao2I8nYkVNlzwRLXh7uNt1zkdUqKdU82hs16HaIPUZQQjz+ULoS3GhMB/pLm8n1EwFxeAYmw6bnwJ11O1hg2X5X9TT9/LPYfPxQO8+G6EKddciGSUwbj/WdeRF5mttGtzscwFaHwxOWX4uQRw5BRZwueJAESIAESIAESaKsE6Ihoq3eW+yIBNwnkD0pC55WbEb0tA7vd7FOzmc0o3+mj1IyydiJUGZGRiX5vfKlR7jnpSGQeM6QmVrePpUznyJkv66iKiigrVs+6DvYwZ0lVtwdhQxKoJiAOwcTPflIilMthCNCKUytzzBDsmjAOBwYnNcoqeehg3Prco/h54VfYvm4jdqxzapYYHfukDIKU/DxNRU+cnN+0SCpjTD6SAAmQAAmQAAkEFgE6IgLrfnG1JOBzAgX9EqodEelejX1QrLJpHyjCsw7o+cvaQUSE5NenPDZP59lLqdIt1030ir1ULRh+/xyEZ+apahvOMp3txZHjFTB2qpdAzNZ09PxkMeJ/Wecqo2tTDq09p41WDoixKFXRU55YeGQEJDrCsNz9WSgtLkYP5YCoZXRE1MLBJyRAAiRAAiTQXgjQEdFe7jT3SQL1EChIdpbwjFRCdEE2O6osh4db19NVnzbEKoOLShtq1vA1lVIQWu2IKO/U9jUi+rz9jS6vKVDW33UpbFZnekvDkA6/OuTJdxCjIlnE1t19GfJVFRQaCbhLIMjhQPyv65QDYglitzhFG6WvOB3Szz0Bu0872uvX5qFr6NglTp2SHxoJkAAJkAAJkAAJAHRE8FVAAu2cQL6KiBDTgpU7dqOgf0+PiNiqq2aIPkFQpQ1VwZ6/rYTkF7m+hS1r42KVsZtSkfThj5px6sSxOKBSY7yx5Le/Rpdl63TXrZefiayjB3szDPu0QwKSctHjm991CoYRiSQY8gb2UvoP45B5bAo1Rtrh64JbJgESIAESIIGWJOD5J4aWXB3nIgESaHYCFUr9viImEuIMiN6a4bkjosa3+br6gxeOiNBqoUrZbHkb1ogwl1VgyONvIUjts7hHHLZffpZX97fr4lXo8973uu/ecSOQ+peTvRqHndoXAUnhSVQCqT2++x0W9VoUc6iSvZnHpWDXxPGMqGlfLwfulgRIgARIgARalQAdEa2Kn5OTgH8QODCgpy7RF7Ntl1KvP9ajRRkREdJJvmmtjI7wqL80Ds926kPIhyJxirRV6z9ngd6rVBtYN+MyOCyevwXHbk7DEbPf04hyh/TBhlsubqu4uC8fEeiwYYcuvxn323rtBJNhJR0oQ5Xe3DXhBJR3jPHRTK01jA2/PXsTvj/yRdx3fEus4Vc8PHkOVtSYatSNr7sxt4frLP0FD037Gv2fmIVjfpyBWzLOx4K7xtSYlYckQAIkQAIkELgEPP8rOHD3ypWTAAnUQ6BQleSL/30jorZ6XjfDbg11jWrxsnKGoQ9R1qWja6y2dtBp1RYkfPu73ta2S89AYe/uHm8xfH8uhj/wqk6jKe7WGWtnXuWxpofHk7JDQBIQQdQuP69VDogliN5+8N91SddOWnxyz6lHwR4aANVVCn7F4zPmYpnyVXYZez0ev2AvHrzte/S99zEc/eOt+FfOCTivfDk+31kO229X4bpdD+LlczJq97khDgtufh7pvUOwZk0i7n4jBV9f8hmK+hbhzz9LEDF6Gl685WhEHjqX6vfV3f/EB2kVMIUfib/950acFC4vhzG4790xSH1HOQeWj8LsZ/+CJNiw7YOHce/CXaokcl9MuecuXNhlFUdbgr4AAEAASURBVJ6641X8fMCB0IRjMDZ4AxbVWOc9eB6PZPRC6Lp1SLr1RVxd8gJueXkF8tAZJ02/D9OPMsFkq0C5oQO8+0tMv2wOMsJG4bbZf8Pxoal4+75HMT/Nhoj+E3H/zLNh+WBGrTFvGxmQL18umgRIgARIoB0QoCOiHdxkbpEEGiMglTPEInftg6m8Eo7Q4Ma6uK4bYpVywlTqDPd2XXTzICwnX7csV2kibdGCi0pwxFPv6K1JHn7apPEeb1OiTUbMfAXBxaWojAhXZTqn+UxI0OPFsIPfEpDXWsKXvyLxi2UIzXX+u5LF5g1Jxq7zxyJTtERUOc5AsRVvvon1w2/GR1eW4MnrPsLn5z6Ev53xE+76zz3434EYTPrXxbikVy9kqAgFVEclrHj+X4f0uUFtNwvbw2/H228cgVD8iq8deQg78TF8cOFHuOpfy7ASRyPi0LmOHoVlaVE49d5/4JJ4m3JGNEAt+xu88Ekwprz8Co78+iFM/2QVLjz2d/xS3A9XPXs9RqMKXeI3IK/GOlPVW8L+nWF44NUXMTx0LZ6+cgtG3vUKphW/hCtU6tXEo7rVnjB0JO569RJ8esvj+Pj7HAzAG/gwZCL+O28ovvi/mfjwf2djsupxcMza3fmMBEiABEiABPyJAB0R/nQ3uBYSaCUChmCiCE5GqW9P8wcnub0Se1ioFraTvqIR4Y2FVqdmtFWhysGz30doQbH6BjoYG1SVDE8/CEo1k2GzXkfE3mw4zCaseeAalLbh6BFvXkPtvY9VvTak+kW3H1bAUlGpcUgK0L6xw7HrgvEoTDrkQ21AAEvHhq3lKMh8Chcudi7YlmrBJRNOQr8v38eWI67Ahb0O3UhdfQCpJ5N8hDghDItG797RSrE7CuEoUCfr6Fd6Cq49dzOeeuRWLOt7IWY9eAbqTRzbvBU7sB07rpuGuTJFfBpSb74Qf1v+NF66+XZ8ceKNeGqaMXeNx96DlBNCPU/7E1vKC7H/X9Pwg75sU+Mdcs86d0VC6EAc0RtYW1yCjRmq0snWXbjisvd1jy47q0swG2Mqh4szhWQobn33FoyrMS0PSYAESIAESKC1CdAR0dp3gPOTgB8QsKlv2Es7x2r9gpht6R45ImT59rAQ7YQwl3jniAirLt0pa2hr1l2lY8Qv36C3ten6C1Aa18HjLYomRMf1O3Q/0YQ4oKIqaCQgBDqt3ar1Hzqv2OQCUhEZjt1nHYv0c45DeYdo1/nAO+iGpB4mRA+4GXP+lgIUFALRNqx4/lNs7d0HyZsW4LWNx+Fvgzugo9pmps0Gmy2ujj4H8N6Hje2+jrnMNuQMvQNzT/kGM25ehCVpZyCpvn96iT3QBcU4/T8zcEF0BQoqQhBdcgAh0/6Ft49/DVc/tQgrp51RY52HrKdHAhJNURh05xO4ZbjaqvKNRKs4jZ9rNsveh4zyzdiwE4gYYEWvBFUOtWgcXvvHWYipKER5SBSyPqjZwZlCUvMMj0mABEiABEjAXwjQEeEvd4LrIIFWJlDYL1E7IqK3ZXi8EhG+k2gIbyMi2mpqRnhWHga+8onmmTn6COw95SiP2Uqpz25LVut+Oy46GfvGM+nbY4htrINJfeDuumg1ei5cgqi0fa7dSSWWXRPGYu/Jo2APcT+9yjWA3x1YcNylk/HTrOdw0WQbLOHH4vb7Y/DGL5GY8Oh9GK00Iv7vtU9x1lOnY+igSDz98vW4LechPH1on9dPd2Nndcz1UFfMv28Btin/alT/CzGuPieEjN7rdNxw2gY8ctM0vIkQ9P3LP/Bk9y9xx3PLUGKzoIuKiDhSxWWYa6zztpqrshyFqZcvx31PXY/zVXvr2OvwjmSU1LAOWIeZ13yGfNGIOKUTkuyX46w/nsO1l30EhCZhysP/wKga7XlIAiRAAiRAAv5MQEVTq3jqBqz7TRP11b+MPhGJHeMbaMlLJEACgUyg9wc/oO+8r1CUEI9fX7zLo62MueFxRGZkYsvV56o89HEe9YV6Czr5/BkwORxYrcQXsyWHvS2Y2teou55HB1XlolxVEvn15RmojLR6tLM4JSA6XKVkiO0/NgV/3HOFR/3ZuG0RkBK7iV8uQ8IXv6hyu8WuzWUP74d05YDIHjXIdS5QDs7enauXmqFEb0tU2hGNBEiABJqbgNXuQEJ1BOcXPTo293QcnwTaDYFlW9fjt20bcEzfI/DxzQ83um9GRDSKiA1IoH0QyDcEK5VDwVvBSosXYpUhBwq1E0Iol7eh1Iykj37UTgjZ14bbp3jshIjauQcpj86T7sjvm4D1d0zRx/zV/ghE7NqPXp8sRrfFq1UVBZsGIKVf944fgbSJ41Hcs0vAQwlTOih0RAT8beQGSCAgCMj7jVhlAAn3BgRYLpIEPCRAR4SHwNicBNoqgYL+PV1bi1ECaKKy767Zqkt4msvK3O3iaheWfVDZv6xz26iaIU6E5Le+0XvMOP0Y5Iwc4NqvOwfCZMQ/5sBcWYkyVUlkzYPXwhHcFkLt3dk92xgERPdBym92WrvNOIWKmAhknH0c0pUGREVMvdKJrvb+fpATakGnchtCHQ0GZ/r7Nrg+EiCBACJgvN8UhJgDaNVcKgm0PQJ0RLS9e8odkYBXBLRgparEEL4/F9FbMzxyRBglPL2JiDCEKh0mEypVCkOgm3xjnfLYPB3lUdK1E/685jyPtmQuq1BlOl9GqIoUsYWH6jKdFW2Ai0cQ2nFjs6p40f37FUj89CdE7M5ykSjs1VXpP4zDvhNHQKIh2ooVWMzaERGmQqVpJEACJNASBIz3G3n/oZEACbQegbbz10zrMeTMJNBmCBSo9AxxRESpyhmemD08TDc3e1G+0yjd2VbKUfb975f6A6R8v7tuxmW6ooi7LKUE6tB/ztV6G1UqZHSt0swoSgz8sHt399+e24XmFSDhs1+Q8NUyhBSVulBkHTkQ6Up3JUfpQLRFyw0NQe/icgSr136o0okpVw5JGgmQAAk0FwF5n5H3GzF5/6GRAAm0HgH+j9967DkzCfgdgfy+iXpNEhHhiblSM0q8SM3IOaCnKo8L/NKdHdZtQ68FP+n97FQVLgqUtoMn1v+VBei8ZqvusvGmvyI3xf30GE/mYVv/IRC1fTeGPPUOjp/6MPp8+IN2QthVGk76mWPwyyt3Y80D17RZJ4TchX3hwSg1B+kb0qW0Ema0corG0tk4f/JVuG1hTvWLZC2evvIqnH/zh0itPlP/w694WPV9eGl9LeT6DPw3rb7rPE8CJNCcBOT9Rd5nxOR9R95/aCRAAq1HgBERrceeM5OA3xGQiAixiL3ZsBSXQtI13DFJIRALrlahdqeP0SYsy6kREej6EBblhEl54m29rcKkbtg5+TRji249Jn75K3p+/otuu+u8E7DnVM9Lfbo1ERu1PgH1bVz8bxt0+c0OG3a61lPWIRoZ5xyLDKX/4GmFFdcgAXiwNdqKoXnFCFPfVHYssyErrPU/HOz47TdkTTgbcRvXYF14DKINrmlf495HP8YG5T/tMHoqZt8yBjG2PGz6fR2yO4UgRjXU72ji0PiwB2Y/+xfgnRm4JeN8LPCsGJExIx9JgAR8REDeX+R9Rkzed2gkQAKtS4COiNblz9lJwK8I5A9Icq0nelsGcof1cz1v6MAW5nREmEubEBER4BUzBr70CULzCmEPtuiUDIfZ/dzTTqv/xIAX52vEUorRU12Jhu4Nr/kPAXNZOXp8+zsSP1sK6z7jG3egoE8PVfZ2LPadMBxV7TBnOV2J3carbym7Kn2UDpU2VKgynvnB7v/78fkdju+JPnvX4ffis9Fr2Sp0GzQIGdtlFhuWvP8R0offio+uLMGT172O11aNwVlrH8I9SyMxoq8J24oAz6Rpfb56DkgCJFAHgZhKu35/kUv7wkIg7zs0EiCB1iVAR0Tr8ufsJOBXBByhwSjp3hnWPdmIUukZ7joiDopVlnu8n9AsZ2pGIEdExP+2Ht0WrdR733rl2ShOiHebQ2T6fgxTuhASnC6RFH/cOxWiD0FrOwSkCkriwiXaCRFcnb4kCQhZo49A+oSxTMFRLP7oGAFrph3RqqxeF+WQiKg0Yb81BHb9L6OlXwtH4NhRP+KXpX9g98puOO78MszRjoi9SN3tQHhCNCyh0egWU46VO9dj5fp89DnvPtw/oRCv3/QQ9rT0cjkfCZBAvQR0OkZJBSKrBXFFoFLeb2gkQAKtT4COiNa/B1wBCfgVgfx+idoRIRER7prN6qVYpQjU5RToaco6dXB3Or9qF5JfhMGz39drkpKn6Sqtwl0LKShWFTJegbm8EuWxUVj90LUeiVu6Ow/btQ6B2M1pSFTlN7ssWwcRIhWzK3G03SrtRhwQUlWF5iRQqZxvv8VH45jMAu2MkA8N4YVl2B8eglKLqcUdEsOHD8B778/D3tjxeDxiK+boZSYiuacJPxQWwFZegr35oUjq3Rux65UTsaBQBUzkIkc9uKysEAdsBdi9VUW/uJfl5urKAxIggaYREAdEuM2hNCEqlPaM08QJIe8z8n5DIwESaH0CdES0/j3gCkjArwgUKMHKbktWI8aDyhl29WFBzOJh1QypFGCqztcsj3NlYfsVj8YWI0KDwaKnoXQy1t15SWPNXdelTOPw++cgLCdfpXMEaydEudIIoAU2gSD1eo7/ZZ3Sf/gJsVsOqhJKxM+uc5T2xxmjUemm9kpgk/B89YYzol9+ia6kIR8euqsPEWJyrdIUhLLmTl2xKYdRlQOdR47C0S/+gewTj8Ig25/6XGyFDaOuuBIr73sWFy4GOh51Of47JFTp6RyN+a/8C5f83gNdlMOhqyrh23nYaJzoeA0PXLEaKcnx6n3Ojs5qK/JOaVXpJ3JMIwES8D2BMBVVFeyoclXGMGbYGRGKrTFWOiEMIHwkAT8gQEeEH9wELoEE/ImAUelByni6K1jpiohQIdWemJGWIX1KA1AjIuGLZRB9BzGpclHe0U1Hgvp2POXRN5Wzxxl1su7uy1DYu7seh78Ck4A4o3p8s1yV4FyK8GxnupHsJL9/T+xS0Q/7jx+KKpambPTmisNhY2yETsvoV1CKTuU23UfK7QXbq2CtDq9udCBvGxx5PTYeqTrbgaNfkgOx6nMqcgmhR+I/Txjn1SU5N/wKLH3hCt3S+Uudw3D85+nnapxThypz7dVXpK+67nkWW+2x+IwESMAtAjmhFiVMGY6ckNYXwXVrwWxEAu2IAB0R7ehmc6sk4A6BApWaIRoFEkoevWUXckc2Lr1mD3emZsj4lhIVHWB1Lw5ZogHE7OoPBFtUYOVsWlVlkf6vfarXv3fscOw/YZg+dudX33lfIe5/m3TTrVeeg6yjB7vTjW38kICITiaq6Ice3/1Ppdg4HXHy7ydzTAp2TRyHAwN7+eGq/X9J8qEhp3Ow/lazq4qKCFMh1tFKbC5YRSvQSIAESKA+ApVBJhQosdsyldK1T0VrMg2jPlI8TwKtT4COiNa/B1wBCfgVARGsFLFFEVGM3pruliPCVp2aIRsxqxKebjsiDKHKuFi/YtDYYsRJk/LYPJhViHV5hyhsvvHCxrq4rnddvAq9P/xRP99zyiikThrvusaDwCHQcd127YCIW77BJaco6Tm7Tz9aRUCMRyCLr/rTXZAPEVS396c7wrWQAAmQAAmQgG8I0BHhG44chQTaFIGCfgnaEWGkDjS2uVoREUonwt2o49DqiIiyAEvL6PPed4jevltjEV0IIzWlMU4iXnjE7Pd0s9whfXQ6R2N9eN1/CASp3ONuP63W+g9ROw7WRiiN76jEJ09AxmlHK7FRloTznzvGlZAACZAACZAACfgrAToi/PXOcF0k0IoECpIT0P3HlYh2U7CyVkSEB4KVYdW59OVKyC9QTKqJ9H7nW73cNFUhIy+lr1tLl5Kowx94FSaV417crTPWzryKmgFukWv9RsFFJUj44lckfrEUoXmFrgUdGJSEtPPHIWvMEJZcdVHhAQmQAAmQAAmQAAk0ToCOiMYZsQUJtDsCBUpgTywsOx/BBwpRqUpLNmS2GlUAPKmcERZgqRlS6UJSMqTwV3GPOGybenZDWFzX5IPsyJkv6+oaUjFh9axpbkdRuAbhQYsTiMjIUtEPS9Dth5UqDUcECAGHEpwUPZC0ieNRmNyjxdfECUmABEiABEiABEigLRCgI6It3EXugQR8TEAqZxiClTF/ZiD76EENz6A+nIngpHxQ98QREaocHWJlHQMjIqLf659BxAnlw+i6GZfBYWn8LVTC+SUSIjwzT7df88A1KO3SsWGevNqqBKQSipTf7Lxys2sd4kDafcYx2HXe8ao6SmC8Xl2L5wEJkAAJkAAJkAAJNDOB8kqnaLe70zT+V3T1SFkFB5DYMd7dcdmOBEgggAlUWcwo6tUNUal7ELM9vXFHhNqrXQn1iSPCXFLm3s6V4KMrNSMAxCo7rNumQvOX6b3tmHKa2+U2RRMiVlUfEVt/xxRWUdAk/O+XSUU8dFu0Sjkgfkbkrn2uBUoajZTf3KuERe2hIa7zPCABEiABEiABEiABEjhIILPQWb58SELvgycbOGrUETG4RxI27k5FZn5eA8PwEgmQQFsjIIKV4oiIUpUz3DGpGBCSXwSzmxoRIlQpKQ5i/i5WKakVKU+8rddaoMLxU/96sj5u7Ffv979HtyWrdTNxXuw/bmhjXXi9hQnIazbh86VI+PJXhBYUu2bPTUnGLtF/OEpFA6nKDTQSIAESIAESIAESIIH6CezOzdIXo8Mj6m9U40qjjogjevTWjoj8soN/oNXoz0MSIIE2SqCgbyJ6fPc7Yv50zxFhry7haVHlO92xsOqKGdLW30sdDp79vhYptKvSppKSIWkrjVmXX/5A37e+1s32H5uC7ZNPa6wLr7cggajUvei5YAm6LlkDk82mZ3aYzdg3bjh2if5DUrcWXA2nIgESIAESIAESIIHAJVBQctBXcISvIiKO7TcEH/6+COLhKLNVIswSHLiEuHISIAG3CUhEhJh8YxyqqluUN1Ji0xYepttbytx0RFQLVYq2hC3Sqvv646+ui1YifvkGvbQt10xAiQrVb8xiVBTJkCff0c0ODOipUzIa68PrLUBApQN1XrEZvZQDouMf21wTVkRZkXHWGGScfRzKO0S7zvOABEiABEiABEiABEigcQLbMp1l7aXlmUNHN95BtWg0IuKMYaPxj/mvobCsBJ+uXIq/jj7RrYHZiARIILAJFPbuDofZpMtNxqiSlZmNOSKsoXrDbqdmVJfuLPNjfYjQ3AIMevFjva+cEf21WGFjd1UqjQy/f47+lr00vgNEnNIRTAduY9ya87pol3T/foWugCFlVA0rSox36j+cdCTvkQGFjyRAAiRAAiRAAiTgAQGJhvh163rd4y9Hu+8raNQREaNyPK498Vw8/dX7yMjNxKrUPzEyqb8HS2NTEiCBQCSgBStVeHr09t2I2paOzGOGNLgNuxER4aZYpZGa4beOCPXtuehCSBUQqZiw/vYpDe5fLlrU3keoMp0hhSUQzYxVs65DpR9HezS6oQBvEJqbj8TPlP7DV7/p0qnGdnKG91flN8chZ+QA4xQfSYAESIAESIAESIAEvCDw9brfUa4yJ8TuOOtit0do1BEhI4kj4us/lmutCPF2JKjqGfHRsW5PwoYkQAKBSaCgX6J2RERvzWh0AzZPIyKyqkt3NhJp0ejEzdRAqid0WL9dj77xlotQERPZ4ExBDgeGzXodkRmZWkNi7cyrUNK98TSOBgflRa8IRCnnWa9PFqPL0rU6okcGsQdbsPfEkUr/4UQUJ8R5NS47kQAJkAAJkAAJkAAJHCQgQQoSrCB2zfhzkNjJ/SqbbjkiJCpi9qXTMenZ+3SKxofLf8SY/ikY2avfwVXwiARIoM0RKOjr1ImI2ZzW6N6kfKeYRBC4Y2E5zko8/ihUGaGcCf3e+EJvY/cpRzUaDSINBz/3ATqu36H7bLzpr5CqC7SWIxCkIljifl2v9R9iN6W6Ji5XDqSMc47T+g+iBUEjARIgARIgARIgARJoGgHRjvxGBSps3+/Uhjg95Wg8NOlqjwZ1yxEhI0o90Pk3P+xyRizeuArb9mXgDDVptNW9Eh0erYyNSYAEWp1AvoqIEAtWKQfhmbkoje9Y75okFUHMXFpWb5uaF8KqIyIaE8Gs2acljk12O1Iem6e+SbejVEVrbLluYqPTSvUF0SAQS1Uh/3tOParRPmzgGwJmJY7a45vl6PnpUv0aNUYtTOqu9B9OwL7xI+CwuP1fndGdjyRAAiRAAiRAAiRAAnUQ2KacD+KEMNIxjul7BGZfNr2Olg2f8uivM3FGfH/3M5g65xGdpiFhGK8u+RxRKmJCUjXiozsgUaVt0EiABNoIgehgjK4WrKxcvQEZRw2sd2OxDhskBqBK6SNkqCo7DZr69jq0unxnhvJfGHWHG+zTQhdHfrgEUtqxSs334/XnILNEpZCU1D959/Wp6P/aZ7pB+rA+WDxhNKoa23/9w/GKmwSilCjooG9XoN+SPxBSVqF7yT3LUPdgwxlHY+/gXs6RCpyRN24Oy2YkQAIkQAIkQAIkQAI1COSXFqNA/aTnZCJL/V1lOCCkiYhTPuuFE0L6qmhW9YnAC5uz6DM8+eV7OlXDi+7sQgIkECAEnvloIwZmFuP9kV3xxjHOCIm6ln7m+kxM/ykN+yNDcOXlw+pq4jrXuagC895cq59fd9ER2NXJP0LmB+0rwpMfb4JJreyDEV0xd0z9+5XF98kpwVPzNyLMVoUdHcNx24WDUW6R3rTmIiD3aOKafTh2Rx7M1ZOUmYPw/cDO+GR4V+yJcZaRba75OS4JkAAJkAAJkAAJtHcCEgUhwpTH9mtYzL4hTh5FRNQcSAQs5ecrFZbx9drlSFfREeIl2Z3XyDehNQfhMQmQgN8T2Bpv1Y6IfsoZ0ZCVhDg/Flor7A0109fiCp3fYMuT7KiQRtu3RIOwSgfu/nabdkKIU2HeaKc+Rn1zdyypxKxP/9ROiNzwYMw8bwCdEPXBauJ5i6MKx23Pw8S1+zCgxuswxxqMT1O64MshcSgK9fq/syaujt1JgARIgARIgARIoG0TEMeDmDgezhg6Wss2NHXHXkdENHVi9icBEggMArlvfID0q2+DKToKKXmb6l10wRc/YOd5V6g4qyAMs6XX204uHPjwc6RdfD2CVMnPoUXbGmzbUhfTr70Dua+/h6DgYAxY8x1CB/atd+oqpYPx55hzUbZORU9Yw9Hvl4UIGzq43va84B0BR34Bsl9+C9nPz0Xl7r2uQcJHpiDulmvR4aLzlDoqHRAuMDwgARIgARIgARIggQAhwL/gAuRGcZkk0FoErKOG6qkdBYWo2J6KkOSkOpdijqoWrVXZXlVlZQgKqz9EvjJ9jx4jJKnh1Ic6J2qGk4XfLNZOCBm627/uadAJAbW/1Iuu004IcbokffwanRA+vicVO9KQ9cwrECeYo6TUObpiHTPhdO2AiDhhtI9n5HAkQAIkQAIkQAIkQAItSYCOiJakzblIIAAJhA7ur50K4lwoWaGEAetxRJiiIl27sxcWw9KQIyKj2hGR2N3Vp7UObFk5SLvcqfQbOW4M4m69tsGl7JnxMCT6Q6z7k/9A1KljG2zPi+4TKFr0C7Jmz0HB59+7OpkiI9Bx6kWIv3Uagns1nC7j6sQDEiABEiABEiABEiABvyZAR4Rf3x4ujgRan0CQyQTryCEoXrYCJSvXIlbC4eswV0SEuuYoLALiOtXRynmqIsMZZh+c0K3eNi11YZdyQtizcyGOlF5vP69TS+qbO3fu+8h66mV9ueOVf9XfztfXlufdI1BVWYkD7y5UDohXULp2o6tTcM8eiPv7Veh07RSdFuS6wAMSIAESIAESIAESIIGAJ0BHRMDfQm6ABJqfQPioYdoRUaoiIuqzmhERDhUR0ZC5UjNaOSIi97V3UfjtEr3UhOf/CUu3LvUuu3jJr0ifdqe+HnnKCUh85Yl62/JC4wTsOXnIfvFNZL/wBmz7D4ocW0ePVFEp0xB7wZmA2aiL0fh4bEECJEACJEACJEACJBA4BOiICJx7xZWSQKsRsB7p1IkoXr663jWYlZilYXalJ9GQVVRrRAT3aL2IiMpdu7H7ln/oZUafdxo6XDqp3iWXb92JHROmqlAPh9aP6K10IfghuV5cDV4o37IdmU+/jLx581FVXu5sq6JuYiedhfg7boA4vWgkQAIkQAIkQAIkQAJtmwAdEW37/nJ3JOATAtbqD4eiEyEfJEMHJB82rlTAEPFGEXO0S2pGPValrtv27tdXg1srIkIEJ6f8TQshmjt3RM/Xn65ntYA97wB2nD5Zp5uYO3VA8jfvwhRhrbc9L9RNQARBRf/BiECRVlKJRVIv4qZfA39I06l75TxLAiRAAiRAAiRAAiTgawJ0RPiaKMcjgTZIQEpZShUMLVj5++o6HRGybXNsjP7g3lBqhq1aH0Lat9aHz8zHX0DJrytlCej15r9h7hCrjw/9JfoFO865HBVpGQgKCUHyl2+12poPXVsgPK+qqNCRD+KAKNv4p2vJUi0lbvrV6Hj1ZIgYJY0ESIAESIAESIAESKB9EaAjon3db+6WBLwmEDF6BIqUTkLJyj/Q4bIL6xzHpEp4SgSBFqusswVQWcMR0RrlO8v+2Ii9Mx/Xq+s07VJEnT6+npUCu6beipLfVunrvd56jmkD9ZKqfUHrP/xnrtJ/+C+kKolh1jFH6uoXMROV/oNKx6CRAAmQAAmQAAmQAAm0TwJ0RLTP+85dk4DHBMJHDXU6IlasrbevWVWeqFRXpXxnfWboQ4i4pckaXl+zZjkv39CnXnyDWqAdIX16occzD9Q7z/6HnlHVHBbo610fvBMxk86uty0vOAlo/YcnX0Te258c1H9QgpNa/+H26+nI4QuFBEiABEiABEiABEhAE6Ajgi8EEiABtwhYj3SKCJau3oAqJdooZT0PNVN0pD7VYEREtVBlSCvoQ+z9v0e0xoVoWSS996JONzl0D/I8f/4X2PfgU/pS7OTz0eW+m+tqxnPVBOrVf7hmMuJuvpbpLHylkAAJkAAJkAAJkAAJ1CJAR0QtHHxCAiRQHwGriogQ04KVG7YgLGXQYU0lIkLMXlh/1YzK3Xt1m5bWhyhavAxZz8zRc3e5dzrCqyuB6BM1fpWqiI+0S2/SZ6zHjETPuc/UuMpDg4BUvMh762MtQEn9B4MKH0mABEiABEiABEiABNwhQEeEO5TYhgRIACHJSbrKgUOV5ixZ8UedjghJtxBrSKzSSM1oyYoZsua0S/6u1xY+MgVdZ96qjw/9VZGaju1nXQpJ4QjplYA+n7+JoODgQ5u16+ei+ZD9whvIefFN6j+061cCN08CJEACJEACJEAC3hOgI8J7duxJAu2OgPWoYSj6YakSrFyLjlMvOmz/ZiVWKdZQ+U5DrDIkodth/ZvrRMbf74VtXyaCQkN1SgYsh7/1ibNi++lTIEKLUv2jjyrTWV81jeZapz+PK1EPWc+8oqMgxFGjTaXnaP2HO26g/oM/3zyujQRIgARIgARIgAT8jMDhf4372QK5HBIgAf8hYB3ldESUqoiIuuxgRERRXZf1OVdEREL3etv48kLBwm+UeOLHesjuj9+nIzsOG1+JV+6YMBUV23ZCnBQSCRHar/dhzdrjCa3/oBwQhd/95Nq+3OdO106h/oOLCA9IgARIgARIgARIgAQ8IUBHhCe02JYE2jkBa7WuQsnq9XUKVpqrxSrrq5pRZbPBtne/ptgSqRmSRrDrqtv0fJHjxqDz36fWeQfTp92J4p9+09dEE0LKTLZn0/oP8+Yj69lXcaj+Q+ebrkKna6bAFOmMfmnPnLh3EiABEiABEiABEiAB7wjQEeEdN/YigXZJQCIitCmHQtnajQgfMaQWB1OkoRFRd0SEbY/TCSGdWiI1Y9fl02E/kK9TLXq9/XyttRpPsp58CblvfKCfxt/9d3SYMtG41O4eDf2H7Bf+C3t2rmv/4piJv+VaxFxwFlBHtRRXQx6QAAmQAAmQAAmQAAmQgBsE6IhwAxKbkAAJOAkEKwFHU3QUnIKVaw9zRBysmlFcJzIjLUMuyljNafJhuvDbJXqKnq8/DUu3LodNV/D599gz42F9Xj5kd3t4xmFt2sMJrf/w9MsqheUTLdSp90z9h/Zw67lHEiABEiABEiABEmgVAnREtAp2TkoCgUsgQn07LroBpSuVTsS1l9TaiKlarNJRWHdEhCFUKc4MkzW8Vl9fPqnYnoo9dzykh5QIh+gJpx82fNkfG5F60fX6vJTy7PXWc0BQ0GHt2vKJevUfrpmMuFumoaVLrLZl1twbCZAACZAACZAACZDAQQJ0RBxkwSMSIAE3CFhHDdWOiJIVaw9r7YqIUBUo6rLK9D36dEhiMwpVOhxIvfgGiM6BpWs8Ev7zr8OWIhU0tp9xCarKyhDcoxuSv3xLV9Q4rGEbPGHoP2TOnoPyTVtdO5RypZ2nX039BxcRHpAACZAACZAACZAACTQXAToimossxyWBNkrAeqRTJ6J03WZUVVYiKDjYtVNTtVhlVWlZnWKWFbv36rbNKVS5/+HZKF21Ts8juhASfVHTHMUl2glh25+lozKSv3kH5s4dazZpk8da/+E/c5H94pu19R+OGYn4W6dR/6FN3nVuigRIgARIgARIgAT8kwAdEf55X7gqEvBbAuEqIkKbEqwsXbMB1qOGu9ZqRETIiSqVnhEUE+26JgdGRERzhfxLusi+h57Rc8YpccXI8cfWmh8qWmLnBVejbN0mnYaR9PFrCB3Ur3abNvaM+g9t7IZyOyRAAiRAAiRAAiTQBgjQEdEGbiK3QAItSUBSGSxxnSDfsJeu+KOWI8IU5ayaIeuREp6mQxwRhlhlSILvUzMkzUJSMlBVhdAByej2yD2HYdl9+4Mo+v5nfT7huX8i6tSxh7VpKycKv16ky28agp2yLym52WnaJYi7+VrqP7SVG819kAAJkAAJkAAJkEAAEqAjIgBvGpdMAq1NwHr0cBR88QNKVq5FpxqLMcQq5VRdgpWGWGVzRETsVuKUFTvSALMZSe+9iKCQkBorA3Lnvo/sf7+mz3W+6Sp0uuHyWtfbwpMG9R9uUvoP107Rzoi2sFfugQRIgARIgARIgARIIHAJ0BERuPeOKyeBViNgHTXM6YhQERE1rWZqhv2QyhlVKpVDRCLFfC1WKdUfcpT2gVi3h+5E2NDB+tj4VfjdT0ifdqd+GnnKCejx9APGpTbxqPUfnn/dqf+Qk+fak3W00n+4Tek/XHiO6xwPSIAESIAESIAESIAESKC1CdAR0dp3gPOTQAASCK8WrCxbX1uwsmZqhkOlZtQ02+59rqe+FKu05x1A2uXT9dhWVVo0fsaNrnnkQCpDpCpdCNGHCB3YF72VLgRMplptAvWJaF1kPv0yDry7UAuH6n2oiJDYC87U5TetSoiSRgIkQAIkQAIkQAIkQAL+RoCOCH+7I1wPCQQAgfCjnJUzRI9B60QoB4BhokPgKCpWGhFFxin9aOhDyBNfOiJ2XXWbrgJhsoYj6Z0XtAilMbE9OxfbT58CR0kpLF3ikPzNuzBFWI3LgfmomEtaTJYqv1m06BfXHsxKj6PjNZMRN/0a6j+4qPCABEiABEiABEiABEjAHwnQEeGPd4VrIgE/JxAc3xkiWlmpynGWrFgLiUQwTKIixBFxqEaEUTHDHBujy2Ya7ZvymPfWfBR8+q0eosfshxDcs4drONFL2H7WpXqNQWFhSP767YD+gC4lUXPf+EAJUM5B+dadrn2GJCchTmledLx6ss+4ugbnAQmQAAmQAAmQAAmQAAk0AwE6IpoBKockgfZAwKrKeOaLI0KVzKxp5qgI2PaqqhkFh0REZKiTynwlVGnbux8Zf79Xjxl12jj9QVw/kV8qaiDt0psg5TzFkt5/6TDdCH0hAH5V7tmH7OfnIueVtyFpKIZFjD0G8apEafR5p9WKAjGu85EESIAESIAESIAESIAE/JVAUJUybxd34MABLFy4EAsWLEBqairWrFnj7VDsRwIkEGAErkEU/m6KxvaqSkyqcopQyhbeDorDEUEh+LcjH6+jtjPCV1sMUgPNCeqMUUGhyK2y6/nz4HANf1NQNK4OitLPn1Hr+G8zrcM1IQ9IgARIgARIgARIgARIoA0TGD9+PIYPHw55nDBhQpN36lVEhDggnn32WcyePRtyTCMBEmh/BDaiQm+6NywIVUfl1QhK4PRtWoOUIKTXbs6GeV6KSO2EkFb3VeWhphPiTIS7nBALq4rphGgYJa+SAAmQAAmQAAmQAAmQQKMEFi9eDPkRH0BSUhKeeeYZnH/++Y32q6+BxxEREvUwceJEHQFhDDpu3DjtHZEFiZeERgIk0A4IFJWgw4RpeqOFz9wH29CB+jhi5tMIWbYK5RNPQ8nfL3eBSL9+Bir+3IGOUy9Gh8smuc57emDetQdR19yDILsd5WeNR8nt17iGsGzYishbH9bXKtV6ip/6P1QFQIUMh9J/KPzyRxz4+AuV1nIwuiS4VwJiJ52NqNPHISg42LVPHpAACZAACZAACZAACZBASxEQB4T4AeQnLS3NNe2VV16pHRKxsbGuc+4eeBQRIQsQJ4QRBSEhGW+88Qa8mdjdBbIdCZCA/xLYpD4oV6RlYIDdjDgVpiW2q/fHyFOOiG7RMUisPifnN+SXw6ZSKXqOHYsONc7LNbfNZsOWUWeiTDkhpPJGynuvuKpgiIDj1kk3wq6uhfTtjZQln8AU7UzPcHv8Fm5YqXQzRHwy59V30amg0Dm7YiSaF3FK/yHq9PEtvCJORwIkQAIkQAIkQAIkQAK1CUg6hmHiExAHhDgkxBcgzolFixZ57BMwGQM29mhEQogTIiYmBp988onWhqATojFyvE4CbZdA+ChnGc+SlWtdmzQpsUoxe2Gx61yVciDYMrP186aIVe6d+TjK1m3S4oy9VKlOoxSniDjuOH0y7AfyIVU5kr95x6+dECW/rULqRddjY+/RyHr6FTiUEyIoNFSV35yCgRuXoM9Xb9MJ4Xr18IAESIAESIAESIAESMBfCIhTQnwDN998s16SHJ944okeL88tR4Q4H4xICHFCiDBlU/JBPF4lO5AACfglAeuRQ/W6SlUJT8PMqnynWM3ynUbpTjkvkQzeWPGyFch8/AXdNf7uvyPi2FH6uKqyEjvOuVxHZgSFhKDP528iJCnRmymat4+K1DjwwWfYeux52Hrcecj/6HMFyQFLlzh0ffBOHJG+AokvP47QAcnNuw6OTgIkQAIkQAIkQAIkQAJNICDBCKIVMXfuXD2KOCNuueUWj0Z0yxEhk4jzQYypGBoDf5EACSgC1uqICEmLcJSWaiamSKcjwl54sGKGpCAY5k1EhKO4BGlT/qaHCEsZhG4P3G4Mh11Tb4VEGIj1eus5WMcc6brmDwcS7ZD11MvYmDwGaZNvQMly51rDhw1Gz7mzMTjtd3S572aYO3Xwh+VyDSRAAiRAAiRAAiRAAiTgFgFJ0TAqaEgxC8Nn4E7nRh0RMpgMKiaTMBLCHaxsQwLtg0D4KGdEhOzWcAaYo6sjIgoOOiIq0vdoIOYOsTBZwz2Gs/vmmZCoChFsTHrvRcDilLfZ//CzOPDuAj1el3/cihgl7OgvVrEjDbtv+Qc2JByJPXfN0utHUBCizz0VyT98gP6rvkWHyy+kCKW/3DCugwRIgARIgARIgARIwGMCEqggWRNinkRFNOqIEDEKQ5xSJqGRAAmQgEHAHBONkOQk/bRkxR/60VSdmlFXRIQ3aRkFC79B7tz39djdH7sXoQP76uP8+V9g3/1P6OOYC85C1/sPRknok630q/jn5Ui94Gps6n88sp97HRLNIVoWnW+8EoP+XIreC+YicvyxrbQ6TksCJEACJEACJEACJEACviNgpGnIiAsXLnT5DhqbodGqGQsWOL9tlBKdFKZsDCevk0D7I2BVUREV21NRWi1Yaa4Wq3TUEKuszHBGRIQkdPMIkC0rB7uuuk33iRw3Bp1vvkYfiyZF2qU36WPrMSN1SoZHA/u6sRLjzHv/U2TNnoPSVetco0saSue/X4XO0y6BSTltaCRAAiRAAiRAAiRAAiTQ1ggcWlXDnSyKRiMi1q51itANHz68rfHifkiABHxAwHpkdeWM/znfK1wREfkFrtGN1AxPIyJ2XT5dV8KQMXu9/bweryI1HdvPuhRVFRUIUeVDRZxSKk60hkm1jsxHn1fVL46BrNVwQliPHgGp6jF4x2+Iv/MGOiFa4+ZwThIgARIgARIgARIggRYhkJSU5ErPEOFKd6xRR4QhOEFHhDs42YYE2h8BiYgQEweBXTkfDEcEqqpQVVamrxlilZ4IVebMeRuF3y7R/RNffBSWbl10mcvtp0+BPSdPz9Pnm3chuhMtbRXbdiLjxnuwIXEU9t77KCr37ANMJsRceA76LV2Ifr9+htiLzgPM5pZeGucjARJoBgJrZyQriZcg/RPa7S94K1MmycQnV/ZHhEXOh6Lb+EewokLOv4VzVNtz3pLjGrb9IQxV5y0nvoQ8fXotZiQ7xwyyRKD/lZ+oEZW9dY4a7xw1iljDcwR1vw6LXXMmY4bTH6x78hcJkAAJkAAJtCQBw19gyDo0NnejjghjAPFy0EiABEjgUALhRx+MlipZvhpGaoa0s1enZxjlO0MSuh/avc7nlbt2Y89tD+hrsX85B7GTz1eD2bFjwlSIE+D/27sX+Ciqu//j35BAuEpAEBUUCNa7BtC2Vv8ItGJFfQqxIl6gCWpRa1tAfMBaK0FrFVoL1F6UagmF2oJUscU+1ksB71YQUlpaq9y8AyogBEgI5D+/SWY5rLvJJtkke/mcvjZ7dubMmTPvSajz23Oxh/7cx+co+3O9Ix7fWBt3/e1FbfifAv37hAH6+P55qtyzVy0O66CuN43VyRteVa8F9yfcqh2NZUG9CKSdQO4krS57R3f0WqQp95Zo2/0jNWJRb83YWKbK0mW69J1b9bWbXorKsu53i7S2Xz+d/PwCLaiKRPhlcyetVtnG23X43JvlVXtIqvkc7dTu04d0073rDjmGDwgggAACCDSHQBCIiFuPiOa4CM6JAALJI9CiTRtln9DHb/Bub+6GTO/BPEgHvCU8K735E2yuB0stj4lhjogDB7TRW6rzwO49yjryCB0zu2pCynfG/q9Kn3vFr8e2tfPmjGiKZENAPileqDf6DtG6ISP16V+e9U/bKrenus+8Q6e8s0JH//h21aW3R1O0m3MggEBjCOzUrlLv3zJvBZ8nlizT/kGjNbZHK28t4y/p2ktz9cFLy/V2xNOu0+8WrdHpI+7Q0J7Pa4EbibDy3r+VpWrp1XvowTWfo5vGfn+k1t81TvO3ecfSAetQPD4hgAACCDSpQF3nk4y5R0STXgUnQwCBpBJoe2bVPBF7Vv7j4NAM7wpswkrr3RCkljH0iNjszbmw++WV/iE2L4T1ONh67wN+MMA2dp14nTqPGRlU2WjvNvxj8x0ztLbnF/TONTdp75p/++dqd+5Z6v3oQ/4KGF2+c7VatG/XaG2gYgQQSCCB9dPVN/s0/XRvge7+7sl1a1jJbM1dk6shF16sAWe11vMLFlQPz5DWT++r7JN/It02X7fXsdqWF87QD/s/qUm3bFXvnnVrEqURQAABBBBoTgECEc2pnzLn3qaVix7Ug4tWhv7DKmUujQuJSaDtGVXzRFiPiBY5B1eH2P/pTgXDMqyiVr2PqbG+vf9Yqw+L7vXL2EO+LXP56ZJn9P6kO/1th130FR097bYa62jozrI31sl6X9j8Dx9OvVcVWz6SsrLUadTXdfyKJ3Xc0kU6bNhX5Q3ibuipOB4BBJJJwIZmVFao9L/Fyj9CuujiQcpcNk+z3/Umadj9svf/get11NkDdWyEayp5eJHWe/+b3jdD//NwqfY7wzNyJ72m1yYcrbXLX9H2sGNrP8cRGnvHNdJDt+k3m8MO5iMCCCCAAAIJLEAgIoFvTkI37ckCdfQm57pw7k6vmW9r4eRv6puTF0bpkprQV0Lj4iDQprpHhE1KWfHRJ8po5XVV9tJ+r7txubfNUubhnZThPdBHSzYEYuPlN/hzQdhQj6PvuVUWmNg48nr/kNanneTNwfBAowUAdv51mdZfcKX+c/JAffLQ71VZVqbMzjnqdut3dcqmv+vYubPUpt+p0ZrPdgQQSDOBTtcv0COXbtCEXtnKaDdIi475kf7007NDCk+Mrp6I8uIf6WELUtz4ojeHrzeJb9mjuqy1Dc8IVhZqqTPvWaCJWybq3Mkr5M89WV1LbeewYq0G3aPpF1RohzdkhIQAAggggECyCER/KkiWK6CdTSBQrmXX9dLg96arcsmoqvNdMFc7Kuc2wbk5RTIItOnvPaBbDwHvP7L3WK+IDu28lS3Kq4ZmvPO+fwmtetQ8P8T7k++S9UawlSZ6/eFX3rKdn2rdBVf5K29kdeuqPk/+ThltWseVw4INn/x2kbbOelBl/34zVHf2icep67hr1Xn0pXE/Z+gkZBBAIGkE8qatU+W08OYeofzi/6q0OHz7KC2prP7/ytCuWxU6vFW+FuyqqNpzfWVo+7T/lFXnl+jg4bGco5NGLdml8DOGTk0GAQQQQACBBBSgR0QC3pToTSrXirsH6ajs6m9ZvAc/W06sj7deV/m7C1V4Skdl2zZbBmzEb/SGfa1SMll9Mtqr/5DguCy16zdG376oR9WSY1lddM7d1d/AvHqrTu/ofbMTqmO+15H0Rd18Sld9dbb3rfYTo/19/pJk/vJiEZYn8065ZX6+unjffJ9408vaHf1i2JNCAjZhZeuTj/evaM+Kf4QmrLTJKve9V9UjouUxR0e94l3LXtJHP3vI33/k7TepVZ9efhCiYvNWtWjbxg9C2MSV8UoVH27Rh7dP94dfvHv95FAQosOQc5X7xDyd+K9lOnzsKIIQ8QKnHgQQQAABBBBAAAEEHAECEQ5Gwmffvldjb12ujMKlKit7SmO6ei3+8gNaM6297rlwpObu/YaWlVaq7JXrtH/RWH3jZ29XX1KpVq3vrz/vLNPSsUdo9+piPdptjrbuXqvbTv5YL/3gLj1mJb94rR5+6l2Vet9ql/7yLL25qFATF5yjn/zrFxpi+y/yliv09gWdImxTeNq3YrLOLVysiguK9dxPv6S24QX4nLICbc+snidipfWIaO9fpy3fWV7dIyLaqhIHvHkkNl31bb98m/6nqdstN2rDJddUTQ7pBcV6eRNDtj69jjO4RVG2CSffHjNea3t9UZvv+pnXa2ObMrKz1fmaK3TCmr8p98mH1eGCwVGOZjMCCCCAAAIIIIAAAgjEQ4ChGfFQbMY6Mr2lDsv0sv6+xhrxc53d7ucHW7P14ELlPYddqTNt3P6A/tLsJ9T/y0PU1vt4gs2qtWaf9nlvW55+QN8e83O98N5u7a+uZZ/tiDXtfFyjzntDb5zwPa15dJTi9/11rA2gXHMKtDnDWzlj7iPa/eoqZR+f6zfF7xERGpoRuUfEO9/6nqyHgvV8sCEZ70/6oXY987x/fPd7p8h6KTQoecGzT594VltnzJb1vAiSDffockOBunyrwJ+/ItjOOwIIIIAAAggggAACCDSuAD0iGtc3vrUfO1G/vfMMbZs9WNnZQ7Ug51LNvv9qdVKOOtoKguc/pDLvocufDMt7XzfNezCsTpnhi5MHO0LvSzQhf7qWZ1+tv20rU+W8i0J7Ys5sfUulnXsoc+0vdcvCLTEfRsHUEAh6RFRs/dibrLKlf1H7dx2crDLS0IztC/+s7b9f7Jc92gs67HruVX++BtvQufAydfHmaahvOrB7jz765Vz956RztWFYYSgI0SbvZB37mxk62ZuAstsPxhOEqC8wxyGAAAIIIIAAAgggUE8BAhH1hGuew97SH+avVO7t//GCDbaE2CO6+gSvW4PO1xXDOkrPTtctL9usDLu14W+PaFkwMiOmxpZq916v4BG9dWJOhV5+9d/OUT3U3YaBfLxFW7z5vHfvduf0dorlTtSS9Ut0ywm79MT1o/UbYhEOTupnbViFP2Gld6m2AoalAzt2ar+3ioal8KEZFR9s9pfJtH0dzh/oLe15bOhz+/MG6JjZP7ZddU773v9QH3zvR1rrLb/53ne+r7I3N/jtOuzi89TnmQU6/vWn1KlghDJqDc7V+dQcgAACCCCAAAIIIIAAAjEIEIiIASlxihytvqd20to7TqyaUNIbP5991AjN39JKF895RrPOP6AHBrTz9rXTifkz9NKuurQ8X9+/pa/avjZR3bK6qmDnV3S+9bLw0yB968bqfRkddM7Mt4IdEd7z9MPnZmrA3qc09tzJWhElZhHhQDYluYA92Lc5/ST/Kg6U7vHf93lDLoLUKmyySpsXwoZuZOZ01JFez4SN3rwQ8oYa2YoVvb15IWz1jLqkPav+qU2jvq21vc/Slum/9Fbd2OEP97ChFyf99wX1frxY7QefU5cqKYsAAggggAACCCCAAAKNIJDhdeOvrKleW0HB0tKlSzVo0CA/z4/mEXj7J19UblGOZq//q672JmAof3eaBh5ziw6fV/MEks3TWs6ajgLvjP1fffLQ79WqZw+Vb3pX7c7qr9JXXvcpTi/b6K3oUjUtzUf3/Ubvjb/d396zeJbe//49/uoamYd30glej4Xw3hNRLb3AxY7H/+rP/1D64muhYnZ8lxvHqMt1o9Si42Gh7WQQQAABBBBAAAEEEEAg/gJFRUWaOnWqBg4cqGXLltV6AiarrJUocQqs97qY71c/Vfjd3iv03989oTU6SoW5idNGWpLeAm3PON0PROzzhl1Yqti2w3/P7NI5FIQoX7dR70++y9/eefTXteW+h/wgRIY3mWqfv8yPKQhxYFepf56tXkCjfMPBMUhtv9BPXcd/UzmXenOc1LFHhd8gfiCAAAIIIIAAAggggECjCxCIaHTi+J1g0J0PqOCFQn3nmGxdp0y17d5XhQv+rp+eHb9zUBMCDRFoe2bVBKmVZd6YHK831YFPq8YHhYZlVFRo4+U3qLKsTDZ5ZYU3h8Self/wT9lz/n1qU318tDbse/cDbZ05Wx8/9Aev7p1VxVq0UMdLLtQRXgCi7ZfOiHYo2xFAAAEEEEAAAQQQQCBBBAhEJMiNiKkZR+Sr+F/eK6bCFEKg6QVa2xwRNvyiet3X/aU2eerBiSo/vHOG9rzurzWr9oPO1rZ5i/z9R945SR2/7vViiJJ2v7xSW2b+Wjse/Ys/j4QVa3FYBx1+7RXqOu6bMfWiiFI1mxFAAIFaBbZv366SkpJayzV2gY4dO6pv376NfRrqRwABBBBAoNEFCEQ0OjEnQCB9BPwJK73lMXevKJHNLlO5t8y/eOsRYT0fNt/1M/+zrWARBCFyrhiubrd+97NI+/dr+x//4s//sPvvq0L7bXWNrt+9Rp2vvlwt2odmVA3tJ4MAAgjEW2D16tUaPHhwvKutc32xjrutc8UcgAACCCCAQBMLsGpGE4NzOgRSXcCGZ1RNcetdaXXPiJbduvhDMrx1Z5Xdp5c+fXKZz9DWm8zy2DkzDiGxIRdbf3K/1vb5kjZdcYOCIES7AV9Urz8+qJPefFFdvEAEQYhD2PiAAAJNJDBs2DCNGzfOP5v1UJgyZYry8qqGpdl2209CAAEEEEAAgZoF6BFRsw97EUCgjgI2YeXH1ccEi/LsXPaKytdv8ies3LfF2+vNFdHquN7KXfJbWS8KS7Z/66wH9cmcBTpQPaTDhnl0Gvk1dZ0wVm36nVpdK28IIIBA8wksXrzYP7n1krDVxGyWcBsuMWHCBM2cOdPfF6w41nyt5MwIIIAAAggktgCBiMS+P7QOgaQTCCasDDX8QKV2LX3R+1ipFh3aab+3kkZmTkcRk73GAAAdNUlEQVT1+evDyuyUo9LnXvEmoPTmf/jTU16RqtWEMzvn6PDrRqvrt8co60hvrVoSAgggkCAC+fn5Gj58uJYvX65Nmzapd+/efgBi48aN/rJlCdJMmoEAAggggEBCCxCISOjbQ+MQSD6B7NNOVKXXkyHDm+PBkoUWMvwgRAc/CGG9HHIfn6PSF1/Txku/qT2r/umXsx/ZJ/TxJp+8Vp2/MUIZbVqHtpNBAAEEEkXAekQEvSIs+FBYWBhqmvWOICGAAAIIIIBA7QIEImo3ogQCCNRBIMNbTrOtt3pGEGDwVvH0VtJoqQM7q5byzMkfqg3eEp4VH2wO1dr+vAH+8psdhn45tI0MAgggkCgCNvRi6dKlzd6cnJycZm8DDUAAAQQQQCAeAgQi4qFIHQggcIhA28/3DQUi/C4R3pwQljKyMrX9kT9X5bOz1emqfH/+h9YnH+9v4wcCCCCQiAIWALD5IEgIIIAAAgggEB8BAhHxcaQWBBBwBFp/Lvfgp+olNPzZHyr2K+uILupyQ4G63FiozMM7HSxHDgEEEEhQge3bt6ukpKTZW2erdFjvDBICCCCAAALJLkAgItnvIO1HIMEEKsvLtXX2vKqJJ21chjcBpQUh2njDNbqOH6tOVw5XRqtWCdZqmoMAAghEF7AVMgYPHhy9QBPtGThwoJYtW9ZEZ+M0CCCAAAIINJ4AgYjGs6VmBNJOYPfLK7Xhkmu0b8tWb4LKqpTRIlO9F/1ah+VfkHYeXDACCCCAAAIIIIAAAgh8VoBAxGdN2IIAAo5AcXGxv0SdsylqduezL6h083pvLogsjd7fWm28rhCvndhdj/3jVcleMaaePXseMhN9jIdRDAEEEEAAAQQQQAABBJJAgEBEEtwkmohAcwpYIGL58uV1a8I+6VfBEf9+Xyr6e/AppnfrfuwuiRfTQRRCAAEEmlhgypQpCl+yM8NfKuhgQ+JV5mCN5BBAAAEEEEh+gRbJfwlcAQIIIIAAAggggAACCCCAAAIIJIsAgYhkuVO0EwEEEEAAAQQQQAABBBBAAIEUEGBoRgrcRC4BAQQQQAABBOou4A47c1ejcPO2YsZVV11V98o5AgEEEEAAAQSiChCIiErDDgQQiCRg69gvXrxYgwYNirS7ztvsP/gTYVm8Oje8+gBrf35+vrZv317fKmI+bsaMGRo/fnzM5SmIQDoJbNy4MTSxrv09WgDBUrR8JBubKLdXr17+Lnu3l81Zc+KJJ+oXv/jFZw6xQMbUqVM/s93dEK8ybp3kEUAAAQQQSHYBAhHJfgdpPwJNLNC3b9+4BSGs6RbQsP/Qd7+ZbOJLatDpLBDRFEEIa6QFgAhENOh2cXASCVggYceOHX6LLR/8nVnAwV6W3Ly/IeyH/dsSJPu3KycnR8OGDVOQt31uPigb/u72kHD32fZo+4Jy8SoT1Mc7AggggAACqSBAICIV7iLXgAACCCCAQIILuMFG9+HdDTK4+fDLsd5YFjSwZAEFyweBBreHlpsPr4PPCCCAAAIIIJAYAgQiEuM+0AoEEEAAAQSSRsB6J5SUlPjtrWnogxtwCL+4aMMggiERVj4IOIQfy2cEEEAAAQQQSG4BAhHJff9oPQIIJJjAlClT4tqi4uLi0Lj3uFZMZQg4Au4wCHe4Q7S8c2gom5eX5wcObEMw3MF6LAR52+4GGewzCQEEEEAAAQTSU4BARHred64aAQQaSaCoqCiuNds3yps2bYprnVSW+gLuMAh3uEO0fLiIOwzC9gVzuQT5oHy6D4OwwGP433xGRkbA47/Hq8whlfIBAQQQQACBJBcgEJHkN5DmI4AAAgiktkC0YRB21e7QBzcfLhJtGIQ79MHNhx/PZwQQQAABBBBAIJ4CBCLiqUldCCCAAAII1CJgwx2CXi7Rhj648y5Eqi7aMAh36IObj1QH2xBAAAEEEEAAgeYSIBDRXPKcFwEEEEAgJQTc+RWiDX1wt0e66GD1B9sXDHewZSaDvG1351qwzyQEEEAAAQQQQCBZBQhEJOudo90IIJDwAjbR5JgxY+rUznHjxmnmzJl1OobC8RNwh0FYre5wh2j58LO7wyCC4Q4WaAjyVt7Nhx/P5+QRsLk4pk6dWmOD41WmxpOwEwEEEEAAgSQTIBCRZDeM5iKAQPIIuA+usba6PsfEWnc6los2DMId+uDmIxm5wyCC4Q4WWAjydoybj1QH21JTwP5ea/ubjVeZ1BTkqhBAAAEE0lWAQES63nmuGwEEGl3AejYUFhbW6TzW/Z4UXSCWYRDuvAuRaoo2DMId+uDmI9XBNgQQQAABBBBAAIH6CxCIqL8dRyKAAAI1Clj3e3eMf42F03Snu8yk+82ym69pfgV3mclguEP4MAij5T6k6S8Yl40AAggggAACCSlAICIhbwuNQgCBVBCwLv9z586VvceaCgoK/G7+sZZPpHLuMAh3uEO0fKS2u/MrBMMdGAYRSYptCCCAAAIIIIBA8goQiEjee0fLEWgWAfsG+/HHH/cn24tHA+wh1f1WPB51Jkod48eP9wMRdWnPY489JusBkAgp2jAId+iDm4/UZncYRDDcwVaDCPJ2jJuPVAfbEGhuAfsdXbp0aXM3I27/7jb7hdAABBBAAIG0FyAQkfa/AgAgUHeB4cOH1/2gOhyRLMEJm8SwpmRO9qBel9SYQwjcgE+0oQ/1GQZh1+e2283X5dopi0CiCjDMKlHvDO1CAAEEEEhWAQIRyXrnaDcCKSxQUlJyyINtol7qlClTamyaBSIaGrSpqKio8RwWXKhp6IMbcAivKJZhEMG8C+HH8hkBBBBAAAEEEEAAgfoKEIiorxzHIYBAowlYTwNbcSLRk3XXbux2fvTRRyEGCzpkZGT4n63XgQUpXnjhhdD+bt26qUuXLsrKytJxxx3nv2xohDv0IZh3IXQQGQQQQAABBBBAAAEEmliAQEQTg3M6BJJNwB607Rv3pkyp8i384sWLNWHChBqHZ1hgwOaFsGBBpHTkkUfqjTfe8HdZgKaoqCg0h4Tdl8zMTH+f5a0nyebNm/3PlneTG4CIlndXoHCPJY8AArEL2HCsTZs2RTyAv7GILGxEAAEEEEhDAQIRaXjTuWQE6iIQ7QG5LnWka1kLRNQ2R4Ttt+ETsThbgCbW4R7ukIzw/IYNG2QvdzLK8HvkBoOi5e0YdzLK8Dr4jECqC9jfr03ea39j9vdU29974BH8TVnPJnvxdxTI8I4AAgggkC4CBCLS5U5znQjUU6C4uDjqt3v1rLLWw2zugsLCwlrLJXoB601iDxk1PZxY74TGuFY7b5DcfLAt/N2dpNLNW9vtZSsG2Hu0b3qtPvc8bt4dGmK9OuwhjIRAMgvYv4uzZs0K9U6q67VYDyYLXtjLkv1N2Co748aN4+/DF+EHAggggECqCxCISPU7zPUh0EAB+w9ud7WFBlYX0+H27WBjPJzHdPI4FrKHi2S5DrdHhhtEiMZhQQl7WXLz9oBlgQwLXATDRfxCEX64AQo37w4dcSfUjFAFmxBoUgH7nc7Pzw8FEOJ1cqvXhl1Z8NL+dty/x3idg3oQQAABBBBIJAECEYl0N2gLAiksUFPX49oeWFOYJWkvzQ0WxHIRdo8tQBGk4Jtg+2z5VatW+btqCnq55wy6tttBbp4x+D4jPxpJwAKL7u9uvE9jfyeDBw/Wtm3b4l019SGAAAIIIJBQAgQiEup20BgEUlNgzpw5tfYMsG8AwydYTE2N9LwqCxa4PS3cfDQR94HPHS5ieXtQs2+OLb9jx46IVbgBCivgntPN1xQki1gxG9NWwAIFjZ3sHNbLyAJvJAQQQAABBFJVgEBEqt5ZrguBBBKw/6iuKdl/eEd7mKzpOPaltoAbLHDz0a7aHSISKR/LPBfuEJFoeYaLRLsDqb/dhk9Yj4XGTAUFBQQhGhOYuhFAAAEEEkKAQERC3AYagUBqC0ydOlX2SoeUkZGRDpeZkNdo3yDbK9ZkAbBguEikfF2Hi7jnd/MMF4n1jiR+OQuI2e+FTSxZ0zCi+lyJ/Z5YoMPqJiGAAAIIIJDqAgQiUv0Oc30IIIAAAhEFwoeL2NKotSV3uIibt4BGQ5ZFtfO6vT4YLlLbnWi+/dZTxu69vWyJXnvVtJpMTS214IP93tm9T5aJbWu6HvYhgAACCCAQqwCBiFilKIcAAgggkPYCbrDAzUeDsQCF9baw5OaDoSOxDBdxz+Pm3aEjLIsa7Q7Ed7v1WLB74L5spYugR40FJyy599rfUP3DjrNk985e4T14rJ4JEybIhmcEZf0D+IEAAggggECKCRCISLEbyuUggEDzC9hDhH27aQ8V9h7Mf2GTdkZ68LCu2ME3qkEZe5CxBxJScgvYw2aQYnmwDAIUdkzwcOvmLXBh22ua2NUNUNjvW/A75+aZ5yK4K3V7t0CDDTOze2l/29ZzxVyD3jWx3ONIZ7ReFTbUw5ZLtvtr/4aQEEAAAQQQSGUBAhGpfHe5NgTiIGD/sV3f/7iu7+mDB6f6Ht/cx9k3pPZgYsn8Zs2a5T+wWD5SsqCDPdzYQ01QxsytniBAEek4tqWegBsssKurbbiIG6yw8sE38kE+GC5S03wG7uoi0fLMc2GiB5M5B9Zu74bg38pogR47xuaRCXpMuPUcrJ0cAggggAACqS9AICL17zFXiECDBIIH4wZVkmYHjxkzxu92bZc9d+5c/+rtQdB6OAQBCpfEAhWW3DL2gEkQwlUiH0nAfp+Ch1/b7+YjlbdtwUNwpHwsy6Lace55ouXTZbiIedorninSvxPxrJ+6EEAAAQQQaG4BAhHNfQc4PwIIpJxAMIFd+IVZD4faUixlaquD/QjUJNCQ4SLu0JEgX9fhIu7QETcfrRdBTdfS1Pvs77MxVswIrsN6ntg53HsU7OMdAQQQQACBVBIgEJFKd5NrQQABBBBAIM4C4cNFaqveHS7i5u04G4rQkGVR3aEjzTFcxAIEdg3WA8ICBpaPR8+lYcOG+cNwbCgOvSFq+w1jPwIIIIBAKggQiEiFu8g1IIBAswlYt3R7IAkmpGzMhjBMpjF1qTteAuHDRWqb58LOaw/0QXLz9sAfzHNh+Wh/Z26Aws1bne7QkYYui2qrZtjfoQUkbGJJS9YzxNoWvCz4Yq/wCUXdwIkdbwEee3fbZ8fZEC4LTLjb/RPxAwEEEEAAgRQSIBCRQjeTS0EAgaYXsIcFe3ggIYBA/QXch243H61Ge+gP/u6CISJWNsjXdVlUCwgEPRHcfPg8FxYksYllLRgxbtw4P5AQ9BiJJeAS7Xqs3Y8//rgs0GHXZYGIIH3yySd69913dfrppwebeEcAAQQQQCDpBQhEJP0t5AIQQAABBBBILwELFtQlBQEKO8Ye9C2Q4eZtuIhtD+/F4Beq/mEBB5vM05L1hrCXbbPAibXHXuGBi+pDP/Nm57chHRbYsFfQHitoPSesXksWhBgyZIgfYHn66afVv39/fzs/EEAAAQQQSHYBAhHJfgdpPwIIIIAAAgjUKGAP9sHDvRWMpfeCBQiCFOQt+OAOD7EAh20LT+Hns/1uACS8fPDZghB2Ljs+CEK8/vrr/m4LSBCMCKR4RwABBBBIdgECEcl+B2k/AggggAACCMRdwB0iEuSDngy1ncztgVFb2WB/EISwnhXhQQgrE2wjGBGI8Y4AAgggkMwCLZK58bQdAQQQQAABBBBoKgHr/VBQUBD307lBiF27dum8885T0BPCPZkFIy677DJVVFS4m8kjgAACCCCQdAIEIpLultFgBBBAAAEEEGgOAZvQ0oIRNlfEnDlz/EklLYjQkGQredhwDOsJYUGIoUOHhpY4Da+3c+fOWrhwobKy6NAabsNnBBBAAIHkEuD/yZLrftFaBBBAAAEEEGgmAZtbYvz48f4ElbZyhr0s2VAMG7YRTDppgYXw5C4ranNABBNcBuWCIMQLL7wQbDrk3YIQDMs4hIQPCCCAAAJJLEAgIolvHk1HAAEEEEAAgaYTsAknBw8e7AcRLCBhvRksqBC8YpkEM1JrCUJEUmEbAggggEAqCxCISOW7y7UhgAACCCCAQNwFrOdD0Bsi6NkQvNvJLEARKdlxtuqGDeew8pYIQkSSYhsCCCCAQKoLEIhI9TvM9SGAAAIIIIBAowm4QzJiOUleXp4/J4SVJQgRixhlEEAAAQRSUYDJKlPxrnJNCCCAAAIIIBB3gaAXQ30rDoIQNl8EQYj6KnIcAggggEAqCBCISIW7yDUggEAdBebr4owMZTivi+eXaHKfDPWZXFJV15bHVHhKR2VbmeyO+vrcnd72Q4+7eL5UMrlPdT1Zand8oR7bcrApB/dVn6vPZFXXfrBQpNy6O3R6rGWrj191c66yR/zR+1Sux0a2l7WNhAAC8RWYOXOmxo0bV+9K7XiCEPXm40AEEEAAgRQSIBCRQjeTS0EAgVgFRmlJZaVWT8qVcidptZdfMso9dp3uvmCEFveeoXVllSrbvFqzvtYhVOCieZWqdI+xOso26vbD5+rmew+GGvKmrfPKzdNF3pH+MeumKa98hW7r105ZGVnqcs7dWlHuBTOm9lO7rKqAx9BvjdDxp9+hNeunq2/GxZq/bYGuPCrbC3Z4gY5TbtWrXijDAiZVgQYLjPSRxU5aZGaofE+Jis7sqcsXluqJ0dVBlS3zNcI/Plu5hY/JiZOErocMAgjELmDBhA0bNqigoMCf6yHWI3v27OmvtkFPiFjFKIcAAgggkMoCzBGRyneXa0MAgfoJvL1Qj6zqoatnX60erbwqWvVWD6cme8jPGJ2rSavX6crQ9p3aVSq1bNkytCVS5u17x+qu1ndqc9lQ3XfmabrrsWE65fer1fXaZ/Tanbkqy+qtjzv0Ud9Fl2q1BS4W5Ktw+//TT9f/QcNVqd76QI9GqtjfdryKVvxYKzJGS16wxIIrS646R8uHLlHZz7fp8iO+p59NytcPT45aATsQQCAGgV7eShnFxcV+SVuq0142V4StqhFMSBleTTC55d69e/Xqq6+G7/Y/s0RnRBY2IoAAAgikoACBiBS8qVwSAgg0UGDbdu1QphdU8AZjXJyh0U9Yx4nV8uICfrLeDUEPipKHvU3WeyF7ulqfdpuev73mp/znXlwlvbJK3bIn+nXlvr5PD9w3SUuv+KqOWvRF3fPsixpSdZqqn/n3aPaioboht4fuu/aPWvnrY9y9teRL9Pwrpdq6/nxlz6kqWv66915zE2upk90IIOAKDBo0yO/p4G6rKT9//nzt27fvM0UIQnyGhA0IIIAAAikswNCMFL65XBoCCNRT4KSzdGa7TXrm0X/qkiWVmmdjK2pK3tCM116boKPXLtcr22sqKJ12ijcc5Kx79I4N+di2RSvvPFblvW7W0++/qaJeL+lXD5fo2GO6S/v3aV95ucq3t9KAX/9H2xZfou0P3i8vJuKnj7dsUfmy52VxhUNTD3Xvqqpjy/votJMy1XX0X1TqDSUp9Y5ZeMgQlEOP5BMCCDS+QNCTwj0TQQhXgzwCCCCAQDoIEIhIh7vMNSKAQN0EWuXrvnmjtHfmGWrnTVY5+unD1K3jwSEX/tAMb7s7IWTLM+/RgolbNPHcyf68D9FOmDfxft249w71ys5Q2+4X6pdvfaDfXtlLh2Xnqmjj2brhyjx1GvAVnfrBDH2+w1X68/NFOrNbttoNf1Q5117vzTeRpyu/capen9hNHa5+Q8ccFX6mPH154OF69pq2OuPut3XZvTP1+aeH+9fR6bib9X/hxfmMAAJNJrBy5UqVlBycR6Zjx4664YYb9PLLL6t///5N1g5OhAACCCCAQHMLZHgTrlXW1AibVd7S0qVL69T1sKY62YcAAggggAACCKSbwPXXX68HHnhAAwYM0LXXXqsRI0aoTZs26cbA9SKAAAIIpKBAUVGRpk6dqoEDB/pzJ9V2icwRUZsQ+xFAAAEEEEAAgQYK2Pc+3bt315tvvqnjjjuugbVxOAIIIIAAAsktQCAiue8frUcAAQQQQACBJBCwHqY/+MEPkqClNBEBBBBAAIHGF2COiMY35gwIIIAAAggggAACCCCAAAIIIFAtQCCCXwUEEEAAAQQQQAABBBBAAAEEEGgyAQIRTUbNiRBAAAEEEEAAAQQQQAABBBBAgEAEvwMIIIAAAggggAACCCCAAAIIINBkAgQimoyaEyGAAAIIIIAAAggggAACCCCAAIEIfgcQQAABBBBAAIG4CqzSzbnZGvFHr9LyxzSy/cWaH9f6qQwBBBBAAIHkFiAQkdz3j9YjgAACCCCAQHMLlExVv3ZZsiU67dVn8lvKzCjXnpIindnzci0sfUKjM/pocklzN5TzI4AAAgggkBgCBCIS4z7QCgQQQAABBBBIUoEl03+s90b+n0qfGqOuncbo/mnHV13J8UVa8eMhXv4izatcp2l5SXqBNBsBBBBAAIE4CxCIiDMo1SGAAAIIIIBAGgtktVTLNL58Lh0BBBBAAIFYBGIORGzfvj2W+iiDAAIIIIAAAgiklcD5oy5RxZzz1W7on/S5Sd/SIPfqe3RXV+1TeXm593J3kEcAAQQQQCB1BFavXu1fTE5OTkwXVWsgomPHjn5FQcUx1UohBBBAAAEEEEAgTQR2b/lIe+1a93+sl74/SlPduSDyvqyBhz+ra9qeobvfShMQLhMBBBBAIO0ESkqq/s+vb9++MV17Vm2lrKLly5dr2bJltRVlPwIIIIAAAgggkGYCf9X4cW9p/JpK/ej4Dfrh2bl6ZU2elqyrrHYYqUc+GplmJlwuAggggEA6CdjoiY0bN/qXHLceEYMGDfIr3LRpk//ODwQQQAABBBBAAIFA4Au6dIQ0q6+3YkbbU3V/+x+p6LJgH+8IIIAAAgikvoA7emL48OExXXBGpZdqKmmV9uvXzy8yY8YMjR8/vqbi7EMAAQQQQAABBBBAAAEEEEAAgTQRGDx4sD+ComfPnqGeEbVdeq1zRNjQjIEDB/r1TJ06NeaKazsx+xFAAAEEEEAAAQQQQAABBBBAIHkFZs6cGZrGoaioKOYLqbVHhNXk9oqwoRpLly6N+QQURAABBBBAAAEEEEAAAQQQQACB1BKweSFs9ITNEZGXl+fHDWK9wlp7RFhF1ivChmVYskkr8/Pz/ZP5G/iBAAIIIIAAAggggAACCCCAAAJpI2CdFYK4gK20WVxcXKdrjykQYTXa3BAFBQV+5YsXL/YjHxaUICGAAAIIIIAAAggggAACCCCAQHoI2JQN1hMimKTS4gOxLtsZCMU0NCMobO827sNOHKTCwkL/pO5cEsE+3hFAAAEEEEAAAQQQQAABBBBAIHkFbOhFSUmJPzrCgg5BAMJ6QljnhLoGIUyizoEIO8hObj0kIi3paY2Ide1Qq4uEAAIIIIAAAggggAACCCCAAAKJJ2DzQNgrPNmCFjYco1evXuG7Yvpcr0BEULOd2F7Lly8PNvGOAAIIIIAAAggggAACCCCAAAIpJmA9IIYPHy4bFWGLWDQkNSgQEZzYumoE3TOYNyJQ4R0BBBBAAAEEEEAAAQQQQACB5BWw0Q7B0IuGBh9chbgEItwKySOAAAIIIIAAAggggAACCCCAAALRBGJeNSNaBWxHAAEEEEAAAQQQQAABBBBAAAEEYhUgEBGrFOUQQAABBBBAAAEEEEAAAQQQQKDBAgQiGkxIBQgggAACCCCAAAIIIIAAAgggEKsAgYhYpSiHAAIIIIAAAggggAACCCCAAAINFiAQ0WBCKkAAAQQQQAABBBBAAAEEEEAAgVgFCETEKkU5BBBAAAEEEEAAAQQQQAABBBBosACBiAYTUgECCCCAAAIIIIAAAggggAACCMQqQCAiVinKIYAAAggggAACCCCAAAIIIIBAgwUIRDSYkAoQQAABBBBAAAEEEEAAAQQQQCBWAQIRsUpRDgEEEEAAAQQQQAABBBBAAAEEGixAIKLBhFSAAAIIIIAAAggggAACCCCAAAKxChCIiFWKcggggAACCCCAAAIIIIAAAggg0GCB/w/hPEWBKLwHJgAAAABJRU5ErkJggg==;" parent="1" vertex="1">
                    <mxGeometry x="350" y="650" width="1058" height="630" as="geometry"/>
                </mxCell>
            </root>
        </mxGraphModel>
    </diagram>
</mxfile>